<svg width="360" height="628" viewBox="0 0 360 628" fill="none" xmlns="http://www.w3.org/2000/svg">
<g style="mix-blend-mode:screen" filter="url(#filter0_f)">
<path d="M85.2509 314.121V136.87L262.502 314.121L85.2509 491.372V314.121Z" fill="url(#paint0_linear)"/>
<path d="M86.441 314.121L86.441 139.743L260.819 314.121L86.441 488.499L86.441 314.121Z" stroke="#565656" stroke-width="2.3801"/>
</g>
<g style="mix-blend-mode:screen" opacity="0.4">
<path d="M256.336 225.305C256.242 225.212 256.168 225.192 256.119 225.19C256.064 225.188 255.992 225.206 255.91 225.268C255.736 225.398 255.582 225.674 255.582 225.998V397.065C255.582 397.39 255.736 397.666 255.91 397.796C255.992 397.857 256.064 397.876 256.119 397.874C256.168 397.872 256.242 397.852 256.336 397.758L341.004 312.796C341.699 312.098 341.699 310.966 341.004 310.268L256.336 225.305Z" fill="url(#paint1_radial)"/>
<path d="M256.336 225.305C256.242 225.212 256.168 225.192 256.119 225.19C256.064 225.188 255.992 225.206 255.91 225.268C255.736 225.398 255.582 225.674 255.582 225.998V397.065C255.582 397.39 255.736 397.666 255.91 397.796C255.992 397.857 256.064 397.876 256.119 397.874C256.168 397.872 256.242 397.852 256.336 397.758L341.004 312.796C341.699 312.098 341.699 310.966 341.004 310.268L256.336 225.305Z" stroke="url(#paint2_linear)" stroke-width="0.811816"/>
</g>
<g style="mix-blend-mode:screen" filter="url(#filter1_d)">
<path d="M161.438 183.781C162.319 183.816 163.19 184.169 163.863 184.841L287.952 308.793C289.37 310.21 289.37 312.507 287.952 313.924L163.863 437.876C163.19 438.548 162.319 438.901 161.438 438.936V183.781Z" fill="url(#paint3_radial)"/>
<path d="M163.576 185.128C163.086 184.639 162.479 184.34 161.844 184.231V438.486C162.479 438.377 163.086 438.078 163.576 437.589L287.665 313.637C288.925 312.379 288.925 310.339 287.665 309.08L163.576 185.128Z" stroke="url(#paint4_linear)" stroke-width="0.811816"/>
</g>
<g filter="url(#filter2_b)">
<path d="M278.721 435.432C277.783 436.407 277.917 438.099 279.27 438.072L307.263 437.52C309.021 437.485 310.418 436.032 310.383 434.274L309.831 406.281C309.805 404.929 308.109 404.861 307.172 405.836L278.721 435.432Z" fill="url(#paint5_linear)" fill-opacity="0.32"/>
<path d="M279.013 435.713C278.626 436.116 278.473 436.658 278.537 437.064C278.569 437.263 278.648 437.411 278.754 437.507C278.855 437.599 279.013 437.671 279.262 437.666L307.255 437.114C308.789 437.084 310.008 435.816 309.977 434.282L309.425 406.289C309.42 406.04 309.342 405.886 309.246 405.788C309.146 405.686 308.995 405.612 308.795 405.589C308.387 405.541 307.852 405.714 307.464 406.118L279.013 435.713Z" stroke="url(#paint6_linear)" stroke-width="0.811816"/>
</g>
<g filter="url(#filter3_b)">
<path d="M227.846 408.451C226.91 409.424 227.031 411.104 228.38 411.077L280.461 410.05C282.219 410.016 283.616 408.563 283.581 406.805L282.554 354.724C282.528 353.374 280.845 353.32 279.909 354.293L227.846 408.451Z" fill="url(#paint7_linear)" fill-opacity="0.32"/>
<path d="M228.139 408.732C227.75 409.136 227.596 409.675 227.657 410.078C227.687 410.275 227.765 410.42 227.868 410.514C227.968 410.604 228.124 410.676 228.372 410.671L280.453 409.645C281.987 409.614 283.206 408.346 283.176 406.813L282.149 354.732C282.144 354.483 282.066 354.33 281.972 354.234C281.874 354.134 281.725 354.063 281.528 354.041C281.123 353.995 280.59 354.171 280.202 354.575L228.139 408.732Z" stroke="url(#paint8_linear)" stroke-width="0.811816"/>
</g>
<g filter="url(#filter4_b)">
<path d="M270.139 187.228C269.202 186.253 269.336 184.562 270.688 184.588L298.681 185.14C300.439 185.175 301.836 186.628 301.802 188.386L301.25 216.379C301.223 217.732 299.527 217.799 298.59 216.824L270.139 187.228Z" fill="url(#paint9_linear)" fill-opacity="0.32"/>
<path d="M270.432 186.947C270.044 186.544 269.892 186.002 269.956 185.596C269.987 185.397 270.066 185.249 270.172 185.154C270.274 185.062 270.432 184.989 270.68 184.994L298.673 185.546C300.207 185.576 301.426 186.844 301.396 188.378L300.844 216.371C300.839 216.62 300.76 216.774 300.665 216.872C300.565 216.975 300.414 217.048 300.214 217.071C299.805 217.119 299.27 216.946 298.883 216.543L270.432 186.947Z" stroke="url(#paint10_linear)" stroke-width="0.811816"/>
</g>
<g filter="url(#filter5_b)">
<path d="M219.265 214.201C218.329 213.228 218.449 211.548 219.799 211.575L271.88 212.602C273.638 212.637 275.035 214.09 275 215.848L273.973 267.928C273.947 269.278 272.264 269.332 271.328 268.359L219.265 214.201Z" fill="url(#paint11_linear)" fill-opacity="0.32"/>
<path d="M219.557 213.92C219.169 213.516 219.015 212.977 219.076 212.574C219.106 212.378 219.184 212.232 219.287 212.138C219.387 212.048 219.543 211.976 219.791 211.981L271.872 213.008C273.406 213.038 274.625 214.306 274.595 215.84L273.568 267.92C273.563 268.169 273.485 268.322 273.391 268.418C273.293 268.518 273.144 268.589 272.947 268.612C272.542 268.657 272.009 268.481 271.621 268.078L219.557 213.92Z" stroke="url(#paint12_linear)" stroke-width="0.811816"/>
</g>
<g style="mix-blend-mode:screen" opacity="0.82" filter="url(#filter6_b)">
<path d="M125.406 186.07C126.173 186.104 126.93 186.414 127.515 187L250.898 310.382C252.141 311.625 252.141 313.641 250.898 314.884L127.515 438.267C126.93 438.852 126.173 439.162 125.406 439.196V186.07Z" fill="url(#paint13_radial)"/>
<path d="M127.162 187.353C126.802 186.994 126.366 186.757 125.906 186.645V438.622C126.366 438.509 126.802 438.273 127.162 437.913L250.544 314.531L250.897 314.884L250.544 314.531C251.592 313.483 251.592 311.784 250.544 310.735L127.162 187.353Z" stroke="black"/>
</g>
<g opacity="0.82" filter="url(#filter7_b)">
<path d="M89.9264 186.07C90.6931 186.104 91.4499 186.414 92.0353 187L215.418 310.382C216.661 311.625 216.661 313.641 215.418 314.884L92.0353 438.267C91.4499 438.852 90.6931 439.162 89.9264 439.196V186.07Z" fill="url(#paint14_linear)" fill-opacity="0.32"/>
<path d="M91.7483 187.287C91.3459 186.884 90.8513 186.631 90.3323 186.527V438.739C90.8513 438.635 91.3459 438.382 91.7483 437.98L215.131 314.597C216.215 313.513 216.215 311.754 215.131 310.669L91.7483 187.287Z" stroke="url(#paint15_linear)" stroke-width="0.811816"/>
</g>
<defs>
<filter id="filter0_f" x="-50.749" y="0.871094" width="449.251" height="626.502" filterUnits="userSpaceOnUse" color-interpolation-filters="sRGB">
<feFlood flood-opacity="0" result="BackgroundImageFix"/>
<feBlend mode="normal" in="SourceGraphic" in2="BackgroundImageFix" result="shape"/>
<feGaussianBlur stdDeviation="68" result="effect1_foregroundBlur"/>
</filter>
<filter id="filter1_d" x="109.438" y="131.781" width="231.577" height="359.155" filterUnits="userSpaceOnUse" color-interpolation-filters="sRGB">
<feFlood flood-opacity="0" result="BackgroundImageFix"/>
<feColorMatrix in="SourceAlpha" type="matrix" values="0 0 0 0 0 0 0 0 0 0 0 0 0 0 0 0 0 0 127 0" result="hardAlpha"/>
<feOffset/>
<feGaussianBlur stdDeviation="26"/>
<feColorMatrix type="matrix" values="0 0 0 0 0 0 0 0 0 0.28 0 0 0 0 1 0 0 0 1 0"/>
<feBlend mode="normal" in2="BackgroundImageFix" result="effect1_dropShadow"/>
<feBlend mode="normal" in="SourceGraphic" in2="effect1_dropShadow" result="shape"/>
</filter>
<filter id="filter2_b" x="255.386" y="382.445" width="77.7282" height="78.3587" filterUnits="userSpaceOnUse" color-interpolation-filters="sRGB">
<feFlood flood-opacity="0" result="BackgroundImageFix"/>
<feGaussianBlur in="BackgroundImage" stdDeviation="11.3654"/>
<feComposite in2="SourceAlpha" operator="in" result="effect1_backgroundBlur"/>
<feBlend mode="normal" in="SourceGraphic" in2="effect1_backgroundBlur" result="shape"/>
</filter>
<filter id="filter3_b" x="204.507" y="330.898" width="101.805" height="102.911" filterUnits="userSpaceOnUse" color-interpolation-filters="sRGB">
<feFlood flood-opacity="0" result="BackgroundImageFix"/>
<feGaussianBlur in="BackgroundImage" stdDeviation="11.3654"/>
<feComposite in2="SourceAlpha" operator="in" result="effect1_backgroundBlur"/>
<feBlend mode="normal" in="SourceGraphic" in2="effect1_backgroundBlur" result="shape"/>
</filter>
<filter id="filter4_b" x="246.805" y="161.859" width="77.7282" height="78.3587" filterUnits="userSpaceOnUse" color-interpolation-filters="sRGB">
<feFlood flood-opacity="0" result="BackgroundImageFix"/>
<feGaussianBlur in="BackgroundImage" stdDeviation="11.3654"/>
<feComposite in2="SourceAlpha" operator="in" result="effect1_backgroundBlur"/>
<feBlend mode="normal" in="SourceGraphic" in2="effect1_backgroundBlur" result="shape"/>
</filter>
<filter id="filter5_b" x="195.926" y="188.843" width="101.805" height="102.911" filterUnits="userSpaceOnUse" color-interpolation-filters="sRGB">
<feFlood flood-opacity="0" result="BackgroundImageFix"/>
<feGaussianBlur in="BackgroundImage" stdDeviation="11.3654"/>
<feComposite in2="SourceAlpha" operator="in" result="effect1_backgroundBlur"/>
<feBlend mode="normal" in="SourceGraphic" in2="effect1_backgroundBlur" result="shape"/>
</filter>
<filter id="filter6_b" x="97.4062" y="158.07" width="182.424" height="309.126" filterUnits="userSpaceOnUse" color-interpolation-filters="sRGB">
<feFlood flood-opacity="0" result="BackgroundImageFix"/>
<feGaussianBlur in="BackgroundImage" stdDeviation="14"/>
<feComposite in2="SourceAlpha" operator="in" result="effect1_backgroundBlur"/>
<feBlend mode="normal" in="SourceGraphic" in2="effect1_backgroundBlur" result="shape"/>
</filter>
<filter id="filter7_b" x="79.9263" y="176.07" width="146.424" height="273.126" filterUnits="userSpaceOnUse" color-interpolation-filters="sRGB">
<feFlood flood-opacity="0" result="BackgroundImageFix"/>
<feGaussianBlur in="BackgroundImage" stdDeviation="5"/>
<feComposite in2="SourceAlpha" operator="in" result="effect1_backgroundBlur"/>
<feBlend mode="normal" in="SourceGraphic" in2="effect1_backgroundBlur" result="shape"/>
</filter>
<linearGradient id="paint0_linear" x1="63.5467" y1="440.729" x2="63.5467" y2="159.78" gradientUnits="userSpaceOnUse">
<stop stop-color="#0C1DB8"/>
<stop offset="1" stop-color="#0047FF"/>
</linearGradient>
<radialGradient id="paint1_radial" cx="0" cy="0" r="1" gradientUnits="userSpaceOnUse" gradientTransform="translate(298.581 311.485) rotate(90) scale(87.1104 43.3563)">
<stop stop-color="#304FFE"/>
<stop offset="1" stop-color="#3D5AFE"/>
</radialGradient>
<linearGradient id="paint2_linear" x1="341.931" y1="224.379" x2="212.992" y2="265.093" gradientUnits="userSpaceOnUse">
<stop stop-color="#3D5AFE" stop-opacity="0.05"/>
<stop offset="0.229167" stop-color="#3D5AFE"/>
<stop offset="0.463542" stop-color="#A9B6FF"/>
<stop offset="0.786458" stop-color="#3D5AFE"/>
<stop offset="1" stop-color="#3D5AFE" stop-opacity="0.05"/>
</linearGradient>
<radialGradient id="paint3_radial" cx="0" cy="0" r="1" gradientUnits="userSpaceOnUse" gradientTransform="translate(225.267 311.29) rotate(90) scale(127.515 63.7576)">
<stop stop-color="#304FFE"/>
<stop offset="1" stop-color="#3D5AFE"/>
</radialGradient>
<linearGradient id="paint4_linear" x1="289.016" y1="183.781" x2="99.563" y2="243.879" gradientUnits="userSpaceOnUse">
<stop stop-color="#3D5AFE" stop-opacity="0.05"/>
<stop offset="0.229167" stop-color="#3D5AFE"/>
<stop offset="0.463542" stop-color="#A9B6FF"/>
<stop offset="0.786458" stop-color="#3D5AFE"/>
<stop offset="1" stop-color="#3D5AFE" stop-opacity="0.05"/>
</linearGradient>
<linearGradient id="paint5_linear" x1="306.565" y1="399.708" x2="277.47" y2="442.766" gradientUnits="userSpaceOnUse">
<stop stop-color="#C4C4C4" stop-opacity="0.67"/>
<stop offset="0.170882" stop-color="#000C51" stop-opacity="0.2"/>
<stop offset="0.446706" stop-color="#000C51" stop-opacity="0.19"/>
<stop offset="0.668457" stop-color="#000C51" stop-opacity="0.22"/>
<stop offset="1" stop-color="#C4C4C4" stop-opacity="0.5"/>
</linearGradient>
<linearGradient id="paint6_linear" x1="310.384" y1="404.066" x2="271.08" y2="428.531" gradientUnits="userSpaceOnUse">
<stop stop-color="#3D5AFE" stop-opacity="0.05"/>
<stop offset="0.229167" stop-color="#3D5AFE"/>
<stop offset="0.463542" stop-color="#A9B6FF"/>
<stop offset="0.786458" stop-color="#3D5AFE"/>
<stop offset="1" stop-color="#3D5AFE" stop-opacity="0.05"/>
</linearGradient>
<linearGradient id="paint7_linear" x1="277.009" y1="345.019" x2="226.906" y2="419.15" gradientUnits="userSpaceOnUse">
<stop stop-color="#C4C4C4" stop-opacity="0.67"/>
<stop offset="0.170882" stop-color="#000C51" stop-opacity="0.2"/>
<stop offset="0.446706" stop-color="#000C51" stop-opacity="0.19"/>
<stop offset="0.668457" stop-color="#000C51" stop-opacity="0.22"/>
<stop offset="1" stop-color="#C4C4C4" stop-opacity="0.5"/>
</linearGradient>
<linearGradient id="paint8_linear" x1="283.582" y1="352.523" x2="215.912" y2="394.636" gradientUnits="userSpaceOnUse">
<stop stop-color="#3D5AFE" stop-opacity="0.05"/>
<stop offset="0.229167" stop-color="#3D5AFE"/>
<stop offset="0.463542" stop-color="#A9B6FF"/>
<stop offset="0.786458" stop-color="#3D5AFE"/>
<stop offset="1" stop-color="#3D5AFE" stop-opacity="0.05"/>
</linearGradient>
<linearGradient id="paint9_linear" x1="297.984" y1="222.952" x2="268.889" y2="179.894" gradientUnits="userSpaceOnUse">
<stop stop-color="#C4C4C4" stop-opacity="0.67"/>
<stop offset="0.170882" stop-color="#000C51" stop-opacity="0.2"/>
<stop offset="0.446706" stop-color="#000C51" stop-opacity="0.19"/>
<stop offset="0.668457" stop-color="#000C51" stop-opacity="0.22"/>
<stop offset="1" stop-color="#C4C4C4" stop-opacity="0.5"/>
</linearGradient>
<linearGradient id="paint10_linear" x1="301.802" y1="218.594" x2="262.499" y2="194.129" gradientUnits="userSpaceOnUse">
<stop stop-color="#3D5AFE" stop-opacity="0.05"/>
<stop offset="0.229167" stop-color="#3D5AFE"/>
<stop offset="0.463542" stop-color="#A9B6FF"/>
<stop offset="0.786458" stop-color="#3D5AFE"/>
<stop offset="1" stop-color="#3D5AFE" stop-opacity="0.05"/>
</linearGradient>
<linearGradient id="paint11_linear" x1="268.428" y1="277.633" x2="218.325" y2="203.502" gradientUnits="userSpaceOnUse">
<stop stop-color="#C4C4C4" stop-opacity="0.67"/>
<stop offset="0.170882" stop-color="#000C51" stop-opacity="0.2"/>
<stop offset="0.446706" stop-color="#000C51" stop-opacity="0.19"/>
<stop offset="0.668457" stop-color="#000C51" stop-opacity="0.22"/>
<stop offset="1" stop-color="#C4C4C4" stop-opacity="0.5"/>
</linearGradient>
<linearGradient id="paint12_linear" x1="275.001" y1="270.129" x2="207.331" y2="228.016" gradientUnits="userSpaceOnUse">
<stop stop-color="#3D5AFE" stop-opacity="0.05"/>
<stop offset="0.229167" stop-color="#3D5AFE"/>
<stop offset="0.463542" stop-color="#A9B6FF"/>
<stop offset="0.786458" stop-color="#3D5AFE"/>
<stop offset="1" stop-color="#3D5AFE" stop-opacity="0.05"/>
</linearGradient>
<radialGradient id="paint13_radial" cx="0" cy="0" r="1" gradientUnits="userSpaceOnUse" gradientTransform="translate(188.658 312.565) rotate(90) scale(126.501 63.181)">
<stop stop-color="#304FFE"/>
<stop offset="1" stop-color="#3D5AFE"/>
</radialGradient>
<linearGradient id="paint14_linear" x1="201.882" y1="153.63" x2="-22.4813" y2="322.654" gradientUnits="userSpaceOnUse">
<stop stop-color="#C4C4C4" stop-opacity="0.67"/>
<stop offset="0.170882" stop-color="#000C51" stop-opacity="0.2"/>
<stop offset="0.446706" stop-color="#000C51" stop-opacity="0.19"/>
<stop offset="0.668457" stop-color="#000C51" stop-opacity="0.22"/>
<stop offset="1" stop-color="#C4C4C4" stop-opacity="0.5"/>
</linearGradient>
<linearGradient id="paint15_linear" x1="216.35" y1="186.07" x2="28.573" y2="245.571" gradientUnits="userSpaceOnUse">
<stop stop-color="#3D5AFE" stop-opacity="0.05"/>
<stop offset="0.229167" stop-color="#3D5AFE"/>
<stop offset="0.463542" stop-color="#A9B6FF"/>
<stop offset="0.786458" stop-color="#3D5AFE"/>
<stop offset="1" stop-color="#3D5AFE" stop-opacity="0.05"/>
</linearGradient>
</defs>
</svg>
