<svg width="902" height="970" viewBox="0 0 902 970" fill="none" xmlns="http://www.w3.org/2000/svg">
<g style="mix-blend-mode:screen" filter="url(#filter0_f)">
<path d="M310.59 484.828V175.001L620.417 484.828L310.59 794.655V484.828Z" fill="url(#paint0_linear)"/>
<path d="M311.78 484.828L311.78 177.874L618.734 484.828L311.78 791.782L311.78 484.828Z" stroke="#565656" stroke-width="2.3801"/>
</g>
<g style="mix-blend-mode:screen" opacity="0.4">
<path d="M609.855 329.366C609.645 329.155 609.444 329.081 609.272 329.075C609.094 329.068 608.901 329.131 608.713 329.272C608.327 329.561 608.019 330.137 608.019 330.792V629.81C608.019 630.464 608.327 631.04 608.713 631.329C608.901 631.471 609.094 631.533 609.272 631.527C609.444 631.52 609.645 631.446 609.855 631.235L757.851 482.724C759.184 481.386 759.184 479.216 757.851 477.878L609.855 329.366Z" fill="url(#paint1_radial)"/>
<path d="M609.855 329.366C609.645 329.155 609.444 329.081 609.272 329.075C609.094 329.068 608.901 329.131 608.713 329.272C608.327 329.561 608.019 330.137 608.019 330.792V629.81C608.019 630.464 608.327 631.04 608.713 631.329C608.901 631.471 609.094 631.533 609.272 631.527C609.444 631.52 609.645 631.446 609.855 631.235L757.851 482.724C759.184 481.386 759.184 479.216 757.851 477.878L609.855 329.366Z" stroke="url(#paint2_linear)" stroke-width="0.811816"/>
</g>
<g style="mix-blend-mode:screen" filter="url(#filter1_d)">
<path d="M443.763 257C445.303 257.061 446.825 257.678 448.001 258.853L664.903 475.515C667.383 477.992 667.383 482.008 664.903 484.485L448.001 701.147C446.825 702.322 445.303 702.939 443.763 703V257Z" fill="url(#paint3_radial)"/>
<path d="M447.714 259.14C446.721 258.148 445.464 257.58 444.169 257.437V702.563C445.464 702.42 446.721 701.852 447.714 700.86L664.616 484.198C666.937 481.879 666.937 478.121 664.616 475.802L447.714 259.14Z" stroke="url(#paint4_linear)" stroke-width="0.811816"/>
</g>
<g filter="url(#filter2_b)">
<path d="M647.495 698.196C646.557 699.171 646.599 700.792 647.885 701.213C648.464 701.403 649.084 701.5 649.727 701.487L698.658 700.522C701.731 700.462 704.173 697.921 704.112 694.849L703.147 645.918C703.135 645.274 703.013 644.659 702.801 644.088C702.33 642.82 700.708 642.842 699.771 643.817L647.495 698.196Z" fill="url(#paint5_linear)" fill-opacity="0.32"/>
<path d="M647.787 698.477C647.395 698.886 647.218 699.42 647.26 699.875C647.301 700.313 647.54 700.673 648.011 700.827C648.547 701.003 649.122 701.093 649.719 701.081L698.65 700.116C701.499 700.06 703.763 697.705 703.706 694.857L702.742 645.926C702.73 645.329 702.617 644.758 702.421 644.229C702.248 643.764 701.878 643.54 701.439 643.516C700.983 643.492 700.456 643.69 700.064 644.098L647.787 698.477Z" stroke="url(#paint6_linear)" stroke-width="0.811816"/>
</g>
<g filter="url(#filter3_b)">
<path d="M558.578 651.025C557.637 652.004 557.685 653.633 558.98 654.044C559.545 654.224 560.149 654.315 560.775 654.303L651.809 652.508C654.882 652.447 657.324 649.907 657.264 646.834L655.469 555.799C655.456 555.174 655.341 554.574 655.14 554.017C654.678 552.739 653.048 552.755 652.106 553.734L558.578 651.025Z" fill="url(#paint7_linear)" fill-opacity="0.32"/>
<path d="M558.871 651.306C558.477 651.716 558.3 652.253 558.345 652.709C558.387 653.147 558.628 653.507 559.103 653.658C559.626 653.824 560.186 653.908 560.767 653.897L651.801 652.102C654.65 652.046 656.914 649.691 656.858 646.842L655.063 555.807C655.051 555.227 654.944 554.671 654.758 554.155C654.589 553.686 654.22 553.459 653.78 553.434C653.323 553.408 652.793 553.605 652.399 554.015L558.871 651.306Z" stroke="url(#paint8_linear)" stroke-width="0.811816"/>
</g>
<g filter="url(#filter4_b)">
<path d="M632.495 261.699C631.557 260.723 631.599 259.103 632.885 258.682C633.464 258.492 634.084 258.395 634.727 258.408L683.658 259.372C686.731 259.433 689.173 261.973 689.112 265.046L688.147 313.977C688.135 314.62 688.013 315.236 687.801 315.807C687.33 317.075 685.708 317.053 684.771 316.078L632.495 261.699Z" fill="url(#paint9_linear)" fill-opacity="0.32"/>
<path d="M632.787 261.417C632.395 261.009 632.218 260.474 632.26 260.02C632.301 259.582 632.54 259.222 633.011 259.067C633.547 258.892 634.122 258.802 634.719 258.813L683.65 259.778C686.499 259.834 688.763 262.189 688.706 265.038L687.742 313.969C687.73 314.566 687.617 315.137 687.421 315.665C687.248 316.13 686.878 316.355 686.439 316.378C685.983 316.403 685.456 316.205 685.064 315.797L632.787 261.417Z" stroke="url(#paint10_linear)" stroke-width="0.811816"/>
</g>
<g filter="url(#filter5_b)">
<path d="M543.578 308.862C542.637 307.882 542.685 306.253 543.98 305.842C544.545 305.663 545.149 305.572 545.775 305.584L636.809 307.379C639.882 307.439 642.324 309.98 642.264 313.052L640.469 404.087C640.456 404.713 640.341 405.312 640.14 405.87C639.678 407.148 638.048 407.132 637.106 406.153L543.578 308.862Z" fill="url(#paint11_linear)" fill-opacity="0.32"/>
<path d="M543.871 308.581C543.477 308.171 543.3 307.633 543.345 307.178C543.387 306.739 543.628 306.38 544.103 306.229C544.626 306.063 545.186 305.978 545.767 305.99L636.801 307.785C639.65 307.841 641.914 310.196 641.858 313.044L640.063 404.079C640.051 404.66 639.944 405.216 639.758 405.732C639.589 406.201 639.22 406.427 638.78 406.453C638.323 406.479 637.793 406.281 637.399 405.871L543.871 308.581Z" stroke="url(#paint12_linear)" stroke-width="0.811816"/>
</g>
<g style="mix-blend-mode:screen" opacity="0.82" filter="url(#filter6_b)">
<path d="M380.779 261C382.119 261.06 383.442 261.601 384.466 262.624L600.133 478.292C602.306 480.465 602.306 483.988 600.133 486.162L384.466 701.829C383.442 702.852 382.119 703.394 380.779 703.453V261Z" fill="url(#paint13_radial)"/>
<path d="M384.112 262.978C383.314 262.18 382.316 261.704 381.279 261.55V702.903C382.316 702.749 383.314 702.273 384.112 701.475L599.779 485.808L600.133 486.162L599.779 485.808C601.757 483.83 601.757 480.623 599.779 478.645L384.112 262.978Z" stroke="black"/>
</g>
<g opacity="0.82" filter="url(#filter7_b)">
<path d="M318.763 261C320.103 261.06 321.426 261.601 322.449 262.624L538.116 478.292C540.289 480.465 540.289 483.988 538.116 486.162L322.449 701.829C321.426 702.852 320.103 703.394 318.763 703.453V261Z" fill="url(#paint14_linear)" fill-opacity="0.32"/>
<path d="M322.162 262.911C321.321 262.071 320.263 261.581 319.169 261.442V703.011C320.263 702.872 321.321 702.382 322.162 701.542L537.829 485.875C539.844 483.86 539.844 480.593 537.829 478.579L322.162 262.911Z" stroke="url(#paint15_linear)" stroke-width="0.811816"/>
</g>
<defs>
<filter id="filter0_f" x="135.59" y="0" width="659.827" height="969.655" filterUnits="userSpaceOnUse" color-interpolation-filters="sRGB">
<feFlood flood-opacity="0" result="BackgroundImageFix"/>
<feBlend mode="normal" in="SourceGraphic" in2="BackgroundImageFix" result="shape"/>
<feGaussianBlur stdDeviation="87.5" result="effect1_foregroundBlur"/>
</filter>
<filter id="filter1_d" x="391.763" y="205" width="327" height="550" filterUnits="userSpaceOnUse" color-interpolation-filters="sRGB">
<feFlood flood-opacity="0" result="BackgroundImageFix"/>
<feColorMatrix in="SourceAlpha" type="matrix" values="0 0 0 0 0 0 0 0 0 0 0 0 0 0 0 0 0 0 127 0" result="hardAlpha"/>
<feOffset/>
<feGaussianBlur stdDeviation="26"/>
<feColorMatrix type="matrix" values="0 0 0 0 0 0 0 0 0 0.28 0 0 0 0 1 0 0 0 1 0"/>
<feBlend mode="normal" in2="BackgroundImageFix" result="effect1_dropShadow"/>
<feBlend mode="normal" in="SourceGraphic" in2="effect1_dropShadow" result="shape"/>
</filter>
<filter id="filter2_b" x="624.117" y="620.379" width="102.727" height="103.841" filterUnits="userSpaceOnUse" color-interpolation-filters="sRGB">
<feFlood flood-opacity="0" result="BackgroundImageFix"/>
<feGaussianBlur in="BackgroundImage" stdDeviation="11.3654"/>
<feComposite in2="SourceAlpha" operator="in" result="effect1_backgroundBlur"/>
<feBlend mode="normal" in="SourceGraphic" in2="effect1_backgroundBlur" result="shape"/>
</filter>
<filter id="filter3_b" x="535.201" y="530.296" width="144.794" height="146.74" filterUnits="userSpaceOnUse" color-interpolation-filters="sRGB">
<feFlood flood-opacity="0" result="BackgroundImageFix"/>
<feGaussianBlur in="BackgroundImage" stdDeviation="11.3654"/>
<feComposite in2="SourceAlpha" operator="in" result="effect1_backgroundBlur"/>
<feBlend mode="normal" in="SourceGraphic" in2="effect1_backgroundBlur" result="shape"/>
</filter>
<filter id="filter4_b" x="609.117" y="235.675" width="102.727" height="103.841" filterUnits="userSpaceOnUse" color-interpolation-filters="sRGB">
<feFlood flood-opacity="0" result="BackgroundImageFix"/>
<feGaussianBlur in="BackgroundImage" stdDeviation="11.3654"/>
<feComposite in2="SourceAlpha" operator="in" result="effect1_backgroundBlur"/>
<feBlend mode="normal" in="SourceGraphic" in2="effect1_backgroundBlur" result="shape"/>
</filter>
<filter id="filter5_b" x="520.201" y="282.851" width="144.794" height="146.74" filterUnits="userSpaceOnUse" color-interpolation-filters="sRGB">
<feFlood flood-opacity="0" result="BackgroundImageFix"/>
<feGaussianBlur in="BackgroundImage" stdDeviation="11.3654"/>
<feComposite in2="SourceAlpha" operator="in" result="effect1_backgroundBlur"/>
<feBlend mode="normal" in="SourceGraphic" in2="effect1_backgroundBlur" result="shape"/>
</filter>
<filter id="filter6_b" x="352.779" y="233" width="276.983" height="498.453" filterUnits="userSpaceOnUse" color-interpolation-filters="sRGB">
<feFlood flood-opacity="0" result="BackgroundImageFix"/>
<feGaussianBlur in="BackgroundImage" stdDeviation="14"/>
<feComposite in2="SourceAlpha" operator="in" result="effect1_backgroundBlur"/>
<feBlend mode="normal" in="SourceGraphic" in2="effect1_backgroundBlur" result="shape"/>
</filter>
<filter id="filter7_b" x="308.763" y="251" width="240.983" height="462.453" filterUnits="userSpaceOnUse" color-interpolation-filters="sRGB">
<feFlood flood-opacity="0" result="BackgroundImageFix"/>
<feGaussianBlur in="BackgroundImage" stdDeviation="5"/>
<feComposite in2="SourceAlpha" operator="in" result="effect1_backgroundBlur"/>
<feBlend mode="normal" in="SourceGraphic" in2="effect1_backgroundBlur" result="shape"/>
</filter>
<linearGradient id="paint0_linear" x1="272.652" y1="706.133" x2="272.652" y2="215.047" gradientUnits="userSpaceOnUse">
<stop stop-color="#0C1DB8"/>
<stop offset="1" stop-color="#0047FF"/>
</linearGradient>
<radialGradient id="paint1_radial" cx="0" cy="0" r="1" gradientUnits="userSpaceOnUse" gradientTransform="translate(683.482 480.219) rotate(90) scale(152.265 75.7851)">
<stop stop-color="#304FFE"/>
<stop offset="1" stop-color="#3D5AFE"/>
</radialGradient>
<linearGradient id="paint2_linear" x1="759.257" y1="327.961" x2="533.877" y2="399.128" gradientUnits="userSpaceOnUse">
<stop stop-color="#3D5AFE" stop-opacity="0.05"/>
<stop offset="0.229167" stop-color="#3D5AFE"/>
<stop offset="0.463542" stop-color="#A9B6FF"/>
<stop offset="0.786458" stop-color="#3D5AFE"/>
<stop offset="1" stop-color="#3D5AFE" stop-opacity="0.05"/>
</linearGradient>
<radialGradient id="paint3_radial" cx="0" cy="0" r="1" gradientUnits="userSpaceOnUse" gradientTransform="translate(555.333 479.88) rotate(90) scale(222.891 111.446)">
<stop stop-color="#304FFE"/>
<stop offset="1" stop-color="#3D5AFE"/>
</radialGradient>
<linearGradient id="paint4_linear" x1="666.763" y1="257" x2="335.607" y2="362.048" gradientUnits="userSpaceOnUse">
<stop stop-color="#3D5AFE" stop-opacity="0.05"/>
<stop offset="0.229167" stop-color="#3D5AFE"/>
<stop offset="0.463542" stop-color="#A9B6FF"/>
<stop offset="0.786458" stop-color="#3D5AFE"/>
<stop offset="1" stop-color="#3D5AFE" stop-opacity="0.05"/>
</linearGradient>
<linearGradient id="paint5_linear" x1="697.439" y1="634.429" x2="646.582" y2="709.693" gradientUnits="userSpaceOnUse">
<stop stop-color="#C4C4C4" stop-opacity="0.67"/>
<stop offset="0.170882" stop-color="#000C51" stop-opacity="0.2"/>
<stop offset="0.446706" stop-color="#000C51" stop-opacity="0.19"/>
<stop offset="0.668457" stop-color="#000C51" stop-opacity="0.22"/>
<stop offset="1" stop-color="#C4C4C4" stop-opacity="0.5"/>
</linearGradient>
<linearGradient id="paint6_linear" x1="704.113" y1="642.047" x2="635.412" y2="684.811" gradientUnits="userSpaceOnUse">
<stop stop-color="#3D5AFE" stop-opacity="0.05"/>
<stop offset="0.229167" stop-color="#3D5AFE"/>
<stop offset="0.463542" stop-color="#A9B6FF"/>
<stop offset="0.786458" stop-color="#3D5AFE"/>
<stop offset="1" stop-color="#3D5AFE" stop-opacity="0.05"/>
</linearGradient>
<linearGradient id="paint7_linear" x1="645.775" y1="538.836" x2="558.198" y2="668.414" gradientUnits="userSpaceOnUse">
<stop stop-color="#C4C4C4" stop-opacity="0.67"/>
<stop offset="0.170882" stop-color="#000C51" stop-opacity="0.2"/>
<stop offset="0.446706" stop-color="#000C51" stop-opacity="0.19"/>
<stop offset="0.668457" stop-color="#000C51" stop-opacity="0.22"/>
<stop offset="1" stop-color="#C4C4C4" stop-opacity="0.5"/>
</linearGradient>
<linearGradient id="paint8_linear" x1="657.265" y1="551.953" x2="538.981" y2="625.565" gradientUnits="userSpaceOnUse">
<stop stop-color="#3D5AFE" stop-opacity="0.05"/>
<stop offset="0.229167" stop-color="#3D5AFE"/>
<stop offset="0.463542" stop-color="#A9B6FF"/>
<stop offset="0.786458" stop-color="#3D5AFE"/>
<stop offset="1" stop-color="#3D5AFE" stop-opacity="0.05"/>
</linearGradient>
<linearGradient id="paint9_linear" x1="682.439" y1="325.466" x2="631.582" y2="250.202" gradientUnits="userSpaceOnUse">
<stop stop-color="#C4C4C4" stop-opacity="0.67"/>
<stop offset="0.170882" stop-color="#000C51" stop-opacity="0.2"/>
<stop offset="0.446706" stop-color="#000C51" stop-opacity="0.19"/>
<stop offset="0.668457" stop-color="#000C51" stop-opacity="0.22"/>
<stop offset="1" stop-color="#C4C4C4" stop-opacity="0.5"/>
</linearGradient>
<linearGradient id="paint10_linear" x1="689.113" y1="317.848" x2="620.412" y2="275.084" gradientUnits="userSpaceOnUse">
<stop stop-color="#3D5AFE" stop-opacity="0.05"/>
<stop offset="0.229167" stop-color="#3D5AFE"/>
<stop offset="0.463542" stop-color="#A9B6FF"/>
<stop offset="0.786458" stop-color="#3D5AFE"/>
<stop offset="1" stop-color="#3D5AFE" stop-opacity="0.05"/>
</linearGradient>
<linearGradient id="paint11_linear" x1="630.775" y1="421.051" x2="543.198" y2="291.473" gradientUnits="userSpaceOnUse">
<stop stop-color="#C4C4C4" stop-opacity="0.67"/>
<stop offset="0.170882" stop-color="#000C51" stop-opacity="0.2"/>
<stop offset="0.446706" stop-color="#000C51" stop-opacity="0.19"/>
<stop offset="0.668457" stop-color="#000C51" stop-opacity="0.22"/>
<stop offset="1" stop-color="#C4C4C4" stop-opacity="0.5"/>
</linearGradient>
<linearGradient id="paint12_linear" x1="642.265" y1="407.934" x2="523.981" y2="334.322" gradientUnits="userSpaceOnUse">
<stop stop-color="#3D5AFE" stop-opacity="0.05"/>
<stop offset="0.229167" stop-color="#3D5AFE"/>
<stop offset="0.463542" stop-color="#A9B6FF"/>
<stop offset="0.786458" stop-color="#3D5AFE"/>
<stop offset="1" stop-color="#3D5AFE" stop-opacity="0.05"/>
</linearGradient>
<radialGradient id="paint13_radial" cx="0" cy="0" r="1" gradientUnits="userSpaceOnUse" gradientTransform="translate(491.34 482.108) rotate(90) scale(221.119 110.438)">
<stop stop-color="#304FFE"/>
<stop offset="1" stop-color="#3D5AFE"/>
</radialGradient>
<linearGradient id="paint14_linear" x1="514.456" y1="204.296" x2="122.279" y2="499.743" gradientUnits="userSpaceOnUse">
<stop stop-color="#C4C4C4" stop-opacity="0.67"/>
<stop offset="0.170882" stop-color="#000C51" stop-opacity="0.2"/>
<stop offset="0.446706" stop-color="#000C51" stop-opacity="0.19"/>
<stop offset="0.668457" stop-color="#000C51" stop-opacity="0.22"/>
<stop offset="1" stop-color="#C4C4C4" stop-opacity="0.5"/>
</linearGradient>
<linearGradient id="paint15_linear" x1="539.746" y1="261" x2="211.519" y2="365.004" gradientUnits="userSpaceOnUse">
<stop stop-color="#3D5AFE" stop-opacity="0.05"/>
<stop offset="0.229167" stop-color="#3D5AFE"/>
<stop offset="0.463542" stop-color="#A9B6FF"/>
<stop offset="0.786458" stop-color="#3D5AFE"/>
<stop offset="1" stop-color="#3D5AFE" stop-opacity="0.05"/>
</linearGradient>
</defs>
</svg>
