<svg width="967" height="970" viewBox="0 0 967 970" fill="none" xmlns="http://www.w3.org/2000/svg">
<g style="mix-blend-mode:screen" filter="url(#filter0_f)">
<path d="M656.43 484.828V175.001L346.602 484.828L656.43 794.655V484.828Z" fill="url(#paint0_linear)"/>
<path d="M655.239 484.828L655.239 177.874L348.285 484.828L655.239 791.782L655.239 484.828Z" stroke="#565656" stroke-width="2.3801"/>
</g>
<g style="mix-blend-mode:screen" opacity="0.4">
<path d="M357.165 329.366C357.375 329.155 357.575 329.081 357.748 329.075C357.925 329.068 358.118 329.131 358.307 329.272C358.692 329.561 359.001 330.137 359.001 330.792V629.81C359.001 630.464 358.692 631.04 358.307 631.329C358.118 631.471 357.925 631.533 357.748 631.527C357.575 631.52 357.375 631.446 357.165 631.235L209.169 482.724C207.835 481.386 207.835 479.216 209.169 477.878L357.165 329.366Z" fill="url(#paint1_radial)"/>
<path d="M357.165 329.366C357.375 329.155 357.575 329.081 357.748 329.075C357.925 329.068 358.118 329.131 358.307 329.272C358.692 329.561 359.001 330.137 359.001 330.792V629.81C359.001 630.464 358.692 631.04 358.307 631.329C358.118 631.471 357.925 631.533 357.748 631.527C357.575 631.52 357.375 631.446 357.165 631.235L209.169 482.724C207.835 481.386 207.835 479.216 209.169 477.878L357.165 329.366Z" stroke="url(#paint2_linear)" stroke-width="0.811816"/>
</g>
<g style="mix-blend-mode:screen" filter="url(#filter1_d)">
<path d="M523.257 261.735C523.257 259.151 520.847 257.026 519.019 258.853L302.117 475.515C299.637 477.992 299.637 482.008 302.117 484.485L519.019 701.147C520.847 702.974 523.257 700.849 523.257 698.265V261.735Z" fill="url(#paint3_radial)"/>
<path d="M519.305 259.14C519.7 258.746 520.1 258.588 520.467 258.575C520.839 258.561 521.223 258.696 521.579 258.964C522.3 259.507 522.851 260.559 522.851 261.735V698.265C522.851 699.441 522.3 700.493 521.579 701.036C521.223 701.304 520.839 701.439 520.467 701.425C520.1 701.412 519.7 701.254 519.305 700.86L302.403 484.198C300.082 481.879 300.083 478.121 302.403 475.802L519.305 259.14Z" stroke="url(#paint4_linear)" stroke-width="0.811816"/>
</g>
<g filter="url(#filter2_b)">
<path d="M319.525 698.196C320.462 699.171 320.42 700.792 319.135 701.213C318.556 701.403 317.936 701.5 317.292 701.487L268.361 700.522C265.289 700.462 262.847 697.921 262.907 694.849L263.872 645.918C263.885 645.274 264.006 644.659 264.219 644.088C264.69 642.82 266.311 642.842 267.249 643.817L319.525 698.196Z" fill="url(#paint5_linear)" fill-opacity="0.32"/>
<path d="M319.232 698.477C319.625 698.886 319.802 699.42 319.759 699.875C319.718 700.313 319.48 700.673 319.008 700.827C318.472 701.003 317.898 701.093 317.3 701.081L268.369 700.116C265.521 700.06 263.257 697.705 263.313 694.857L264.278 645.926C264.29 645.329 264.402 644.758 264.599 644.229C264.772 643.764 265.141 643.54 265.58 643.516C266.036 643.492 266.563 643.69 266.956 644.098L319.232 698.477Z" stroke="url(#paint6_linear)" stroke-width="0.811816"/>
</g>
<g filter="url(#filter3_b)">
<path d="M408.441 651.025C409.383 652.004 409.334 653.633 408.039 654.044C407.474 654.224 406.871 654.315 406.245 654.303L315.21 652.508C312.137 652.447 309.695 649.907 309.756 646.834L311.551 555.799C311.563 555.174 311.678 554.574 311.88 554.017C312.342 552.739 313.971 552.755 314.913 553.734L408.441 651.025Z" fill="url(#paint7_linear)" fill-opacity="0.32"/>
<path d="M408.149 651.306C408.543 651.716 408.719 652.253 408.675 652.709C408.632 653.147 408.391 653.507 407.916 653.658C407.393 653.824 406.834 653.908 406.253 653.897L315.218 652.102C312.369 652.046 310.106 649.691 310.162 646.842L311.957 555.807C311.968 555.227 312.075 554.671 312.262 554.155C312.431 553.686 312.8 553.459 313.24 553.434C313.697 553.408 314.226 553.605 314.62 554.015L408.149 651.306Z" stroke="url(#paint8_linear)" stroke-width="0.811816"/>
</g>
<g filter="url(#filter4_b)">
<path d="M334.525 261.699C335.462 260.723 335.42 259.103 334.135 258.682C333.556 258.492 332.936 258.395 332.292 258.408L283.361 259.372C280.289 259.433 277.847 261.973 277.907 265.046L278.872 313.977C278.885 314.62 279.006 315.236 279.219 315.807C279.69 317.075 281.311 317.053 282.249 316.078L334.525 261.699Z" fill="url(#paint9_linear)" fill-opacity="0.32"/>
<path d="M334.232 261.417C334.625 261.009 334.802 260.474 334.759 260.02C334.718 259.582 334.48 259.222 334.008 259.067C333.472 258.892 332.898 258.802 332.3 258.813L283.369 259.778C280.521 259.834 278.257 262.189 278.313 265.038L279.278 313.969C279.29 314.566 279.402 315.137 279.599 315.665C279.772 316.13 280.141 316.355 280.58 316.378C281.036 316.403 281.563 316.205 281.956 315.797L334.232 261.417Z" stroke="url(#paint10_linear)" stroke-width="0.811816"/>
</g>
<g filter="url(#filter5_b)">
<path d="M423.441 308.862C424.383 307.882 424.334 306.253 423.039 305.842C422.474 305.663 421.871 305.572 421.245 305.584L330.21 307.379C327.137 307.439 324.695 309.98 324.756 313.052L326.551 404.087C326.563 404.713 326.678 405.312 326.88 405.87C327.342 407.148 328.971 407.132 329.913 406.153L423.441 308.862Z" fill="url(#paint11_linear)" fill-opacity="0.32"/>
<path d="M423.149 308.581C423.543 308.171 423.719 307.633 423.675 307.178C423.632 306.739 423.391 306.38 422.916 306.229C422.393 306.063 421.834 305.978 421.253 305.99L330.218 307.785C327.369 307.841 325.106 310.196 325.162 313.044L326.957 404.079C326.968 404.66 327.075 405.216 327.262 405.732C327.431 406.201 327.8 406.427 328.24 406.453C328.697 406.479 329.226 406.281 329.62 405.871L423.149 308.581Z" stroke="url(#paint12_linear)" stroke-width="0.811816"/>
</g>
<g style="mix-blend-mode:screen" opacity="0.82" filter="url(#filter6_b)">
<path d="M586.24 261C584.9 261.06 583.577 261.601 582.554 262.624L366.887 478.292C364.714 480.465 364.714 483.988 366.887 486.162L582.554 701.829C583.577 702.852 584.9 703.394 586.24 703.453V261Z" fill="url(#paint13_radial)"/>
<path d="M582.908 262.978C583.706 262.18 584.703 261.704 585.74 261.55V702.903C584.703 702.749 583.706 702.273 582.908 701.475L367.24 485.808L366.887 486.162L367.24 485.808C365.262 483.83 365.262 480.623 367.24 478.645L582.908 262.978Z" stroke="black"/>
</g>
<g opacity="0.82" filter="url(#filter7_b)">
<path d="M648.257 261C646.917 261.06 645.594 261.601 644.571 262.624L428.903 478.292C426.73 480.465 426.73 483.988 428.903 486.162L644.571 701.829C645.594 702.852 646.917 703.394 648.257 703.453V261Z" fill="url(#paint14_linear)" fill-opacity="0.32"/>
<path d="M644.858 262.911C645.698 262.071 646.756 261.581 647.851 261.442V703.011C646.756 702.872 645.698 702.382 644.858 701.542L429.19 485.875C427.176 483.86 427.176 480.593 429.19 478.579L644.858 262.911Z" stroke="url(#paint15_linear)" stroke-width="0.811816"/>
</g>
<path d="M630.881 591.579C629.385 591.579 628.131 591.301 627.119 590.743C626.107 590.171 625.344 589.328 624.831 588.213C624.332 587.084 624.083 585.683 624.083 584.011C624.083 582.339 624.332 580.946 624.831 579.831C625.344 578.717 626.107 577.881 627.119 577.323C628.131 576.766 629.385 576.487 630.881 576.487C631.687 576.487 632.479 576.568 633.257 576.729C634.034 576.891 634.782 577.14 635.501 577.477V579.127C634.811 578.819 634.093 578.555 633.345 578.335C632.597 578.101 631.834 577.983 631.057 577.983C629.825 577.983 628.805 578.203 627.999 578.643C627.207 579.069 626.62 579.729 626.239 580.623C625.857 581.503 625.667 582.633 625.667 584.011C625.667 585.39 625.857 586.527 626.239 587.421C626.62 588.316 627.207 588.983 627.999 589.423C628.805 589.849 629.825 590.061 631.057 590.061C631.643 590.061 632.215 590.017 632.773 589.929C633.33 589.841 633.88 589.709 634.423 589.533V585.353H630.881V583.813H636.007V590.435C635.2 590.817 634.371 591.103 633.521 591.293C632.67 591.484 631.79 591.579 630.881 591.579ZM644.136 591.689C642.42 591.689 641.144 591.183 640.308 590.171C639.487 589.145 639.076 587.722 639.076 585.903C639.076 583.997 639.509 582.567 640.374 581.613C641.254 580.66 642.494 580.183 644.092 580.183C645.28 580.183 646.248 580.425 646.996 580.909C647.744 581.379 648.294 582.046 648.646 582.911C648.998 583.762 649.174 584.759 649.174 585.903C649.174 587.707 648.734 589.123 647.854 590.149C646.989 591.176 645.75 591.689 644.136 591.689ZM644.114 590.237C645.009 590.237 645.706 590.047 646.204 589.665C646.703 589.269 647.055 588.749 647.26 588.103C647.48 587.443 647.59 586.71 647.59 585.903C647.59 585.038 647.48 584.29 647.26 583.659C647.04 583.014 646.674 582.515 646.16 582.163C645.662 581.811 644.98 581.635 644.114 581.635C643.234 581.635 642.545 581.826 642.046 582.207C641.548 582.589 641.188 583.102 640.968 583.747C640.763 584.378 640.66 585.097 640.66 585.903C640.66 587.194 640.917 588.243 641.43 589.049C641.944 589.841 642.838 590.237 644.114 590.237ZM662.866 591.689C662.294 591.689 661.744 591.653 661.216 591.579C660.703 591.521 660.241 591.411 659.83 591.249C659.434 591.073 659.119 590.846 658.884 590.567C658.65 590.289 658.532 589.929 658.532 589.489V575.739H660.116V581.635L659.566 581.085C659.86 580.939 660.212 580.799 660.622 580.667C661.048 580.535 661.48 580.425 661.92 580.337C662.36 580.249 662.742 580.205 663.064 580.205C664.766 580.205 666.027 580.704 666.848 581.701C667.67 582.684 668.08 584.026 668.08 585.727C668.08 586.989 667.912 588.015 667.574 588.807C667.237 589.585 666.804 590.186 666.276 590.611C665.763 591.022 665.206 591.301 664.604 591.447C664.003 591.609 663.424 591.689 662.866 591.689ZM662.712 590.237C663.754 590.237 664.538 590.025 665.066 589.599C665.594 589.174 665.946 588.624 666.122 587.949C666.313 587.26 666.408 586.519 666.408 585.727C666.408 584.921 666.291 584.217 666.056 583.615C665.836 582.999 665.484 582.523 665 582.185C664.516 581.833 663.871 581.657 663.064 581.657C662.61 581.657 662.118 581.723 661.59 581.855C661.062 581.973 660.571 582.163 660.116 582.427V589.115C660.116 589.438 660.256 589.68 660.534 589.841C660.828 590.003 661.172 590.113 661.568 590.171C661.979 590.215 662.36 590.237 662.712 590.237ZM674.842 591.689C674.358 591.689 673.867 591.638 673.368 591.535C672.884 591.433 672.429 591.257 672.004 591.007C671.593 590.758 671.256 590.421 670.992 589.995C670.743 589.555 670.618 589.005 670.618 588.345C670.618 587.436 670.787 586.71 671.124 586.167C671.476 585.61 671.953 585.214 672.554 584.979C673.17 584.73 673.874 584.605 674.666 584.605C675.267 584.605 675.788 584.642 676.228 584.715C676.668 584.789 677.057 584.899 677.394 585.045C677.746 585.177 678.061 585.331 678.34 585.507L678.648 586.959C678.311 586.71 677.819 586.497 677.174 586.321C676.543 586.131 675.847 586.035 675.084 586.035C674.16 586.035 673.449 586.211 672.95 586.563C672.451 586.915 672.202 587.429 672.202 588.103C672.202 588.646 672.349 589.079 672.642 589.401C672.95 589.724 673.331 589.951 673.786 590.083C674.255 590.215 674.732 590.281 675.216 590.281C676.169 590.281 676.888 590.215 677.372 590.083C677.871 589.937 678.12 589.614 678.12 589.115V584.077C678.12 583.227 677.871 582.603 677.372 582.207C676.873 581.811 676.162 581.613 675.238 581.613C674.651 581.613 674.028 581.701 673.368 581.877C672.723 582.039 672.165 582.303 671.696 582.669V581.085C672.151 580.792 672.759 580.572 673.522 580.425C674.285 580.264 675.025 580.183 675.744 580.183C676.228 580.183 676.675 580.235 677.086 580.337C677.497 580.425 677.863 580.565 678.186 580.755C678.509 580.931 678.78 581.166 679 581.459C679.235 581.738 679.411 582.068 679.528 582.449C679.66 582.816 679.726 583.234 679.726 583.703V589.027C679.726 589.805 679.491 590.384 679.022 590.765C678.567 591.147 677.966 591.396 677.218 591.513C676.485 591.631 675.693 591.689 674.842 591.689ZM687.837 591.535C687.251 591.535 686.649 591.462 686.033 591.315C685.432 591.154 684.875 590.875 684.361 590.479C683.863 590.069 683.459 589.489 683.151 588.741C682.843 587.993 682.689 587.033 682.689 585.859C682.689 584.686 682.843 583.733 683.151 582.999C683.459 582.251 683.863 581.672 684.361 581.261C684.875 580.851 685.432 580.572 686.033 580.425C686.649 580.264 687.251 580.183 687.837 580.183C688.395 580.183 688.945 580.235 689.487 580.337C690.045 580.44 690.58 580.594 691.093 580.799V582.317C690.609 582.112 690.111 581.958 689.597 581.855C689.084 581.753 688.556 581.701 688.013 581.701C686.708 581.701 685.755 582.031 685.153 582.691C684.567 583.351 684.273 584.407 684.273 585.859C684.273 587.326 684.567 588.389 685.153 589.049C685.755 589.695 686.708 590.017 688.013 590.017C688.556 590.017 689.084 589.966 689.597 589.863C690.111 589.761 690.609 589.607 691.093 589.401V590.941C690.58 591.132 690.045 591.279 689.487 591.381C688.945 591.484 688.395 591.535 687.837 591.535ZM695.3 584.781L700.118 580.381H702.098L695.652 586.079L695.3 584.781ZM695.652 591.359H694.068V576.201H695.652V591.359ZM696.092 584.517L702.89 591.359H700.778L695.014 585.529L696.092 584.517ZM711.795 591.359V576.685H713.379V583.285H721.189V576.685H722.773V591.359H721.189V584.781H713.379V591.359H711.795ZM730.912 591.689C729.196 591.689 727.92 591.183 727.084 590.171C726.262 589.145 725.852 587.722 725.852 585.903C725.852 583.997 726.284 582.567 727.15 581.613C728.03 580.66 729.269 580.183 730.868 580.183C732.056 580.183 733.024 580.425 733.772 580.909C734.52 581.379 735.07 582.046 735.422 582.911C735.774 583.762 735.95 584.759 735.95 585.903C735.95 587.707 735.51 589.123 734.63 590.149C733.764 591.176 732.525 591.689 730.912 591.689ZM730.89 590.237C731.784 590.237 732.481 590.047 732.98 589.665C733.478 589.269 733.83 588.749 734.036 588.103C734.256 587.443 734.366 586.71 734.366 585.903C734.366 585.038 734.256 584.29 734.036 583.659C733.816 583.014 733.449 582.515 732.936 582.163C732.437 581.811 731.755 581.635 730.89 581.635C730.01 581.635 729.32 581.826 728.822 582.207C728.323 582.589 727.964 583.102 727.744 583.747C727.538 584.378 727.436 585.097 727.436 585.903C727.436 587.194 727.692 588.243 728.206 589.049C728.719 589.841 729.614 590.237 730.89 590.237ZM747.925 584.209V591.359H746.341V584.209C746.341 583.945 746.304 583.667 746.231 583.373C746.172 583.08 746.048 582.801 745.857 582.537C745.666 582.259 745.373 582.039 744.977 581.877C744.581 581.701 744.053 581.613 743.393 581.613C742.938 581.613 742.469 581.65 741.985 581.723C741.501 581.797 741.01 581.907 740.511 582.053V591.359H738.927V581.261C739.279 581.085 739.638 580.931 740.005 580.799C740.386 580.653 740.768 580.535 741.149 580.447C741.545 580.359 741.941 580.293 742.337 580.249C742.748 580.205 743.158 580.183 743.569 580.183C744.64 580.183 745.49 580.345 746.121 580.667C746.752 580.975 747.206 581.43 747.485 582.031C747.778 582.633 747.925 583.359 747.925 584.209ZM745.835 581.701C746.319 581.335 746.81 581.041 747.309 580.821C747.808 580.601 748.321 580.44 748.849 580.337C749.392 580.235 749.934 580.183 750.477 580.183C751.548 580.183 752.398 580.345 753.029 580.667C753.66 580.975 754.114 581.43 754.393 582.031C754.686 582.633 754.833 583.359 754.833 584.209V591.359H753.249V584.209C753.249 583.945 753.212 583.667 753.139 583.373C753.08 583.08 752.956 582.801 752.765 582.537C752.574 582.259 752.281 582.039 751.885 581.877C751.489 581.701 750.961 581.613 750.301 581.613C749.846 581.613 749.377 581.679 748.893 581.811C748.409 581.943 747.918 582.171 747.419 582.493L745.835 581.701ZM762.881 591.689C761.84 591.689 760.938 591.477 760.175 591.051C759.412 590.611 758.826 589.959 758.415 589.093C758.004 588.228 757.799 587.15 757.799 585.859C757.799 583.967 758.224 582.552 759.075 581.613C759.94 580.66 761.121 580.183 762.617 580.183C763.79 580.183 764.729 580.447 765.433 580.975C766.152 581.503 766.665 582.215 766.973 583.109C767.281 584.004 767.428 585.016 767.413 586.145H758.591L758.701 584.693H766.379L765.763 584.913C765.719 583.813 765.44 582.992 764.927 582.449C764.428 581.907 763.658 581.635 762.617 581.635C761.898 581.635 761.297 581.767 760.813 582.031C760.344 582.295 759.992 582.757 759.757 583.417C759.522 584.063 759.405 584.972 759.405 586.145C759.405 587.48 759.713 588.499 760.329 589.203C760.96 589.893 761.84 590.237 762.969 590.237C763.512 590.237 764.01 590.201 764.465 590.127C764.92 590.039 765.338 589.922 765.719 589.775C766.1 589.629 766.438 589.467 766.731 589.291V590.919C766.203 591.169 765.616 591.359 764.971 591.491C764.34 591.623 763.644 591.689 762.881 591.689Z" fill="url(#paint16_linear)"/>
<defs>
<filter id="filter0_f" x="171.602" y="0" width="659.827" height="969.655" filterUnits="userSpaceOnUse" color-interpolation-filters="sRGB">
<feFlood flood-opacity="0" result="BackgroundImageFix"/>
<feBlend mode="normal" in="SourceGraphic" in2="BackgroundImageFix" result="shape"/>
<feGaussianBlur stdDeviation="87.5" result="effect1_foregroundBlur"/>
</filter>
<filter id="filter1_d" x="248.257" y="206.168" width="327" height="547.664" filterUnits="userSpaceOnUse" color-interpolation-filters="sRGB">
<feFlood flood-opacity="0" result="BackgroundImageFix"/>
<feColorMatrix in="SourceAlpha" type="matrix" values="0 0 0 0 0 0 0 0 0 0 0 0 0 0 0 0 0 0 127 0" result="hardAlpha"/>
<feOffset/>
<feGaussianBlur stdDeviation="26"/>
<feColorMatrix type="matrix" values="0 0 0 0 0 0 0 0 0 0.28 0 0 0 0 1 0 0 0 1 0"/>
<feBlend mode="normal" in2="BackgroundImageFix" result="effect1_dropShadow"/>
<feBlend mode="normal" in="SourceGraphic" in2="effect1_dropShadow" result="shape"/>
</filter>
<filter id="filter2_b" x="240.175" y="620.379" width="102.727" height="103.841" filterUnits="userSpaceOnUse" color-interpolation-filters="sRGB">
<feFlood flood-opacity="0" result="BackgroundImageFix"/>
<feGaussianBlur in="BackgroundImage" stdDeviation="11.3654"/>
<feComposite in2="SourceAlpha" operator="in" result="effect1_backgroundBlur"/>
<feBlend mode="normal" in="SourceGraphic" in2="effect1_backgroundBlur" result="shape"/>
</filter>
<filter id="filter3_b" x="287.024" y="530.296" width="144.794" height="146.74" filterUnits="userSpaceOnUse" color-interpolation-filters="sRGB">
<feFlood flood-opacity="0" result="BackgroundImageFix"/>
<feGaussianBlur in="BackgroundImage" stdDeviation="11.3654"/>
<feComposite in2="SourceAlpha" operator="in" result="effect1_backgroundBlur"/>
<feBlend mode="normal" in="SourceGraphic" in2="effect1_backgroundBlur" result="shape"/>
</filter>
<filter id="filter4_b" x="255.175" y="235.675" width="102.727" height="103.841" filterUnits="userSpaceOnUse" color-interpolation-filters="sRGB">
<feFlood flood-opacity="0" result="BackgroundImageFix"/>
<feGaussianBlur in="BackgroundImage" stdDeviation="11.3654"/>
<feComposite in2="SourceAlpha" operator="in" result="effect1_backgroundBlur"/>
<feBlend mode="normal" in="SourceGraphic" in2="effect1_backgroundBlur" result="shape"/>
</filter>
<filter id="filter5_b" x="302.024" y="282.851" width="144.794" height="146.74" filterUnits="userSpaceOnUse" color-interpolation-filters="sRGB">
<feFlood flood-opacity="0" result="BackgroundImageFix"/>
<feGaussianBlur in="BackgroundImage" stdDeviation="11.3654"/>
<feComposite in2="SourceAlpha" operator="in" result="effect1_backgroundBlur"/>
<feBlend mode="normal" in="SourceGraphic" in2="effect1_backgroundBlur" result="shape"/>
</filter>
<filter id="filter6_b" x="337.257" y="233" width="276.983" height="498.453" filterUnits="userSpaceOnUse" color-interpolation-filters="sRGB">
<feFlood flood-opacity="0" result="BackgroundImageFix"/>
<feGaussianBlur in="BackgroundImage" stdDeviation="14"/>
<feComposite in2="SourceAlpha" operator="in" result="effect1_backgroundBlur"/>
<feBlend mode="normal" in="SourceGraphic" in2="effect1_backgroundBlur" result="shape"/>
</filter>
<filter id="filter7_b" x="417.273" y="251" width="240.983" height="462.453" filterUnits="userSpaceOnUse" color-interpolation-filters="sRGB">
<feFlood flood-opacity="0" result="BackgroundImageFix"/>
<feGaussianBlur in="BackgroundImage" stdDeviation="5"/>
<feComposite in2="SourceAlpha" operator="in" result="effect1_backgroundBlur"/>
<feBlend mode="normal" in="SourceGraphic" in2="effect1_backgroundBlur" result="shape"/>
</filter>
<linearGradient id="paint0_linear" x1="694.368" y1="706.133" x2="694.368" y2="215.047" gradientUnits="userSpaceOnUse">
<stop stop-color="#0C1DB8"/>
<stop offset="1" stop-color="#0047FF"/>
</linearGradient>
<radialGradient id="paint1_radial" cx="0" cy="0" r="1" gradientUnits="userSpaceOnUse" gradientTransform="translate(283.537 480.219) rotate(90) scale(152.265 75.7851)">
<stop stop-color="#304FFE"/>
<stop offset="1" stop-color="#3D5AFE"/>
</radialGradient>
<linearGradient id="paint2_linear" x1="207.763" y1="327.961" x2="433.142" y2="399.128" gradientUnits="userSpaceOnUse">
<stop stop-color="#3D5AFE" stop-opacity="0.05"/>
<stop offset="0.229167" stop-color="#3D5AFE"/>
<stop offset="0.463542" stop-color="#A9B6FF"/>
<stop offset="0.786458" stop-color="#3D5AFE"/>
<stop offset="1" stop-color="#3D5AFE" stop-opacity="0.05"/>
</linearGradient>
<radialGradient id="paint3_radial" cx="0" cy="0" r="1" gradientUnits="userSpaceOnUse" gradientTransform="translate(411.687 479.88) rotate(90) scale(222.891 111.446)">
<stop stop-color="#304FFE"/>
<stop offset="1" stop-color="#3D5AFE"/>
</radialGradient>
<linearGradient id="paint4_linear" x1="300.257" y1="257" x2="631.412" y2="362.048" gradientUnits="userSpaceOnUse">
<stop stop-color="#3D5AFE" stop-opacity="0.05"/>
<stop offset="0.229167" stop-color="#3D5AFE"/>
<stop offset="0.463542" stop-color="#A9B6FF"/>
<stop offset="0.786458" stop-color="#3D5AFE"/>
<stop offset="1" stop-color="#3D5AFE" stop-opacity="0.05"/>
</linearGradient>
<linearGradient id="paint5_linear" x1="269.58" y1="634.429" x2="320.437" y2="709.693" gradientUnits="userSpaceOnUse">
<stop stop-color="#C4C4C4" stop-opacity="0.67"/>
<stop offset="0.170882" stop-color="#000C51" stop-opacity="0.2"/>
<stop offset="0.446706" stop-color="#000C51" stop-opacity="0.19"/>
<stop offset="0.668457" stop-color="#000C51" stop-opacity="0.22"/>
<stop offset="1" stop-color="#C4C4C4" stop-opacity="0.5"/>
</linearGradient>
<linearGradient id="paint6_linear" x1="262.906" y1="642.047" x2="331.607" y2="684.811" gradientUnits="userSpaceOnUse">
<stop stop-color="#3D5AFE" stop-opacity="0.05"/>
<stop offset="0.229167" stop-color="#3D5AFE"/>
<stop offset="0.463542" stop-color="#A9B6FF"/>
<stop offset="0.786458" stop-color="#3D5AFE"/>
<stop offset="1" stop-color="#3D5AFE" stop-opacity="0.05"/>
</linearGradient>
<linearGradient id="paint7_linear" x1="321.245" y1="538.836" x2="408.821" y2="668.414" gradientUnits="userSpaceOnUse">
<stop stop-color="#C4C4C4" stop-opacity="0.67"/>
<stop offset="0.170882" stop-color="#000C51" stop-opacity="0.2"/>
<stop offset="0.446706" stop-color="#000C51" stop-opacity="0.19"/>
<stop offset="0.668457" stop-color="#000C51" stop-opacity="0.22"/>
<stop offset="1" stop-color="#C4C4C4" stop-opacity="0.5"/>
</linearGradient>
<linearGradient id="paint8_linear" x1="309.755" y1="551.953" x2="428.039" y2="625.565" gradientUnits="userSpaceOnUse">
<stop stop-color="#3D5AFE" stop-opacity="0.05"/>
<stop offset="0.229167" stop-color="#3D5AFE"/>
<stop offset="0.463542" stop-color="#A9B6FF"/>
<stop offset="0.786458" stop-color="#3D5AFE"/>
<stop offset="1" stop-color="#3D5AFE" stop-opacity="0.05"/>
</linearGradient>
<linearGradient id="paint9_linear" x1="284.58" y1="325.466" x2="335.437" y2="250.202" gradientUnits="userSpaceOnUse">
<stop stop-color="#C4C4C4" stop-opacity="0.67"/>
<stop offset="0.170882" stop-color="#000C51" stop-opacity="0.2"/>
<stop offset="0.446706" stop-color="#000C51" stop-opacity="0.19"/>
<stop offset="0.668457" stop-color="#000C51" stop-opacity="0.22"/>
<stop offset="1" stop-color="#C4C4C4" stop-opacity="0.5"/>
</linearGradient>
<linearGradient id="paint10_linear" x1="277.906" y1="317.848" x2="346.607" y2="275.084" gradientUnits="userSpaceOnUse">
<stop stop-color="#3D5AFE" stop-opacity="0.05"/>
<stop offset="0.229167" stop-color="#3D5AFE"/>
<stop offset="0.463542" stop-color="#A9B6FF"/>
<stop offset="0.786458" stop-color="#3D5AFE"/>
<stop offset="1" stop-color="#3D5AFE" stop-opacity="0.05"/>
</linearGradient>
<linearGradient id="paint11_linear" x1="336.245" y1="421.051" x2="423.821" y2="291.473" gradientUnits="userSpaceOnUse">
<stop stop-color="#C4C4C4" stop-opacity="0.67"/>
<stop offset="0.170882" stop-color="#000C51" stop-opacity="0.2"/>
<stop offset="0.446706" stop-color="#000C51" stop-opacity="0.19"/>
<stop offset="0.668457" stop-color="#000C51" stop-opacity="0.22"/>
<stop offset="1" stop-color="#C4C4C4" stop-opacity="0.5"/>
</linearGradient>
<linearGradient id="paint12_linear" x1="324.755" y1="407.934" x2="443.039" y2="334.322" gradientUnits="userSpaceOnUse">
<stop stop-color="#3D5AFE" stop-opacity="0.05"/>
<stop offset="0.229167" stop-color="#3D5AFE"/>
<stop offset="0.463542" stop-color="#A9B6FF"/>
<stop offset="0.786458" stop-color="#3D5AFE"/>
<stop offset="1" stop-color="#3D5AFE" stop-opacity="0.05"/>
</linearGradient>
<radialGradient id="paint13_radial" cx="0" cy="0" r="1" gradientUnits="userSpaceOnUse" gradientTransform="translate(475.679 482.108) rotate(90) scale(221.119 110.438)">
<stop stop-color="#304FFE"/>
<stop offset="1" stop-color="#3D5AFE"/>
</radialGradient>
<linearGradient id="paint14_linear" x1="452.563" y1="204.296" x2="844.741" y2="499.743" gradientUnits="userSpaceOnUse">
<stop stop-color="#C4C4C4" stop-opacity="0.67"/>
<stop offset="0.170882" stop-color="#000C51" stop-opacity="0.2"/>
<stop offset="0.446706" stop-color="#000C51" stop-opacity="0.19"/>
<stop offset="0.668457" stop-color="#000C51" stop-opacity="0.22"/>
<stop offset="1" stop-color="#C4C4C4" stop-opacity="0.5"/>
</linearGradient>
<linearGradient id="paint15_linear" x1="427.273" y1="261" x2="755.5" y2="365.004" gradientUnits="userSpaceOnUse">
<stop stop-color="#3D5AFE" stop-opacity="0.05"/>
<stop offset="0.229167" stop-color="#3D5AFE"/>
<stop offset="0.463542" stop-color="#A9B6FF"/>
<stop offset="0.786458" stop-color="#3D5AFE"/>
<stop offset="1" stop-color="#3D5AFE" stop-opacity="0.05"/>
</linearGradient>
<linearGradient id="paint16_linear" x1="695.763" y1="564.359" x2="695.763" y2="601.359" gradientUnits="userSpaceOnUse">
<stop offset="0.475928" stop-color="#E5E5E5"/>
<stop offset="1" stop-color="#E5E5E5" stop-opacity="0.74"/>
</linearGradient>
</defs>
</svg>
