<svg fill="none" height="473" viewBox="0 0 485 473" width="485" xmlns="http://www.w3.org/2000/svg" xmlns:xlink="http://www.w3.org/1999/xlink"><filter id="a" color-interpolation-filters="sRGB" filterUnits="userSpaceOnUse" height="97" width="97" x="193.389" y="110.172"><feFlood flood-opacity="0" result="BackgroundImageFix"/><feBlend in="SourceGraphic" in2="BackgroundImageFix" mode="normal" result="shape"/><feGaussianBlur result="effect1_foregroundBlur" stdDeviation="15"/></filter><filter id="b" color-interpolation-filters="sRGB" filterUnits="userSpaceOnUse" height="318" width="211" x="218.92" y=".171875"><feFlood flood-opacity="0" result="BackgroundImageFix"/><feColorMatrix in="SourceAlpha" result="hardAlpha" type="matrix" values="0 0 0 0 0 0 0 0 0 0 0 0 0 0 0 0 0 0 127 0"/><feOffset/><feGaussianBlur stdDeviation="26"/><feColorMatrix type="matrix" values="0 0 0 0 0 0 0 0 0 0.28 0 0 0 0 1 0 0 0 1 0"/><feBlend in2="BackgroundImageFix" mode="normal" result="effect1_dropShadow"/><feBlend in="SourceGraphic" in2="effect1_dropShadow" mode="normal" result="shape"/></filter><filter id="c" color-interpolation-filters="sRGB" filterUnits="userSpaceOnUse" height="294.222" width="199.111" x="285.5" y="12.0586"><feFlood flood-opacity="0" result="BackgroundImageFix"/><feColorMatrix in="SourceAlpha" result="hardAlpha" type="matrix" values="0 0 0 0 0 0 0 0 0 0 0 0 0 0 0 0 0 0 127 0"/><feOffset/><feGaussianBlur stdDeviation="26"/><feColorMatrix type="matrix" values="0 0 0 0 0 0 0 0 0 0.28 0 0 0 0 1 0 0 0 1 0"/><feBlend in2="BackgroundImageFix" mode="normal" result="effect1_dropShadow"/><feBlend in="SourceGraphic" in2="effect1_dropShadow" mode="normal" result="shape"/></filter><filter id="d" color-interpolation-filters="sRGB" filterUnits="userSpaceOnUse" height="318" width="211" x="55.0801" y=".171875"><feFlood flood-opacity="0" result="BackgroundImageFix"/><feColorMatrix in="SourceAlpha" result="hardAlpha" type="matrix" values="0 0 0 0 0 0 0 0 0 0 0 0 0 0 0 0 0 0 127 0"/><feOffset/><feGaussianBlur stdDeviation="26"/><feColorMatrix type="matrix" values="0 0 0 0 0 0 0 0 0 0.28 0 0 0 0 1 0 0 0 1 0"/><feBlend in2="BackgroundImageFix" mode="normal" result="effect1_dropShadow"/><feBlend in="SourceGraphic" in2="effect1_dropShadow" mode="normal" result="shape"/></filter><filter id="e" color-interpolation-filters="sRGB" filterUnits="userSpaceOnUse" height="294.222" width="199.111" x=".388672" y="12.0586"><feFlood flood-opacity="0" result="BackgroundImageFix"/><feColorMatrix in="SourceAlpha" result="hardAlpha" type="matrix" values="0 0 0 0 0 0 0 0 0 0 0 0 0 0 0 0 0 0 127 0"/><feOffset/><feGaussianBlur stdDeviation="26"/><feColorMatrix type="matrix" values="0 0 0 0 0 0 0 0 0 0.28 0 0 0 0 1 0 0 0 1 0"/><feBlend in2="BackgroundImageFix" mode="normal" result="effect1_dropShadow"/><feBlend in="SourceGraphic" in2="effect1_dropShadow" mode="normal" result="shape"/></filter><linearGradient id="f"><stop offset="0" stop-color="#304ffe"/><stop offset="1" stop-color="#3d5afe"/></linearGradient><radialGradient id="g" cx="0" cy="0" gradientTransform="matrix(0 106.948 -53.4739 0 324.453 159.114)" gradientUnits="userSpaceOnUse" r="1" xlink:href="#f"/><linearGradient id="h"><stop offset="0" stop-color="#0c1db8"/><stop offset="1" stop-color="#0047ff"/></linearGradient><linearGradient id="i" gradientUnits="userSpaceOnUse" x1="281.21" x2="431.964" xlink:href="#h" y1="238.753" y2="87.9986"/><linearGradient id="j"><stop offset="0" stop-color="#3d5afe" stop-opacity=".05"/><stop offset=".229167" stop-color="#3d5afe"/><stop offset=".463542" stop-color="#a9b6ff"/><stop offset=".786458" stop-color="#3d5afe"/><stop offset="1" stop-color="#3d5afe" stop-opacity=".05"/></linearGradient><linearGradient id="k" gradientUnits="userSpaceOnUse" x1="432.611" x2="291.971" xlink:href="#j" y1="254.281" y2="32.6024"/><radialGradient id="l" cx="0" cy="0" gradientTransform="matrix(0 106.948 -53.4739 0 160.547 159.114)" gradientUnits="userSpaceOnUse" r="1" xlink:href="#f"/><linearGradient id="m" gradientUnits="userSpaceOnUse" x1="203.79" x2="53.0357" xlink:href="#h" y1="238.753" y2="87.9986"/><linearGradient id="n" gradientUnits="userSpaceOnUse" x1="52.3887" x2="193.029" xlink:href="#j" y1="254.281" y2="32.6024"/><radialGradient id="o" cx="0" cy="0" gradientTransform="matrix(0 .499765 -209.898 0 451.257 472.672)" gradientUnits="userSpaceOnUse" r="1" xlink:href="#f"/><mask id="p" fill="#fff"><path d="m337.5 64.059c25.225 0 49.417 10.0206 67.254 27.8574 17.837 17.8366 27.857 42.0286 27.857 67.2536s-10.02 49.417-27.857 67.254-42.029 27.857-67.254 27.857v-95.111z" fill="#fff"/></mask><mask id="q" fill="#fff"><path d="m147.5 64.059c-25.225 0-49.4171 10.0206-67.2539 27.8574-17.8368 17.8366-27.8574 42.0286-27.8574 67.2536s10.0206 49.417 27.8574 67.254 42.0289 27.857 67.2539 27.857v-95.111z" fill="#fff"/></mask><path d="m241.889 145.445h18.7046v18.7046h-18.7046z" fill="#fff" transform="matrix(.70710678 .70710678 -.70710678 .70710678 173.692794 -128.441498)"/><g filter="url(#a)"><path d="m241.889 140.172h26.163v26.163h-26.163z" fill="#fff" transform="matrix(.70710678 .70710678 -.70710678 .70710678 169.96422 -129.985924)"/></g><g filter="url(#b)"><path d="m346.58 83.5114c-20.066-20.0663-47.282-31.3395-75.66-31.3395v59.0641l47.656 47.657-47.656 47.656v59.623c28.378 0 55.594-11.273 75.66-31.34 20.067-20.066 31.34-47.282 31.34-75.66s-11.273-55.594-31.34-75.6606z" fill="url(#g)"/></g><g filter="url(#c)"><path d="m337.5 64.059c25.225 0 49.417 10.0206 67.254 27.8574 17.837 17.8366 27.857 42.0286 27.857 67.2536s-10.02 49.417-27.857 67.254-42.029 27.857-67.254 27.857v-95.111z" fill="url(#i)"/><path d="m337.5 64.059c25.225 0 49.417 10.0206 67.254 27.8574 17.837 17.8366 27.857 42.0286 27.857 67.2536s-10.02 49.417-27.857 67.254-42.029 27.857-67.254 27.857v-95.111z" mask="url(#p)" stroke="url(#k)" stroke-width="4"/></g><g filter="url(#d)"><path d="m138.42 83.5114c20.066-20.0663 47.282-31.3395 75.66-31.3395v59.0641l-47.656 47.657 47.656 47.656v59.623c-28.378 0-55.594-11.273-75.66-31.34-20.067-20.066-31.34-47.282-31.34-75.66s11.273-55.594 31.34-75.6606z" fill="url(#l)"/></g><g filter="url(#e)"><path d="m147.5 64.059c-25.225 0-49.4171 10.0206-67.2539 27.8574-17.8368 17.8366-27.8574 42.0286-27.8574 67.2536s10.0206 49.417 27.8574 67.254 42.0289 27.857 67.2539 27.857v-95.111z" fill="url(#m)"/><path d="m147.5 64.059c-25.225 0-49.4171 10.0206-67.2539 27.8574-17.8368 17.8366-27.8574 42.0286-27.8574 67.2536s10.0206 49.417 27.8574 67.254 42.0289 27.857 67.2539 27.857v-95.111z" mask="url(#q)" stroke="url(#n)" stroke-width="4"/></g><path d="m241.389 472.172h420v1.00002h-420z" fill="url(#o)" transform="matrix(0 -1 1 0 -230.783 713.561)"/></svg>