<svg width="26" height="28" viewBox="0 0 26 28" fill="none" xmlns="http://www.w3.org/2000/svg">
<path d="M11.4439 14.9353L21.43 17.5924L24.0967 7.70956L14.1105 5.05247L11.4439 14.9353ZM22.058 18.6683L10.3584 15.5551L13.4825 3.97656L25.1821 7.08967L22.058 18.6683Z" fill="#F8F9FF"/>
<path d="M5.67717 19.5175L12.9823 26.7574L20.2874 19.5175L12.9823 12.2775L5.67717 19.5175ZM12.9823 27.9996L4.42383 19.5175L12.9823 11.0352L21.5408 19.5175L12.9823 27.9996Z" fill="#F8F9FF"/>
<path d="M4.47328 17.5772L14.4647 14.9396L11.7784 5.06194L1.78695 7.69964L4.47328 17.5772ZM15.5524 15.5607L3.8466 18.6509L0.699219 7.07846L12.4051 3.98828L15.5524 15.5607Z" fill="#F8F9FF"/>
<path d="M13.1185 15.6912L20.438 8.46547L13.1185 1.23975L5.799 8.46547L13.1185 15.6912ZM21.6939 8.46547L13.1185 16.9309L4.54297 8.46547L13.1185 0L21.6939 8.46547Z" fill="#F8F9FF"/>
<path d="M14.2213 22.921L24.2128 20.2834L21.5264 10.4057L11.535 13.0434L14.2213 22.921ZM25.3004 20.9045L13.5946 23.9947L10.4473 12.4222L22.1531 9.33203L25.3004 20.9045Z" fill="#F8F9FF"/>
<path d="M11.9825 22.9874L14.6688 13.1098L4.67734 10.4721L1.99105 20.3497L11.9825 22.9874ZM15.7564 12.4886L12.6092 24.061L0.90332 20.9709L4.05067 9.39844L15.7564 12.4886Z" fill="#F8F9FF"/>
</svg>
