<svg width="28" height="27" viewBox="0 0 28 27" fill="none" xmlns="http://www.w3.org/2000/svg">
<g clip-path="url(#clip0)">
<path d="M27.999 0.300781V22.0402H25.6686V25.7577L21.6016 22.0038H-0.000976562V0.300781H27.999ZM2.38881 10.6021C3.43707 10.6021 4.4211 10.6106 5.40512 10.6021C6.84725 10.5875 7.967 9.61956 8.04215 7.97393C8.08695 6.99386 8.0797 6.00768 8.04215 5.02516C7.97909 3.37587 6.89937 2.35328 5.25485 2.35328C4.45179 2.35328 3.64833 2.35328 2.84447 2.35328C2.69056 2.35328 2.53787 2.37392 2.38275 2.38606L2.38881 10.6021ZM12.3358 2.37027L9.31456 10.5936H10.2841L10.9385 8.78402H14.5074L15.1824 10.6057H16.1361L13.1186 2.37149L12.3358 2.37027ZM19.5221 13.9493L16.9626 16.8786V11.4328H16.1604V19.6075H16.9735V18.0154L18.0945 16.7705C18.721 17.7773 19.3064 18.7076 19.8626 19.6063H20.9302L18.6859 16.1256L20.5958 13.9553L19.5221 13.9493ZM10.7688 19.6161C10.7688 18.2473 10.7688 16.9442 10.7688 15.641C10.7594 15.5209 10.7415 15.4016 10.7155 15.284C10.6791 15.0045 10.5642 14.7411 10.3842 14.5246C10.2042 14.308 9.96645 14.1473 9.69873 14.061C8.95979 13.7835 8.1497 13.7605 7.39624 13.9954C6.99209 14.1094 6.64794 14.3764 6.43641 14.7399L7.02537 15.2779C7.40471 14.7205 7.94759 14.5954 8.562 14.6197C9.55453 14.6585 9.87201 14.984 9.8696 15.9871V16.3661C9.33518 16.3661 8.85651 16.3515 8.37904 16.3661C8.03929 16.3716 7.701 16.4123 7.36958 16.4875C6.59035 16.6879 6.20617 17.2491 6.22071 18.0931C6.23404 18.885 6.64731 19.4351 7.39987 19.6258C8.24814 19.8408 9.06612 19.7873 9.82359 19.2542L9.92051 19.6185L10.7688 19.6161ZM3.08442 14.5893V15.2512C3.08442 16.2568 3.09654 17.2624 3.08442 18.268C3.07351 18.9627 3.67581 19.6841 4.45503 19.6379C4.67074 19.6258 4.88766 19.6379 5.11913 19.6379V18.9189C5.06868 18.9088 5.01771 18.9014 4.96643 18.8971C4.08541 18.8776 3.93878 18.7295 3.93393 17.8247C3.92787 16.8798 3.93393 15.9338 3.93393 14.9889C3.93393 14.8565 3.95696 14.7241 3.97392 14.5468H5.16154L5.1264 13.8922H3.92787V12.1737H3.07109V13.9104L2.39244 13.9505V14.5468L3.08442 14.5893ZM12.6351 11.4231V17.8599C12.6286 18.0406 12.633 18.2215 12.6484 18.4016C12.7308 19.0635 13.1331 19.5396 13.7136 19.6161C14.0343 19.638 14.3561 19.6404 14.6771 19.6233V18.9032C14.5207 18.9032 14.3862 18.9032 14.2517 18.9032C13.7294 18.8813 13.5343 18.6955 13.4943 18.1745C13.4834 18.0348 13.4943 17.8939 13.4943 17.7531V11.4255L12.6351 11.4231Z" fill="#CCCCCC"/>
<path d="M2.38867 10.6031V2.38826C2.54379 2.37612 2.69649 2.35547 2.85039 2.35547C3.65345 2.35547 4.45691 2.35547 5.26078 2.35547C6.90044 2.35547 7.98022 3.37564 8.04806 5.02736C8.08439 6.00988 8.09171 6.99603 8.04806 7.97616C7.9729 9.62179 6.85316 10.5897 5.41105 10.6043C4.41975 10.6116 3.43572 10.6031 2.38867 10.6031ZM3.26242 3.19469C3.15214 4.87433 3.19941 9.36069 3.33271 9.82339C3.92774 9.82339 4.53124 9.85375 5.13111 9.81728C6.23269 9.74932 6.98527 9.27319 7.10038 8.05023C7.16097 7.45217 7.19126 6.85145 7.19126 6.25034C7.19094 5.70965 7.15047 5.16974 7.07009 4.63508C6.94893 3.86023 6.32479 3.25055 5.57708 3.2044C4.82936 3.15825 4.05377 3.20076 3.26121 3.20076L3.26242 3.19469Z" fill="#838282"/>
<path d="M23.0365 8.42599C22.8584 9.67205 22.0573 10.3825 20.8781 10.6291C19.7875 10.8549 18.8071 10.5866 18.0327 9.73397C17.6223 9.28368 17.3949 8.69581 17.3952 8.08592C17.3819 6.90298 17.388 5.71765 17.4619 4.53837C17.5431 3.22673 18.8253 2.19076 20.3874 2.2612C21.3314 2.30493 22.13 2.69599 22.6717 3.51699C22.9604 3.97889 23.1156 4.51196 23.1201 5.05697C23.1407 5.53912 23.1261 7.79198 23.0365 8.42599ZM22.2839 6.44513C22.2476 5.92533 22.1967 5.38609 22.1748 4.84686C22.1349 3.87526 21.2805 3.10163 20.3098 3.07977C19.2761 3.05791 18.4181 3.75988 18.3224 4.78006C18.2169 5.89814 18.2169 7.0237 18.3224 8.14179C18.4363 9.33561 19.4058 9.89185 20.2795 9.8615C21.3459 9.82503 22.0876 9.16073 22.1773 8.08471C22.2197 7.54908 22.2464 7.00868 22.2839 6.44513Z" fill="#838282"/>
<path d="M12.3346 2.37109H13.1223L16.1398 10.6053H15.1861L14.5111 8.78362H10.9325L10.2781 10.5932H9.30859L12.3346 2.37109ZM12.7939 3.81755H12.6824L11.2185 7.95412H14.2481C13.7488 6.54287 13.2714 5.18021 12.7939 3.81755Z" fill="#838282"/>
<path d="M19.5215 13.95H20.5963L18.6865 16.1264L20.9308 19.6071H19.8692C19.3081 18.7084 18.7277 17.7781 18.1012 16.7713L16.9802 18.0161V19.6083H16.167V11.4336H16.9693V16.8793L19.5215 13.95Z" fill="#111111"/>
<path d="M10.7673 19.6159H9.91894L9.82202 19.2515C9.06825 19.7847 8.24658 19.8381 7.3983 19.6231C6.64574 19.4325 6.23248 18.8824 6.21915 18.0905C6.20461 17.2464 6.58879 16.6853 7.36801 16.4849C7.69943 16.4097 8.03772 16.369 8.37748 16.3635C8.85494 16.344 9.33361 16.3635 9.86803 16.3635V15.9845C9.86803 14.9802 9.55297 14.6559 8.56043 14.6171C7.94602 14.5928 7.40314 14.7179 7.0238 15.2753L6.43485 14.7373C6.64638 14.3738 6.99052 14.1068 7.39468 13.9928C8.14813 13.7579 8.95822 13.7809 9.69717 14.0584C9.96508 14.1456 10.2026 14.3076 10.382 14.5253C10.5615 14.7429 10.6753 15.0073 10.7103 15.2874C10.7364 15.4051 10.7542 15.5244 10.7637 15.6445C10.7685 16.944 10.7673 18.2471 10.7673 19.6159ZM9.86924 17.0193C9.3954 17.0193 8.99793 17.0096 8.60167 17.0193C8.30302 17.0179 8.00501 17.0468 7.71216 17.1055C7.31348 17.2003 7.09291 17.5221 7.06988 17.9411C7.04563 18.4074 7.20803 18.7329 7.58368 18.8544C8.11485 19.0441 8.69623 19.0363 9.22212 18.8325C9.62691 18.6722 9.87045 18.3795 9.86924 17.9204C9.86803 17.646 9.86924 17.3679 9.86924 17.0193Z" fill="#111111"/>
<path d="M3.08307 14.5887L2.38867 14.5462V13.9487L3.06732 13.9086V12.1719H3.9241V13.8916H5.11778L5.15292 14.5462H3.96409C3.94713 14.7236 3.9241 14.8559 3.9241 14.9883C3.9241 15.9332 3.91804 16.8792 3.9241 17.8241C3.9241 18.7289 4.07558 18.8771 4.9566 18.8965C5.00787 18.9009 5.05885 18.9082 5.1093 18.9184V19.635C4.87783 19.635 4.66091 19.624 4.4452 19.635C3.66597 19.6811 3.06368 18.9597 3.07459 18.265C3.09034 17.2594 3.07459 16.2538 3.07459 15.2482L3.08307 14.5887Z" fill="#111111"/>
<path d="M12.6342 11.4243H13.491V17.7518C13.491 17.8927 13.4825 18.0336 13.491 18.1732C13.531 18.6906 13.7261 18.8764 14.2484 18.9019C14.3829 18.908 14.5175 18.9019 14.6738 18.9019V19.6221C14.3528 19.6392 14.031 19.6368 13.7104 19.6149C13.1323 19.542 12.7276 19.0659 12.6452 18.4004C12.6298 18.2203 12.6253 18.0394 12.6318 17.8587V11.4219L12.6342 11.4243Z" fill="#111111"/>
<path d="M3.26083 3.19778C4.05338 3.19778 4.81564 3.16013 5.57184 3.2075C6.32804 3.25486 6.94123 3.86332 7.06487 4.63817C7.14518 5.17283 7.18572 5.71275 7.18604 6.25345C7.18604 6.85457 7.15568 7.45529 7.09517 8.05335C6.97394 9.27631 6.22745 9.75359 5.12587 9.8204C4.51994 9.85687 3.9225 9.82645 3.32747 9.82645C3.19781 9.36375 3.15054 4.87742 3.26083 3.19778Z" fill="#CCCCCC"/>
<path d="M22.2843 6.44442C22.2467 7.00792 22.2201 7.54839 22.1752 8.08764C22.0855 9.16367 21.3438 9.82797 20.2774 9.86443C19.4037 9.89479 18.4342 9.33854 18.3203 8.14472C18.2148 7.02663 18.2148 5.90107 18.3203 4.78299C18.416 3.75917 19.274 3.0572 20.3077 3.0827C21.2772 3.10456 22.1328 3.8782 22.1728 4.84979C22.197 5.38538 22.2479 5.9234 22.2843 6.44442Z" fill="#CCCCCC"/>
<path d="M12.7932 3.81641C13.2707 5.17907 13.7481 6.54173 14.2474 7.95785H11.2178L12.6817 3.82127L12.7932 3.81641Z" fill="#CCCCCC"/>
<path d="M9.8691 17.019C9.8691 17.3676 9.8691 17.6457 9.8691 17.9238C9.8691 18.3829 9.62677 18.6756 9.22198 18.8359C8.69609 19.0397 8.11471 19.0475 7.58354 18.8578C7.20789 18.7363 7.04549 18.4108 7.06974 17.9445C7.09277 17.5255 7.31213 17.2037 7.71202 17.1089C8.00487 17.0502 8.30288 17.0213 8.60153 17.0227C8.99779 17.0093 9.39527 17.019 9.8691 17.019Z" fill="#CCCCCC"/>
</g>
<defs>
<clipPath id="clip0">
<rect width="28" height="26.0909" fill="white" transform="translate(-0.000976562 0.300781)"/>
</clipPath>
</defs>
</svg>
