<svg width="121" height="121" viewBox="0 0 121 121" fill="none" xmlns="http://www.w3.org/2000/svg">
<path d="M60.5 120.529C93.9132 120.529 121 93.5478 121 60.2646C121 26.9814 93.9132 -2.05254e-06 60.5 -1.32227e-06C27.0868 -5.92e-07 5.89697e-07 26.9814 1.31712e-06 60.2646C2.04455e-06 93.5478 27.0868 120.529 60.5 120.529Z" fill="url(#paint0_radial)"/>
<path d="M40.6946 47.9106C40.1088 47.3248 40.1088 46.3751 40.6946 45.7893L46.2631 40.2207C46.8489 39.635 47.7987 39.6349 48.3845 40.2207L53.953 45.7893C54.5388 46.3751 54.5388 47.3248 53.953 47.9106L48.3845 53.4791C47.7987 54.0649 46.8489 54.0649 46.2631 53.4791L40.6946 47.9106Z" fill="white"/>
<path d="M54.152 61.3678C53.5662 60.782 53.5662 59.8323 54.152 59.2465L59.7205 53.678C60.3063 53.0922 61.256 53.0922 61.8418 53.678L67.4103 59.2465C67.9961 59.8323 67.9961 60.782 67.4103 61.3678L61.8418 66.9364C61.256 67.5221 60.3063 67.5221 59.7205 66.9364L54.152 61.3678Z" fill="white"/>
<path d="M67.6091 74.8252C67.0233 74.2394 67.0233 73.2896 67.6091 72.7038L73.1777 67.1353C73.7634 66.5495 74.7132 66.5495 75.299 67.1353L80.8675 72.7038C81.4533 73.2896 81.4533 74.2394 80.8675 74.8252L75.299 80.3937C74.7132 80.9795 73.7634 80.9795 73.1777 80.3937L67.6091 74.8252Z" fill="white"/>
<path d="M60.6429 16.9495C66.0942 16.9495 71.3099 17.9628 76.1132 19.8121C77.0037 20.155 77.2194 21.2958 76.5447 21.9706L70.3289 28.1874C69.979 28.5374 69.4668 28.6667 68.9883 28.5402C66.3241 27.8356 63.5271 27.4604 60.6429 27.4604C42.5757 27.4604 27.9293 42.1853 27.9293 60.3494C27.9293 67.4968 30.197 74.1118 34.0487 79.5066L47.4745 66.11L55.1361 73.7731L37.6154 91.3405C35.6694 93.2916 32.5422 93.4973 30.5841 91.5584C22.5747 83.6279 17.4202 72.4478 17.4202 60.3494C17.4202 36.3803 36.7716 16.9495 60.6429 16.9495Z" fill="white"/>
<path d="M60.8279 104.051C55.3766 104.051 50.1609 103.037 45.3576 101.188C44.4671 100.845 44.2514 99.7043 44.9262 99.0295L51.1419 92.8127C51.4919 92.4627 52.004 92.3334 52.4825 92.4599C55.1467 93.1645 57.9437 93.5397 60.8279 93.5397C78.8951 93.5397 93.5415 78.8148 93.5415 60.6507C93.5415 53.5032 91.2738 46.8883 87.4221 41.4935L73.9963 54.8901L66.3347 47.227L83.8555 29.6596C87.4221 26.0929 89.3438 27.9139 90.8867 29.4417C98.8961 37.3722 104.051 48.5523 104.051 60.6507C104.051 84.6198 84.6992 104.051 60.8279 104.051Z" fill="white"/>
<defs>
<radialGradient id="paint0_radial" cx="0" cy="0" r="1" gradientUnits="userSpaceOnUse" gradientTransform="translate(60.4621 60.2323) rotate(90) scale(60.2352 60.4705)">
<stop stop-color="#304FFE"/>
<stop offset="1" stop-color="#3D5AFE"/>
</radialGradient>
</defs>
</svg>
