<svg width="165" height="50" viewBox="0 0 165 50" fill="none" xmlns="http://www.w3.org/2000/svg">
<path fill-rule="evenodd" clip-rule="evenodd" d="M71.5273 35.1098V15.2188H79.3365C85.2367 15.2188 88.7074 18.7645 88.7074 25.0778C88.7074 31.564 85.3234 35.1962 79.3365 35.1962H71.5273V35.1098ZM78.6423 18.7645H75.6054V31.564H78.6423C82.3733 31.564 84.369 29.3154 84.369 25.0778C84.4558 21.0131 82.2866 18.7645 78.6423 18.7645ZM95.1282 35.1098H90.6163L96.9503 25.0778L90.6163 15.2188H95.562L99.7269 22.2238H99.9872L104.152 15.2188H108.838L102.243 25.1643L108.751 35.1098H103.979L99.7269 28.3641H99.4666L95.1282 35.1098Z" fill="white"/>
<path fill-rule="evenodd" clip-rule="evenodd" d="M122.373 32.7763C121.506 34.4194 119.77 35.4572 117.688 35.4572C113.87 35.4572 111.44 32.4303 111.44 27.6738C111.44 22.9172 113.87 19.8904 117.688 19.8904C119.77 19.8904 121.506 20.9281 122.286 22.5713H122.547V14.3555H126.017V35.2843H122.72V32.8628H122.373V32.7763ZM122.547 27.5873C122.547 24.5604 121.072 22.6578 118.729 22.6578C116.386 22.6578 114.911 24.4739 114.911 27.5873C114.911 30.6142 116.299 32.5168 118.729 32.5168C121.072 32.4303 122.547 30.6142 122.547 27.5873ZM135.475 32.6898C133.913 32.6898 132.872 31.9114 132.872 30.7007C132.872 29.4899 133.74 28.7981 135.735 28.6251L139.119 28.3657V29.5764C139.033 31.3925 137.471 32.6898 135.475 32.6898ZM134.434 35.3707C136.43 35.3707 138.078 34.5059 138.946 33.0357H139.206V35.1113H142.503V24.8199C142.503 21.62 140.334 19.7174 136.43 19.7174C132.872 19.7174 130.356 21.447 130.096 24.0415H133.306C133.653 23.0037 134.694 22.4848 136.256 22.4848C138.078 22.4848 139.119 23.3497 139.119 24.8199V26.1171L135.215 26.3766C131.571 26.636 129.488 28.1927 129.488 30.8737C129.401 33.6411 131.484 35.3707 134.434 35.3707ZM153.089 35.4572C157.601 35.4572 160.378 32.5168 160.378 27.5873C160.378 22.6578 157.601 19.7174 153.089 19.7174C148.577 19.7174 145.801 22.7443 145.801 27.5873C145.801 32.5168 148.577 35.4572 153.089 35.4572ZM153.089 32.6033C150.66 32.6033 149.358 30.7872 149.358 27.5873C149.358 24.4739 150.746 22.5713 153.089 22.5713C155.432 22.5713 156.82 24.3875 156.82 27.5873C156.82 30.7007 155.519 32.6033 153.089 32.6033Z" fill="white"/>
<path d="M25.2803 49.641C39.0335 49.641 50.1827 38.5285 50.1827 24.8205C50.1827 11.1125 39.0335 0 25.2803 0C11.5271 0 0.37793 11.1125 0.37793 24.8205C0.37793 38.5285 11.5271 49.641 25.2803 49.641Z" fill="url(#paint0_radial)"/>
<path d="M12.6129 12.1945C17.9926 6.83254 25.8884 5.62178 32.396 8.47571L29.0121 11.8485C24.4134 10.5513 19.2941 11.6756 15.7366 15.3078C10.9644 20.0644 10.5305 27.4154 14.3483 32.6908L19.4676 27.5884L22.5913 30.7017L14.2615 38.9176C13.6542 38.4852 13.1336 37.9663 12.6129 37.4474C5.58475 30.4423 5.58475 19.1131 12.6129 12.1945Z" fill="white"/>
<path d="M18.0791 41.1645C24.6735 44.0185 32.5693 42.7212 37.8622 37.4458C44.8904 30.4407 44.8904 19.198 37.8622 12.1929C37.3416 11.674 36.821 11.1551 36.2136 10.7227L27.9706 18.9385L31.0943 22.0519L36.2136 16.9494C40.0314 22.2248 39.5108 29.6624 34.8253 34.3324C31.1811 37.9647 26.0617 39.089 21.5498 37.7917L18.0791 41.1645Z" fill="white"/>
<path d="M28.4045 24.8204L25.2809 21.707L22.1572 24.8204L25.2809 27.9338L28.4045 24.8204Z" fill="white"/>
<path d="M19.3805 15.8242L22.5041 18.9376L19.3805 22.051L16.2568 18.9376L19.3805 15.8242Z" fill="white"/>
<path d="M34.3049 30.7032L31.1813 27.5898L28.0576 30.7032L31.1813 33.8166L34.3049 30.7032Z" fill="white"/>
<defs>
<radialGradient id="paint0_radial" cx="0" cy="0" r="1" gradientUnits="userSpaceOnUse" gradientTransform="translate(25.2647 24.8072) rotate(90) scale(24.8084 24.8902)">
<stop stop-color="#304FFE"/>
<stop offset="1" stop-color="#3D5AFE"/>
</radialGradient>
</defs>
</svg>
