<svg width="27" height="28" viewBox="0 0 27 28" fill="none" xmlns="http://www.w3.org/2000/svg">
<path opacity="0.78" fill-rule="evenodd" clip-rule="evenodd" d="M27 14C27 21.4558 20.9558 27.5 13.5 27.5C6.04416 27.5 0 21.4558 0 14C0 6.54416 6.04416 0.5 13.5 0.5C20.9558 0.5 27 6.54416 27 14ZM17.356 5.10998C13.8281 3.55771 9.5476 4.21625 6.63122 7.13263C2.82111 10.8957 2.82111 17.0577 6.63122 20.8678C6.91344 21.15 7.19569 21.4323 7.52495 21.6675L12.0406 17.1988L10.3472 15.5054L7.57199 18.2807C5.5023 15.4114 5.73749 11.4131 8.3246 8.82601C10.2532 6.8504 13.0284 6.2389 15.5215 6.94447L17.356 5.10998ZM9.59504 22.8907C13.17 24.4429 17.4504 23.7373 20.3198 20.868C24.1299 17.0579 24.1299 10.9429 20.3198 7.13282C20.0376 6.85059 19.7553 6.56836 19.4261 6.33317L14.9574 10.8018L16.6508 12.4952L19.4261 9.71993C21.4957 12.5893 21.2135 16.6346 18.6734 19.1746C16.6978 21.1502 13.9226 21.7617 11.4766 21.0562L9.59504 22.8907ZM13.4992 12.3071L15.1926 14.0005L13.4992 15.6939L11.8059 14.0005L13.4992 12.3071ZM10.2995 9.10846L11.9929 10.8018L10.2995 12.4952L8.6061 10.8018L10.2995 9.10846ZM16.6969 15.5052L18.3903 17.1986L16.6969 18.8919L15.0035 17.1986L16.6969 15.5052Z" fill="#E5E5E5"/>
</svg>
