<svg width="180" height="57" viewBox="0 0 180 57" fill="none" xmlns="http://www.w3.org/2000/svg">
<path fill-rule="evenodd" clip-rule="evenodd" d="M10.4415 19.9653C10.3377 18.683 10.2888 17.4861 10.2644 16.4174C10.1606 11.2268 10.7468 7.74609 10.7713 7.59953L11.2354 4.876L13.4765 6.49424C13.5986 6.57974 16.4565 8.65597 20.0227 12.4359C20.438 12.8756 20.8776 13.3519 21.3295 13.8649L21.2318 14.1763C19.98 18.2555 19.1922 22.4752 18.9602 26.8108C17.0671 24.93 15.1314 23.3118 13.2872 21.9439C12.304 21.2172 11.3514 20.5577 10.4415 19.9653ZM48.5832 19.9653C48.687 18.683 48.7358 17.4861 48.7603 16.4174C48.8641 11.2268 48.2778 7.74609 48.2534 7.59953L47.7893 4.876L45.5482 6.49424C45.4261 6.57974 42.5682 8.65597 39.002 12.4359C38.5867 12.8756 38.147 13.3519 37.6951 13.8649L37.7929 14.1824C39.0447 18.2616 39.8325 22.4813 40.0645 26.8169C41.9575 24.9361 43.8933 23.3179 45.7375 21.95C46.7207 21.2233 47.6733 20.5638 48.5832 19.9715V19.9653Z" fill="white"/>
<path fill-rule="evenodd" clip-rule="evenodd" d="M29.5131 55.9851C15.7305 56.6446 1.948 45.1215 0.189304 19.1746L0 16.4145L2.56476 17.4587C3.01665 17.6419 12.8238 21.7089 20.4815 30.7588C20.4692 30.3375 20.4631 29.91 20.4631 29.4825C20.4631 18.8449 23.95 8.92781 29.5192 0C35.0884 8.92171 38.5752 18.8449 38.5752 29.4825C38.5752 29.91 38.5691 30.3375 38.5569 30.7588C46.2146 21.7089 56.0217 17.6419 56.4736 17.4587L59.0384 16.4145L58.8491 19.1746C57.0904 45.1215 43.3078 56.6446 29.5253 55.9851H29.5131ZM26.4781 44.5292C25.7759 44.5292 25.4888 44.8039 25.4888 45.4757C25.4888 47.1122 27.2964 48.4374 29.5131 48.4374C31.7359 48.4374 33.5373 47.1122 33.5373 45.4757C33.5373 44.8039 33.2503 44.5353 32.548 44.5353C32.1755 44.5475 31.7969 44.5841 31.4305 44.6513L31.3939 44.6574C30.771 44.7612 30.1421 44.8162 29.5131 44.8284C28.8841 44.8162 28.249 44.7612 27.6261 44.6574C27.2475 44.5902 26.8567 44.5536 26.472 44.5353L26.4781 44.5292ZM19.2418 38.0012C21.031 38.0012 22.4783 39.4485 22.4783 41.2377C22.4783 43.0269 21.031 44.4742 19.2418 44.4742C17.4526 44.4742 16.0053 43.0269 16.0053 41.2377C16.0053 39.4485 17.4526 38.0012 19.2418 38.0012ZM39.7782 38.0012C41.5675 38.0012 43.0147 39.4485 43.0147 41.2377C43.0147 43.0269 41.5675 44.4742 39.7782 44.4742C37.989 44.4742 36.5417 43.0269 36.5417 41.2377C36.5417 39.4485 37.989 38.0012 39.7782 38.0012Z" fill="white"/>
<path d="M91.667 40.4677L89.8438 34.1229H80.6548L78.8133 40.4677H73.1066L81.7669 13.7028H88.6769L97.3737 40.4677H91.667ZM88.5311 29.3825L86.8173 23.5482C86.7443 23.3294 86.6349 22.9708 86.4891 22.4725C86.3432 21.9741 86.1852 21.4272 86.015 20.8316C85.857 20.2238 85.7051 19.6161 85.5592 19.0083C85.4134 18.4006 85.3101 17.884 85.2493 17.4586C85.2007 17.726 85.1338 18.042 85.0487 18.4067C84.9758 18.7713 84.8846 19.1603 84.7752 19.5735C84.678 19.9747 84.5747 20.3818 84.4653 20.7951C84.3559 21.2084 84.2526 21.5973 84.1553 21.962C84.0581 22.3266 83.9669 22.6487 83.8819 22.9283C83.8089 23.2078 83.7542 23.4145 83.7178 23.5482L82.0222 29.3825H88.5311Z" fill="white"/>
<path d="M117.174 20.1205V23.1471L114.202 24.0769C114.445 24.4902 114.615 24.9217 114.713 25.3714C114.81 25.809 114.858 26.283 114.858 26.7935C114.858 27.8267 114.694 28.7748 114.366 29.6378C114.038 30.4886 113.552 31.2179 112.908 31.8256C112.263 32.4334 111.455 32.9074 110.483 33.2477C109.51 33.5759 108.38 33.74 107.092 33.74C106.812 33.74 106.508 33.7279 106.18 33.7035C105.852 33.6671 105.609 33.6306 105.451 33.5942C105.208 33.8008 105.013 34.0196 104.867 34.2505C104.733 34.4693 104.667 34.7367 104.667 35.0527C104.667 35.308 104.746 35.5146 104.904 35.6726C105.062 35.8185 105.268 35.94 105.524 36.0373C105.779 36.1224 106.077 36.1831 106.417 36.2196C106.757 36.2439 107.11 36.2561 107.474 36.2561H110.647C111.631 36.2561 112.513 36.3715 113.29 36.6025C114.068 36.8213 114.725 37.1616 115.26 37.6235C115.807 38.0854 116.226 38.6749 116.518 39.392C116.809 40.097 116.955 40.9418 116.955 41.9263C116.955 43.081 116.724 44.1203 116.262 45.044C115.8 45.9799 115.108 46.77 114.184 47.4142C113.272 48.0706 112.136 48.5689 110.774 48.9093C109.413 49.2617 107.839 49.438 106.052 49.438C104.667 49.438 103.457 49.3043 102.424 49.0369C101.391 48.7816 100.528 48.4048 99.8351 47.9065C99.1423 47.4203 98.6196 46.8308 98.2671 46.138C97.9268 45.4451 97.7566 44.6611 97.7566 43.786C97.7566 43.0445 97.8842 42.4003 98.1395 41.8534C98.3947 41.3064 98.7351 40.8384 99.1605 40.4495C99.5859 40.0605 100.066 39.7445 100.601 39.5014C101.148 39.2583 101.707 39.0699 102.278 38.9362C102.023 38.8268 101.768 38.6749 101.512 38.4804C101.269 38.2859 101.044 38.0611 100.838 37.8058C100.643 37.5506 100.479 37.271 100.346 36.9671C100.224 36.6511 100.163 36.3229 100.163 35.9826C100.163 35.5936 100.218 35.2411 100.327 34.9251C100.449 34.6091 100.619 34.3174 100.838 34.05C101.057 33.7704 101.33 33.5091 101.658 33.266C101.986 33.0229 102.357 32.7737 102.77 32.5184C101.701 32.0566 100.85 31.3151 100.218 30.2941C99.5981 29.2731 99.2881 28.0698 99.2881 26.6841C99.2881 25.5902 99.4583 24.6117 99.7986 23.7487C100.139 22.8857 100.637 22.1564 101.294 21.5609C101.95 20.9531 102.764 20.4912 103.737 20.1752C104.709 19.8592 105.827 19.7012 107.092 19.7012C107.335 19.7012 107.608 19.7194 107.912 19.7559C108.216 19.7802 108.514 19.8166 108.805 19.8653C109.109 19.9017 109.389 19.9443 109.644 19.9929C109.899 20.0415 110.1 20.084 110.246 20.1205H117.174ZM102.588 43.3484C102.588 43.6523 102.649 43.944 102.77 44.2236C102.904 44.5153 103.117 44.7705 103.409 44.9893C103.7 45.2081 104.083 45.3783 104.557 45.4998C105.031 45.6335 105.615 45.7004 106.308 45.7004C108.204 45.7004 109.632 45.433 110.592 44.8982C111.552 44.3633 112.032 43.6462 112.032 42.7468C112.032 41.981 111.735 41.4705 111.139 41.2152C110.544 40.96 109.62 40.8324 108.368 40.8324H105.797C105.469 40.8324 105.116 40.8688 104.74 40.9418C104.363 41.0268 104.016 41.1666 103.7 41.3611C103.384 41.5556 103.117 41.8108 102.898 42.1269C102.691 42.455 102.588 42.8622 102.588 43.3484ZM104.594 26.7571C104.594 27.8631 104.8 28.7201 105.214 29.3278C105.627 29.9355 106.253 30.2394 107.092 30.2394C107.967 30.2394 108.599 29.9355 108.988 29.3278C109.377 28.7201 109.571 27.8631 109.571 26.7571C109.571 25.6631 109.377 24.794 108.988 24.1498C108.611 23.5056 107.979 23.1835 107.092 23.1835C105.426 23.1835 104.594 24.3747 104.594 26.7571Z" fill="white"/>
<path d="M132.744 40.4677L131.669 37.6964H131.505C131.103 38.2434 130.702 38.7174 130.301 39.1185C129.9 39.5075 129.463 39.8296 128.988 40.0848C128.514 40.3401 127.98 40.5285 127.384 40.65C126.801 40.7716 126.12 40.8324 125.342 40.8324C124.515 40.8324 123.75 40.7047 123.045 40.4495C122.34 40.1821 121.726 39.787 121.203 39.2644C120.693 38.7296 120.292 38.0611 120 37.2588C119.708 36.4445 119.562 35.4842 119.562 34.3781C119.562 32.2146 120.255 30.6223 121.641 29.6013C123.027 28.5681 125.099 27.9969 127.858 27.8875L131.103 27.7781V26.2466C131.103 25.4079 130.86 24.788 130.374 24.3869C129.888 23.9858 129.207 23.7852 128.332 23.7852C127.457 23.7852 126.6 23.9128 125.761 24.1681C124.935 24.4233 124.102 24.7637 123.264 25.1891L121.459 21.5062C122.48 20.9349 123.61 20.4852 124.85 20.157C126.09 19.8288 127.39 19.6647 128.751 19.6647C131.292 19.6647 133.237 20.2603 134.586 21.4515C135.947 22.6426 136.628 24.4537 136.628 26.8847V40.4677H132.744ZM131.103 31.0234L129.262 31.0963C128.521 31.1206 127.895 31.2179 127.384 31.3881C126.874 31.5582 126.46 31.7892 126.144 32.0809C125.84 32.3604 125.616 32.7008 125.47 33.1019C125.336 33.4908 125.269 33.9284 125.269 34.4146C125.269 35.2654 125.476 35.8732 125.889 36.2378C126.302 36.5903 126.843 36.7666 127.512 36.7666C128.022 36.7666 128.496 36.6815 128.934 36.5113C129.371 36.329 129.748 36.0677 130.064 35.7273C130.392 35.3748 130.648 34.9494 130.83 34.4511C131.012 33.9406 131.103 33.3571 131.103 32.7008V31.0234Z" fill="white"/>
<path d="M146.637 40.4677L139.436 20.084H145.252L148.625 31.698C148.831 32.3908 149.007 33.114 149.153 33.8676C149.311 34.6091 149.409 35.2776 149.445 35.8732H149.554C149.591 35.229 149.682 34.5483 149.828 33.8312C149.986 33.1019 150.168 32.3908 150.375 31.698L153.73 20.084H159.564L152.362 40.4677H146.637Z" fill="white"/>
<path d="M170.722 23.6576C169.738 23.6576 168.917 24.004 168.261 24.6968C167.617 25.3896 167.246 26.4775 167.149 27.9604H174.241C174.229 27.3405 174.15 26.7692 174.004 26.2466C173.858 25.7239 173.639 25.2742 173.348 24.8974C173.056 24.5084 172.691 24.2045 172.254 23.9858C171.816 23.767 171.306 23.6576 170.722 23.6576ZM171.433 40.8324C169.975 40.8324 168.631 40.6197 167.404 40.1942C166.176 39.7688 165.119 39.1307 164.231 38.2798C163.344 37.4169 162.651 36.3351 162.153 35.0345C161.667 33.7218 161.424 32.1842 161.424 30.4217C161.424 28.635 161.649 27.0731 162.098 25.736C162.548 24.399 163.174 23.2868 163.976 22.3995C164.791 21.5001 165.763 20.8255 166.893 20.3758C168.036 19.926 169.3 19.7012 170.686 19.7012C172.035 19.7012 173.25 19.9078 174.332 20.3211C175.426 20.7222 176.35 21.3178 177.103 22.1078C177.869 22.8979 178.453 23.8703 178.854 25.025C179.267 26.1675 179.474 27.4803 179.474 28.9632V31.6615H167.039C167.064 32.4394 167.185 33.1444 167.404 33.7765C167.635 34.3964 167.951 34.9251 168.352 35.3627C168.765 35.7881 169.257 36.1163 169.829 36.3472C170.412 36.5782 171.075 36.6936 171.816 36.6936C172.436 36.6936 173.019 36.6633 173.566 36.6025C174.125 36.5295 174.666 36.4262 175.189 36.2925C175.712 36.1588 176.228 35.9947 176.739 35.8003C177.249 35.5936 177.772 35.3566 178.307 35.0892V39.392C177.821 39.6473 177.328 39.8661 176.83 40.0484C176.344 40.2185 175.827 40.3644 175.28 40.486C174.733 40.6075 174.144 40.6926 173.512 40.7412C172.88 40.802 172.187 40.8324 171.433 40.8324Z" fill="white"/>
</svg>
