<svg width="400" height="400" viewBox="0 0 400 400" fill="none" xmlns="http://www.w3.org/2000/svg">
<g clip-path="url(#clip0_2904_6309)">
<path d="M400 0H0V400H400V0Z" fill="#DFFD56"/>
<path d="M92 191.009H141.08C181.493 191.009 186.401 186.415 186.401 156.549V154.46C186.401 123.864 180.657 120 141.08 120H92V191.009ZM113.094 174.51V136.082H139.305C163.323 136.082 165.411 137.752 165.411 154.669V155.922C165.411 172.422 163.323 174.51 139.305 174.51H113.094Z" fill="black"/>
<path d="M204.828 191.009H227.384L233.858 178.269H278.656L285.235 191.009H308L269.258 120H243.361L204.828 191.009ZM241.377 163.441L255.892 134.933H256.414L271.033 163.441H241.377Z" fill="black"/>
<path d="M130.22 280.162H155.804L194.546 209.153H171.05L143.377 261.888H143.064L115.6 209.153H92L130.22 280.162Z" fill="black"/>
<path d="M245.379 280.162H266.578V209.153H245.379V280.162Z" fill="black"/>
<path d="M210 265.216H300.241V280.088H210V265.216Z" fill="black"/>
<path d="M210 208.964H300.241V223.836H210V208.964Z" fill="black"/>
</g>
<defs>
<clipPath id="clip0_2904_6309">
<rect width="400" height="400" rx="200" fill="white"/>
</clipPath>
</defs>
</svg>
