<svg width="164" height="160" viewBox="0 0 164 160" fill="none" xmlns="http://www.w3.org/2000/svg">
<g style="mix-blend-mode:screen" filter="url(#filter0_d)">
<path d="M50.9698 95.1346C48.9419 94.0903 48.9419 91.191 50.9698 90.1467L80.8426 74.7629C81.6486 74.3479 82.6053 74.3479 83.4113 74.7629L113.284 90.1467C115.312 91.191 115.312 94.0903 113.284 95.1346L83.4113 110.518C82.6053 110.933 81.6486 110.933 80.8426 110.518L50.9698 95.1346Z" fill="url(#paint0_radial)"/>
<path d="M51.1219 94.8392C49.3342 93.9186 49.3342 91.3627 51.1219 90.4421L80.9948 75.0584C81.7052 74.6925 82.5487 74.6925 83.2591 75.0584L113.132 90.4421C114.92 91.3627 114.92 93.9186 113.132 94.8392L83.2591 110.223C82.5487 110.589 81.7052 110.589 80.9948 110.223L51.1219 94.8392Z" stroke="url(#paint1_linear)" stroke-width="0.664544"/>
</g>
<g style="mix-blend-mode:screen" filter="url(#filter1_d)">
<path d="M50.9698 82.3182C48.9419 81.2739 48.9419 78.3746 50.9698 77.3303L80.8426 61.9465C81.6486 61.5315 82.6053 61.5315 83.4113 61.9465L113.284 77.3303C115.312 78.3746 115.312 81.2739 113.284 82.3182L83.4113 97.702C82.6053 98.117 81.6486 98.117 80.8426 97.702L50.9698 82.3182Z" fill="url(#paint2_radial)"/>
<path d="M51.1219 82.0228C49.3342 81.1022 49.3342 78.5463 51.1219 77.6257L80.9948 62.2419C81.7052 61.8761 82.5487 61.8761 83.2591 62.2419L113.132 77.6257C114.92 78.5463 114.92 81.1022 113.132 82.0228L83.2591 97.4066C82.5487 97.7724 81.7052 97.7724 80.9948 97.4066L51.1219 82.0228Z" stroke="url(#paint3_linear)" stroke-width="0.664544"/>
</g>
<g style="mix-blend-mode:screen" filter="url(#filter2_d)">
<path d="M50.9698 69.5408C48.9419 68.4965 48.9419 65.5973 50.9698 64.553L80.8426 49.1692C81.6486 48.7542 82.6053 48.7542 83.4113 49.1692L113.284 64.553C115.312 65.5973 115.312 68.4965 113.284 69.5408L83.4113 84.9246C82.6053 85.3396 81.6486 85.3396 80.8426 84.9246L50.9698 69.5408Z" fill="url(#paint4_radial)"/>
<path d="M51.1219 69.2454C49.3342 68.3248 49.3342 65.769 51.1219 64.8484L80.9948 49.4646C81.7052 49.0987 82.5487 49.0987 83.2591 49.4646L113.132 64.8484C114.92 65.769 114.92 68.3248 113.132 69.2454L83.2591 84.6292C82.5487 84.9951 81.7052 84.9951 80.9948 84.6292L51.1219 69.2454Z" stroke="url(#paint5_linear)" stroke-width="0.664544"/>
</g>
<defs>
<filter id="filter0_d" x="0.825851" y="25.8298" width="162.603" height="133.625" filterUnits="userSpaceOnUse" color-interpolation-filters="sRGB">
<feFlood flood-opacity="0" result="BackgroundImageFix"/>
<feColorMatrix in="SourceAlpha" type="matrix" values="0 0 0 0 0 0 0 0 0 0 0 0 0 0 0 0 0 0 127 0" result="hardAlpha"/>
<feOffset/>
<feGaussianBlur stdDeviation="24.3117"/>
<feColorMatrix type="matrix" values="0 0 0 0 0 0 0 0 0 0.28 0 0 0 0 1 0 0 0 1 0"/>
<feBlend mode="normal" in2="BackgroundImageFix" result="effect1_dropShadow"/>
<feBlend mode="normal" in="SourceGraphic" in2="effect1_dropShadow" result="shape"/>
</filter>
<filter id="filter1_d" x="0.825851" y="13.0134" width="162.603" height="133.625" filterUnits="userSpaceOnUse" color-interpolation-filters="sRGB">
<feFlood flood-opacity="0" result="BackgroundImageFix"/>
<feColorMatrix in="SourceAlpha" type="matrix" values="0 0 0 0 0 0 0 0 0 0 0 0 0 0 0 0 0 0 127 0" result="hardAlpha"/>
<feOffset/>
<feGaussianBlur stdDeviation="24.3117"/>
<feColorMatrix type="matrix" values="0 0 0 0 0 0 0 0 0 0.28 0 0 0 0 1 0 0 0 1 0"/>
<feBlend mode="normal" in2="BackgroundImageFix" result="effect1_dropShadow"/>
<feBlend mode="normal" in="SourceGraphic" in2="effect1_dropShadow" result="shape"/>
</filter>
<filter id="filter2_d" x="0.825851" y="0.236008" width="162.603" height="133.625" filterUnits="userSpaceOnUse" color-interpolation-filters="sRGB">
<feFlood flood-opacity="0" result="BackgroundImageFix"/>
<feColorMatrix in="SourceAlpha" type="matrix" values="0 0 0 0 0 0 0 0 0 0 0 0 0 0 0 0 0 0 127 0" result="hardAlpha"/>
<feOffset/>
<feGaussianBlur stdDeviation="24.3117"/>
<feColorMatrix type="matrix" values="0 0 0 0 0 0 0 0 0 0.28 0 0 0 0 1 0 0 0 1 0"/>
<feBlend mode="normal" in2="BackgroundImageFix" result="effect1_dropShadow"/>
<feBlend mode="normal" in="SourceGraphic" in2="effect1_dropShadow" result="shape"/>
</filter>
<radialGradient id="paint0_radial" cx="0" cy="0" r="1" gradientUnits="userSpaceOnUse" gradientTransform="translate(82.1044 92.6307) rotate(90) scale(18.53 35.9824)">
<stop stop-color="#304FFE"/>
<stop offset="1" stop-color="#3D5AFE"/>
</radialGradient>
<linearGradient id="paint1_linear" x1="46.127" y1="74.1016" x2="92.8669" y2="131.684" gradientUnits="userSpaceOnUse">
<stop stop-color="#3D5AFE" stop-opacity="0.05"/>
<stop offset="0.229167" stop-color="#3D5AFE"/>
<stop offset="0.463542" stop-color="#A9B6FF"/>
<stop offset="0.786458" stop-color="#3D5AFE"/>
<stop offset="1" stop-color="#3D5AFE" stop-opacity="0.05"/>
</linearGradient>
<radialGradient id="paint2_radial" cx="0" cy="0" r="1" gradientUnits="userSpaceOnUse" gradientTransform="translate(82.1044 79.8143) rotate(90) scale(18.53 35.9824)">
<stop stop-color="#304FFE"/>
<stop offset="1" stop-color="#3D5AFE"/>
</radialGradient>
<linearGradient id="paint3_linear" x1="46.127" y1="61.2852" x2="92.8669" y2="118.867" gradientUnits="userSpaceOnUse">
<stop stop-color="#3D5AFE" stop-opacity="0.05"/>
<stop offset="0.229167" stop-color="#3D5AFE"/>
<stop offset="0.463542" stop-color="#A9B6FF"/>
<stop offset="0.786458" stop-color="#3D5AFE"/>
<stop offset="1" stop-color="#3D5AFE" stop-opacity="0.05"/>
</linearGradient>
<radialGradient id="paint4_radial" cx="0" cy="0" r="1" gradientUnits="userSpaceOnUse" gradientTransform="translate(82.1044 67.037) rotate(90) scale(18.53 35.9824)">
<stop stop-color="#304FFE"/>
<stop offset="1" stop-color="#3D5AFE"/>
</radialGradient>
<linearGradient id="paint5_linear" x1="46.127" y1="48.5078" x2="92.8669" y2="106.09" gradientUnits="userSpaceOnUse">
<stop stop-color="#3D5AFE" stop-opacity="0.05"/>
<stop offset="0.229167" stop-color="#3D5AFE"/>
<stop offset="0.463542" stop-color="#A9B6FF"/>
<stop offset="0.786458" stop-color="#3D5AFE"/>
<stop offset="1" stop-color="#3D5AFE" stop-opacity="0.05"/>
</linearGradient>
</defs>
</svg>
