<svg width="84" height="41" viewBox="0 0 84 41" fill="none" xmlns="http://www.w3.org/2000/svg">
<path d="M43.324 17.4037H40.0293V17.5066V17.6096C40.2953 17.9013 41.0675 17.7898 41.0675 18.399C41.0675 19.0081 41.0675 21.8138 41.0675 21.8138V25.22C41.0675 25.2715 41.0675 25.323 41.0589 25.3745C40.9559 26.1638 40.0379 26.1381 40.0379 26.1381V26.3097H41.0761H42.1743H43.4613V26.0609C43.427 26.0609 42.2172 26.2925 42.1743 25.2543V22.0712H43.3326C43.3841 22.0712 43.9246 22.0712 44.5509 21.8738C45.4175 21.6164 46.4385 21.0073 46.4385 19.5487C46.4214 17.275 43.324 17.4037 43.324 17.4037ZM45.3403 19.7889C45.3403 20.7928 44.9199 21.3333 44.448 21.5821C44.2678 21.6679 42.7835 22.2943 42.1657 21.5221V17.6182H43.2554H43.4098C45.4089 17.6268 45.3403 19.5916 45.3403 19.7889Z" fill="white"/>
<path d="M80.6726 22.926C80.3037 22.231 79.6001 21.5703 78.5877 21.0212C76.048 19.6742 77.0948 18.1298 77.0948 18.1298C77.2063 17.9582 77.3436 17.8037 77.5152 17.675C77.8927 17.3833 78.4161 17.3919 78.8537 17.5377C79.0253 17.5978 79.2055 17.6493 79.3599 17.778C79.4714 17.8895 79.6001 18.0182 79.6859 18.1469C79.8661 18.4129 79.9948 18.7046 80.0892 19.0135C80.175 19.2795 80.2351 19.5712 80.2608 19.8458H80.5096V18.696L80.5354 17.2632H80.3123L80.2865 17.4348C80.2608 17.5463 80.2179 17.6493 80.1578 17.7437C80.0034 17.9753 79.7374 17.7694 79.5658 17.6579C79.3256 17.4863 79.1025 17.3661 78.8194 17.2889C78.6478 17.2289 78.4504 17.2031 78.2703 17.2031H78.2445C78.1415 17.2031 78.0472 17.2031 77.9442 17.2203C77.6439 17.246 77.3522 17.3318 77.0862 17.4605C76.7173 17.6579 76.4084 17.9667 76.2282 18.37C76.0566 18.7561 76.0137 19.1937 76.048 19.6227C76.048 19.6227 76.048 20.1375 76.3741 20.7123C76.5543 21.0641 76.8546 21.4502 77.3522 21.7591C78.2703 22.3254 79.3084 23.0118 79.7546 23.7925C79.7546 23.7925 79.7546 23.7925 79.7546 23.8011C79.9176 24.1014 80.0034 24.4103 79.9605 24.7449C79.8575 25.4571 79.5058 26.1177 78.8194 26.2636C78.5791 26.3236 78.3389 26.3236 78.0901 26.2807L77.764 26.1949C77.5839 26.1177 77.438 26.0662 77.3007 25.929C77.172 25.8174 77.0605 25.6973 76.9661 25.56C76.7859 25.3026 76.6572 25.0195 76.5457 24.7278C76.417 24.3245 76.3312 23.9041 76.3226 23.4922V23.4064H76.0566L76.0738 24.9852L76.048 26.4438H76.2711C76.2711 26.3837 76.2883 26.3151 76.2969 26.255C76.3226 26.1435 76.3827 25.9976 76.4513 25.9118C76.5543 25.8174 76.6744 25.8346 76.7773 25.8946C76.906 25.9547 77.0176 26.0491 77.1291 26.1349C77.2407 26.2121 77.3694 26.2636 77.4981 26.3236C77.7469 26.4352 78.0043 26.4952 78.2788 26.521C78.5362 26.5467 78.8108 26.5381 79.0682 26.4781C79.4457 26.418 79.8232 26.2807 80.1407 26.0405C80.5611 25.7316 80.8357 25.2683 80.9472 24.7278C80.9901 24.5133 80.9987 24.3073 80.9987 24.0928C81.0073 23.6982 80.8871 23.3035 80.6726 22.926Z" fill="white"/>
<path d="M64.2507 26.0767H62.9637C62.9379 26.0767 62.0456 26.1368 61.9426 25.416C61.9341 25.3817 61.9341 25.3302 61.9341 25.2873V18.492C61.9341 18.4405 61.9341 18.389 61.9426 18.3376C62.0885 17.5482 63.2211 17.5739 63.2211 17.5739V17.4023H59.7891V17.5739C59.7891 17.5739 60.6127 17.5396 60.8015 18.2089C60.8272 18.2947 60.8358 18.3805 60.8358 18.4577V25.2873C60.7843 26.1968 59.7891 26.1539 59.7891 26.1539V26.3255H66.2412V23.6829H65.9409C65.9409 24.7983 65.7007 26.0767 64.2507 26.0767Z" fill="white"/>
<path d="M71.6708 25.2873V18.4663C71.6708 18.389 71.6794 18.3204 71.6965 18.2432C71.8681 17.531 72.709 17.5739 72.709 17.5739V17.4023H69.543V17.5739C69.543 17.5739 70.3838 17.5396 70.5554 18.2432C70.564 18.3204 70.5811 18.389 70.5811 18.4663V25.2702C70.5811 25.3474 70.5726 25.4246 70.5468 25.519C70.3666 26.1882 69.5515 26.1539 69.5515 26.1539V26.3255H72.7176V26.1539C72.7176 26.1539 71.7223 26.1968 71.6708 25.2873Z" fill="white"/>
<path d="M53.1651 17.2031C50.9686 17.2031 49.2012 19.2881 49.2012 21.862C49.2012 24.436 50.9772 26.521 53.1737 26.521C55.3702 26.521 57.1462 24.4275 57.1462 21.862C57.1462 19.2795 55.3616 17.2031 53.1651 17.2031ZM53.1651 26.2035C51.6036 26.2035 50.3423 24.2301 50.3423 21.7934C50.3423 19.3567 51.6121 17.3833 53.1651 17.3833C54.7438 17.3833 56.0051 19.3567 56.0051 21.7934C56.0137 24.2301 54.7438 26.2035 53.1651 26.2035Z" fill="white"/>
<path d="M33.4932 17.2031C31.2968 17.2031 29.5293 19.2881 29.5293 21.862C29.5293 24.436 31.3053 26.521 33.5018 26.521C35.6983 26.521 37.4743 24.4275 37.4743 21.862C37.4743 19.2795 35.6897 17.2031 33.4932 17.2031ZM33.4932 26.2035C31.9317 26.2035 30.6704 24.2301 30.6704 21.7934C30.6704 19.3567 31.9403 17.3833 33.4932 17.3833C35.0719 17.3833 36.3332 19.3567 36.3332 21.7934C36.3418 24.2301 35.0719 26.2035 33.4932 26.2035Z" fill="white"/>
<path d="M12.1065 9.28516C7.07139 9.28516 3 14.1578 3 20.1734C3 26.189 7.07139 31.0617 12.1065 31.0617C17.1417 31.0617 21.2131 26.169 21.2131 20.1734C21.1934 14.1378 17.122 9.28516 12.1065 9.28516ZM12.1065 30.3197C8.58587 30.3197 5.71426 25.8682 5.63559 20.3138L16.0796 28.1942C14.9781 29.5377 13.5817 30.3197 12.1065 30.3197ZM16.6106 27.4523L5.63559 19.1708C5.91095 13.8771 8.68421 9.74636 12.0869 9.74636C15.7059 9.74636 18.5972 14.3583 18.5972 20.0531C18.5972 22.9406 17.8498 25.5674 16.6106 27.4523Z" fill="white"/>
</svg>
