<svg width="84" height="41" viewBox="0 0 84 41" fill="none" xmlns="http://www.w3.org/2000/svg">
<path fill-rule="evenodd" clip-rule="evenodd" d="M66.3387 26.8473V26.8383C66.3387 26.6769 66.3117 26.5424 66.2669 26.4348C66.2221 26.3182 66.1414 26.2195 66.0427 26.1388C65.9441 26.0581 65.8275 25.9864 65.684 25.9236C65.5405 25.8608 65.3791 25.807 65.1997 25.7622C65.0472 25.7173 64.9217 25.6814 64.8141 25.6545C64.7154 25.6276 64.6347 25.5918 64.5719 25.5559C64.5181 25.52 64.4733 25.4841 64.4553 25.4393C64.4374 25.3945 64.4195 25.3496 64.4195 25.2868V25.2779C64.4195 25.1882 64.4553 25.1164 64.536 25.0537C64.6168 24.9909 64.7244 24.964 64.8858 24.964C65.0383 24.964 65.1907 24.9999 65.3432 25.0626C65.4956 25.1254 65.6571 25.2151 65.8185 25.3227L66.231 24.7308C66.0427 24.5873 65.8454 24.4707 65.6212 24.39C65.397 24.3093 65.1549 24.2734 64.8948 24.2734C64.7064 24.2734 64.536 24.3003 64.3836 24.3541C64.2311 24.408 64.0966 24.4797 63.989 24.5784C63.8814 24.677 63.7917 24.7846 63.7289 24.9191C63.6661 25.0537 63.6392 25.1972 63.6392 25.3586V25.3676C63.6392 25.5469 63.6661 25.6904 63.7199 25.816C63.7737 25.9326 63.8545 26.0402 63.9621 26.1119C64.0607 26.1926 64.1863 26.2644 64.3387 26.3182C64.4822 26.372 64.6526 26.4258 64.832 26.4707C64.9845 26.5065 65.11 26.5424 65.1997 26.5783C65.2894 26.6141 65.3701 26.65 65.4239 26.6769C65.4777 26.7128 65.5136 26.7487 65.5315 26.7845C65.5494 26.8204 65.5584 26.8742 65.5584 26.9191V26.928C65.5584 27.0356 65.5136 27.1164 65.4239 27.1791C65.3342 27.2419 65.2087 27.2688 65.0383 27.2688C64.832 27.2688 64.6437 27.2329 64.4733 27.1522C64.3029 27.0715 64.1325 26.9639 63.971 26.8383L63.5047 27.3944C63.7199 27.5917 63.9621 27.7352 64.2222 27.8248C64.4822 27.9145 64.7513 27.9683 65.0293 27.9683C65.2266 27.9683 65.406 27.9414 65.5584 27.8966C65.7198 27.8518 65.8544 27.771 65.971 27.6814C66.0875 27.5917 66.1772 27.4661 66.24 27.3316C66.3028 27.1881 66.3387 27.0267 66.3387 26.8473ZM59.4062 26.8294C59.4062 26.9639 59.3524 27.0626 59.2538 27.1253C59.1551 27.1881 59.0206 27.224 58.8412 27.224H57.8996V26.4348H58.8233C59.0296 26.4348 59.182 26.4706 59.2717 26.5424C59.3614 26.6141 59.4062 26.7038 59.4062 26.8294V26.8294ZM59.2089 25.3945C59.2089 25.529 59.1551 25.6276 59.0565 25.6814C58.9578 25.7442 58.8143 25.7711 58.6439 25.7711H57.9175V25.0088H58.6977C58.8681 25.0088 58.9937 25.0447 59.0834 25.1075C59.173 25.1703 59.2179 25.2599 59.2179 25.3855V25.3945H59.2089ZM60.1865 26.928V26.9191C60.1865 26.6769 60.1237 26.4886 60.0071 26.3541C59.8905 26.2195 59.7201 26.1119 59.5138 26.0312C59.5766 25.9953 59.6394 25.9595 59.6932 25.9056C59.747 25.8608 59.8008 25.798 59.8367 25.7353C59.8815 25.6725 59.9084 25.6007 59.9353 25.52C59.9623 25.4393 59.9712 25.3496 59.9712 25.251V25.242C59.9712 24.955 59.8636 24.7308 59.6573 24.5604C59.4511 24.39 59.1551 24.3093 58.7874 24.3093H57.1193V27.8966H58.8233C59.0206 27.8966 59.2089 27.8787 59.3704 27.8338C59.5318 27.789 59.6753 27.7352 59.7919 27.6455C59.9084 27.5648 59.9981 27.4571 60.0609 27.3406C60.1506 27.2329 60.1865 27.0895 60.1865 26.928ZM52.2496 26.4079H51.29L51.7653 25.242L52.2496 26.4079ZM53.6845 27.9145L52.142 24.3003H51.4155L49.873 27.9145H50.6801L51.012 27.1074H52.5276L52.8594 27.9145H53.6845ZM46.6893 27.9145V27.206H44.8956V24.3272H44.1064V27.9145H46.6893Z" fill="white"/>
<path fill-rule="evenodd" clip-rule="evenodd" d="M82.1767 20.6773V14.265H80.7866V18.211L77.7823 14.265H76.4819V20.6773H77.8719V16.5968L80.9749 20.6773H82.1767ZM74.2936 14.265H72.8856V20.6773H74.2936V14.265ZM68.6795 17.9958H66.9756L67.8275 15.9152L68.6795 17.9958ZM71.2534 20.6773L68.5001 14.2202H67.1998L64.4465 20.6773H65.8814L66.4644 19.2424H69.1817L69.7647 20.6773H71.2534ZM62.8771 20.6773V14.265H61.4691V16.803H58.8683V14.265H57.4603V20.6773H58.8683V18.1034H61.4691V20.6773H62.8771ZM55.7473 19.646L54.8505 18.7402C54.5994 18.9733 54.3483 19.1527 54.0972 19.2872C53.8461 19.4217 53.5322 19.4845 53.1645 19.4845C52.8865 19.4845 52.6354 19.4307 52.4112 19.3231C52.178 19.2155 51.9897 19.072 51.8282 18.8837C51.6668 18.7043 51.5413 18.4891 51.4516 18.2379C51.3619 17.9958 51.317 17.7357 51.317 17.4577V17.4398C51.317 17.1618 51.3619 16.9106 51.4516 16.6685C51.5413 16.4264 51.6758 16.2111 51.8372 16.0318C51.9986 15.8524 52.1959 15.7089 52.4291 15.6013C52.6623 15.4937 52.9044 15.4488 53.1735 15.4488C53.4963 15.4488 53.7923 15.5116 54.0524 15.6372C54.3124 15.7627 54.5635 15.9421 54.8147 16.1663L55.7115 15.1349C55.568 14.9914 55.4066 14.8569 55.2362 14.7314C55.0658 14.6058 54.8774 14.5072 54.6801 14.4175C54.4828 14.3278 54.2497 14.265 54.0075 14.2202C53.7564 14.1753 53.4874 14.1484 53.1914 14.1484C52.6982 14.1484 52.2408 14.2381 51.8372 14.4085C51.4247 14.5789 51.0749 14.8211 50.779 15.126C50.483 15.4309 50.2588 15.7807 50.0884 16.1842C49.927 16.5878 49.8373 17.0093 49.8373 17.4756V17.4936C49.8373 17.951 49.918 18.3814 50.0884 18.785C50.2498 19.1886 50.483 19.5383 50.779 19.8343C51.0749 20.1302 51.4247 20.3634 51.8282 20.5338C52.2318 20.7042 52.6712 20.7939 53.1376 20.7939C53.4515 20.7939 53.7295 20.767 53.9806 20.7132C54.2317 20.6594 54.4649 20.5876 54.6712 20.48C54.8864 20.3813 55.0747 20.2558 55.2541 20.1213C55.4066 19.9778 55.577 19.8163 55.7473 19.646ZM48.4024 15.5385V14.265H43.5147V20.6773H44.9227V18.1931H47.9809V16.9196H44.9227V15.5385H48.4024V15.5385ZM41.8018 15.5385V14.265H36.9141V20.6773H38.3221V18.1931H41.3803V16.9196H38.3221V15.5385H41.8018V15.5385ZM33.6048 17.4846C33.6048 17.7626 33.56 18.0137 33.4613 18.2559C33.3627 18.498 33.2371 18.7133 33.0667 18.8926C32.8963 19.072 32.699 19.2155 32.4569 19.3231C32.2147 19.4307 31.9547 19.4756 31.6767 19.4756C31.3897 19.4756 31.1296 19.4217 30.8964 19.3141C30.6632 19.2065 30.457 19.063 30.2866 18.8747C30.1162 18.6953 29.9817 18.4801 29.883 18.229C29.7844 17.9868 29.7395 17.7268 29.7395 17.4487V17.4308C29.7395 17.1528 29.7844 16.9017 29.883 16.6595C29.9817 16.4174 30.1072 16.2022 30.2776 16.0228C30.448 15.8434 30.6453 15.6999 30.8785 15.5923C31.1117 15.4847 31.3717 15.4399 31.6587 15.4399C31.9367 15.4399 32.1968 15.4937 32.439 15.6013C32.6811 15.7089 32.8874 15.8524 33.0578 16.0407C33.2282 16.2201 33.3627 16.4353 33.4613 16.6864C33.56 16.9286 33.6048 17.1887 33.6048 17.4667V17.4846ZM35.0846 17.4667V17.4487C35.0846 16.9914 35.0039 16.5609 34.8335 16.1573C34.6631 15.7537 34.4299 15.413 34.125 15.117C33.8201 14.8211 33.4613 14.5879 33.0488 14.4085C32.6363 14.2381 32.1789 14.1484 31.6856 14.1484C31.1924 14.1484 30.735 14.2381 30.3135 14.4085C29.892 14.5789 29.5333 14.8211 29.2283 15.126C28.9234 15.4309 28.6902 15.7807 28.5198 16.1842C28.3494 16.5878 28.2598 17.0093 28.2598 17.4756V17.4936C28.2598 17.951 28.3405 18.3814 28.5109 18.785C28.6813 19.1886 28.9144 19.5294 29.2194 19.8343C29.5243 20.1302 29.883 20.3634 30.2956 20.5428C30.7081 20.7132 31.1655 20.8029 31.6587 20.8029C32.152 20.8029 32.6094 20.7132 33.0309 20.5428C33.4524 20.3724 33.8111 20.1302 34.116 19.8253C34.4209 19.5204 34.6541 19.1706 34.8245 18.7671C34.9949 18.3545 35.0846 17.9241 35.0846 17.4667Z" fill="white"/>
<path fill-rule="evenodd" clip-rule="evenodd" d="M3.71554 24.2589L7.80504 26.6176L11.0426 28.483L11.9663 27.9538L12.056 27.9L12.9349 27.3888L8.97988 25.1109L7.78711 24.4204L6.67505 23.7746L5.70648 23.2186L5.36569 23.0213L2.98014 21.6402L1.83221 20.9766V23.1558L3.71554 24.2589ZM9.05162 29.6399L9.97535 29.1107L7.27592 27.5503L3.71554 25.4965L1.82324 24.4024V25.4607C1.83221 26.3216 2.00261 26.6714 2.79181 27.1377L4.0653 27.8731L4.11014 27.9L4.27157 27.9987L4.35228 28.0435L4.43299 28.0884L4.51371 28.1332L4.59442 28.178L4.67514 28.2229L4.75585 28.2677L4.83656 28.3126L4.91728 28.3574L4.99799 28.4022L5.0787 28.4471L5.15942 28.4919L5.24013 28.5368L5.32085 28.5816L5.40156 28.6265L5.48227 28.6713L5.56299 28.7161L5.6437 28.761L5.72442 28.8058L5.80513 28.8507L5.88584 28.8955L5.96656 28.9403L6.04727 28.9852L6.12799 29.03L6.2087 29.0749L6.28941 29.1197L6.37013 29.1645L6.45084 29.2094L6.53156 29.2542L6.61227 29.2991L6.69298 29.3439L6.7737 29.3888L6.85441 29.4336L6.93513 29.4784L7.01584 29.5233L7.09655 29.5681L7.17727 29.613L7.25798 29.6578L7.3387 29.7026L7.41941 29.7475L7.50012 29.7923L7.58084 29.8372L7.66155 29.882L7.74226 29.9268L7.82298 29.9717L7.90369 30.0165L7.98441 30.0614L9.05162 29.6399Z" fill="white"/>
<path fill-rule="evenodd" clip-rule="evenodd" d="M9.9753 31.2918L9.05158 30.7627L8.08301 30.2067L8.37896 30.0363L9.98427 29.1036L10.0201 29.0767L10.9887 28.5206L11.9573 27.9646L12.9258 27.4086L13.0693 27.3279L17.957 24.5118L18.2171 24.3594V25.4804V26.5387L11.8676 30.1977L9.9753 31.2918ZM18.2171 29.9466L14.2621 32.2335L13.9213 32.4308C13.159 32.8702 12.7734 32.8971 11.9662 32.4397L11.0425 31.9106L12.9348 30.8165L18.2261 27.7673V28.8255L18.2171 29.9466Z" fill="white"/>
<path fill-rule="evenodd" clip-rule="evenodd" d="M21.0769 26.1136V21.3874V17.6566L20.1531 17.1275L20.0635 17.0737L19.1846 16.5625V21.1273V22.4995V23.7909V24.9119V25.3065V28.0687V29.396L21.0769 28.3019V26.1136ZM23.0678 18.8046L22.1441 18.2754V21.3964V25.5038V27.6831L23.0678 27.154C23.8122 26.7145 24.0274 26.3917 24.0364 25.4769V23.9972V23.9433V23.755V23.6564V23.5577V23.4591V23.3694V23.2707V23.1721V23.0734V22.9748V22.8761V22.7775V22.6788V22.5802V22.4815V22.3829V22.2842V22.1856V22.0869V21.9883V21.8896V21.8448V21.7551V21.6564V21.5578V21.4591V21.3605V21.2618V21.1632V21.0645V20.9659V20.8672V20.7686V20.6699V20.5713V20.4726V20.374V20.2753V20.1767V20.078V19.9794V19.8807V19.7821V19.6834V19.5848V19.4861V19.3875V19.2888L23.0678 18.8046Z" fill="white"/>
<path fill-rule="evenodd" clip-rule="evenodd" d="M24.0394 17.1731V18.2314V19.3524L23.7434 19.182L22.1381 18.2583L22.1022 18.2314L21.1337 17.6753L20.1651 17.1193L19.1965 16.5633L19.053 16.4826L14.1654 13.6576L13.9053 13.5051L14.8738 12.9491L15.7976 12.42L24.0394 17.1731ZM18.7481 10.707L22.7031 12.9939L23.0529 13.1912C23.8152 13.6307 24.0304 13.9535 24.0394 14.8773V15.9445L22.1471 14.8503L16.8558 11.8012L17.7795 11.272L18.7481 10.707Z" fill="white"/>
<path fill-rule="evenodd" clip-rule="evenodd" d="M14.004 10.1544L9.9055 12.513L6.66797 14.3784V15.4366V15.5353V16.5487L10.623 14.2708L11.8157 13.5802L12.9278 12.9345L13.8964 12.3785L14.2371 12.1812L16.6227 10.8001L17.7706 10.1364L15.8783 9.0423L14.004 10.1544ZM6.67694 12.0825V13.1408L9.37637 11.5803L12.9368 9.52658L14.829 8.43246L13.9053 7.90333C13.152 7.47286 12.7664 7.44595 11.9682 7.90333L10.6947 8.63873L10.6499 8.66563L10.4884 8.76428L10.4077 8.80912L10.327 8.85396L10.2463 8.89881L10.1656 8.94365L10.0849 8.98849L10.0041 9.03333L9.89653 9.10508L9.81581 9.14992L9.7351 9.19476L9.65438 9.2396L9.57367 9.28444L9.49296 9.32928L9.41224 9.37412L9.33153 9.41896L9.25081 9.4638L9.1701 9.50864L9.08939 9.55349L9.00867 9.59833L8.92796 9.64317L8.84724 9.68801L8.76653 9.73285L8.68582 9.77769L8.6051 9.82253L8.52439 9.86737L8.44367 9.91221L8.36296 9.95706L8.28225 10.0019L8.20153 10.0467L8.12082 10.0916L8.0401 10.1364L7.95939 10.1813L7.87868 10.2261L7.79796 10.2709L7.71725 10.3158L7.63654 10.3606L7.55582 10.4055L7.47511 10.4503L7.39439 10.4951L7.31368 10.54L7.23297 10.5848L7.15225 10.6297L7.07154 10.6745L6.99083 10.7194L6.91011 10.7642L6.8294 10.809L6.74868 10.8539V12.0825H6.67694Z" fill="white"/>
<path fill-rule="evenodd" clip-rule="evenodd" d="M4.78275 12.0539L5.70648 11.5248L6.67505 10.9688V11.3095V13.166V13.2108V14.3318V15.4529V16.5739V16.7353V22.3763V22.6812L5.70648 22.1252L4.78275 21.5961V20.1701V14.2601V12.0539ZM1.82324 19.8652V15.2914V14.8968C1.82324 14.0179 1.99364 13.6682 2.79181 13.2018L3.71554 12.6727V14.852V20.1432V20.9504L2.79181 20.4212L1.82324 19.8652Z" fill="white"/>
</svg>
