<svg width="23" height="24" viewBox="0 0 23 24" fill="none" xmlns="http://www.w3.org/2000/svg">
<path opacity="0.78" fill-rule="evenodd" clip-rule="evenodd" d="M22.6436 11.7554C22.6436 18.0082 17.5746 23.0772 11.3218 23.0772C5.06894 23.0772 0 18.0082 0 11.7554C0 5.50253 5.06894 0.433594 11.3218 0.433594C17.5746 0.433594 22.6436 5.50253 22.6436 11.7554ZM14.5556 4.29976C11.5969 2.99795 8.0071 3.55023 5.56128 5.99606C2.36593 9.15196 2.36593 14.3197 5.56128 17.5151C5.79797 17.7518 6.03467 17.9885 6.31081 18.1857L10.0979 14.4381L8.67773 13.0179L6.35026 15.3454C4.61451 12.939 4.81175 9.58589 6.98144 7.41621C8.59883 5.75936 10.9263 5.24653 13.0171 5.83826L14.5556 4.29976ZM8.0469 19.2115C11.045 20.5134 14.6348 19.9216 17.0412 17.5153C20.2366 14.3199 20.2366 9.19157 17.0412 5.99622C16.8045 5.75952 16.5678 5.52283 16.2917 5.32559L12.5441 9.07322L13.9642 10.4934L16.2917 8.1659C18.0274 10.5723 17.7907 13.9649 15.6605 16.0951C14.0037 17.7519 11.6762 18.2648 9.62485 17.673L8.0469 19.2115ZM11.3212 10.3356L12.7413 11.7558L11.3212 13.1759L9.901 11.7558L11.3212 10.3356ZM8.63767 7.65309L10.0578 9.07325L8.63767 10.4934L7.21752 9.07325L8.63767 7.65309ZM14.0029 13.0177L15.423 14.4379L14.0029 15.858L12.5827 14.4379L14.0029 13.0177Z" fill="#E5E5E5"/>
</svg>
