<svg width="132" height="36" viewBox="0 0 132 36" fill="none" xmlns="http://www.w3.org/2000/svg">
<g opacity="0.85">
<path d="M5.33758 5.88108C10.4384 0.797033 17.9251 -0.350978 24.0954 2.35505L20.8868 5.55307C16.5265 4.32306 11.6725 5.38907 8.29934 8.8331C3.77442 13.3431 3.36307 20.3132 6.983 25.3152L11.837 20.4772L14.7988 23.4292L6.90073 31.2193C6.32483 30.8093 5.8312 30.3173 5.33758 29.8253C-1.32639 23.1832 -1.32639 12.4411 5.33758 5.88108Z" fill="white"/>
<path d="M10.52 33.3525C16.7726 36.0586 24.2593 34.8285 29.2779 29.8265C35.9418 23.1844 35.9418 12.5244 29.2779 5.88229C28.7842 5.39029 28.2906 4.89828 27.7147 4.48828L19.8989 12.2784L22.8607 15.2304L27.7147 10.3923C31.3346 15.3944 30.841 22.4464 26.3984 26.8745C22.943 30.3185 18.089 31.3845 13.8109 30.1545L10.52 33.3525Z" fill="white"/>
<path d="M20.3102 17.8544L17.3485 14.9023L14.3867 17.8544L17.3485 20.8064L20.3102 17.8544Z" fill="white"/>
<path d="M11.7538 9.32422L14.7155 12.2762L11.7538 15.2283L8.79199 12.2762L11.7538 9.32422Z" fill="white"/>
<path d="M25.905 23.4286L22.9432 20.4766L19.9814 23.4286L22.9432 26.3806L25.905 23.4286Z" fill="white"/>
<path d="M52.3013 10.1166C53.7934 10.1166 55.1056 10.4097 56.238 10.9958C57.3837 11.5687 58.2697 12.388 58.8958 13.4538C59.522 14.5063 59.835 15.7253 59.835 17.1108C59.835 18.4963 59.5153 19.722 58.8758 20.7878C58.2364 21.8535 57.3371 22.6795 56.1781 23.2657C55.019 23.8386 53.6801 24.125 52.1614 24.125H46.1663V10.1166H52.3013ZM52.4212 20.8677C53.3671 20.8677 54.1331 20.528 54.7193 19.8485C55.3055 19.1691 55.5985 18.2698 55.5985 17.1508C55.5985 16.0317 55.2855 15.1258 54.6593 14.433C54.0332 13.7402 53.2205 13.3939 52.2213 13.3939H50.3229V20.8677H52.4212ZM62.5072 10.1166H67.3432L69.6613 13.7735L71.9994 10.1166H76.8953L72.3191 16.811L77.315 24.125H72.3191L69.6613 20.1283L67.0435 24.125H62.1875L67.1434 16.9909L62.5072 10.1166ZM86.8443 10.1365C88.2432 10.1365 89.4955 10.4363 90.6012 11.0358C91.707 11.622 92.5729 12.448 93.1991 13.5138C93.8252 14.5795 94.1383 15.7852 94.1383 17.1308C94.1383 18.4763 93.8185 19.682 93.1791 20.7478C92.5529 21.8003 91.6803 22.6262 90.5612 23.2257C89.4422 23.8252 88.1699 24.125 86.7444 24.125H81.0291V10.1365H86.8443ZM86.9043 21.7669C87.7569 21.7669 88.5229 21.5738 89.2024 21.1874C89.8951 20.7878 90.4347 20.2415 90.821 19.5488C91.2074 18.8427 91.4005 18.0434 91.4005 17.1508C91.4005 16.2582 91.2007 15.4588 90.801 14.7527C90.4014 14.0333 89.8485 13.4805 89.1424 13.0941C88.4496 12.6944 87.6703 12.4946 86.8043 12.4946H83.7069V21.7669H86.9043ZM108.484 24.125L107.245 21.1674H100.41L99.1713 24.125H96.3936L102.529 10.1365H105.306L111.361 24.125H108.484ZM101.37 18.8693H106.285L103.847 12.9942L101.37 18.8693ZM121.063 9.9567C122.449 9.9567 123.708 10.2698 124.84 10.8959C125.986 11.5221 126.885 12.3814 127.538 13.4738C128.191 14.5662 128.517 15.7786 128.517 17.1108C128.517 18.443 128.191 19.662 127.538 20.7678C126.885 21.8602 125.986 22.7262 124.84 23.3656C123.708 24.0051 122.449 24.3248 121.063 24.3248C119.678 24.3248 118.412 24.0051 117.266 23.3656C116.134 22.7262 115.241 21.8602 114.588 20.7678C113.936 19.662 113.609 18.443 113.609 17.1108C113.609 15.7786 113.936 14.5662 114.588 13.4738C115.241 12.3814 116.134 11.5221 117.266 10.8959C118.412 10.2698 119.678 9.9567 121.063 9.9567ZM121.103 12.3547C120.25 12.3547 119.458 12.5679 118.725 12.9942C117.992 13.4072 117.413 13.98 116.986 14.7128C116.56 15.4322 116.347 16.2315 116.347 17.1108C116.347 17.9901 116.56 18.7961 116.986 19.5288C117.426 20.2615 118.006 20.841 118.725 21.2674C119.458 21.6937 120.25 21.9068 121.103 21.9068C121.942 21.9068 122.722 21.6937 123.441 21.2674C124.161 20.841 124.727 20.2615 125.14 19.5288C125.566 18.7961 125.779 17.9901 125.779 17.1108C125.779 16.2315 125.566 15.4322 125.14 14.7128C124.727 13.98 124.161 13.4072 123.441 12.9942C122.722 12.5679 121.942 12.3547 121.103 12.3547Z" fill="white"/>
</g>
</svg>
