<svg width="84" height="41" viewBox="0 0 84 41" fill="none" xmlns="http://www.w3.org/2000/svg">
<path d="M4 23.0624L11.1766 11.5V28.8435L4 23.0624Z" fill="white"/>
<path d="M25.9286 19.8711H16.5591L18.5526 23.0607L11.376 28.8419L25.9286 19.8711Z" fill="white"/>
<path d="M30.3877 13.4924V26.2669H35.1682V24.5151H32.4108V13.4924H30.3877ZM80.0009 18.0548V15.9381C80.0009 14.3867 78.9804 13.3828 77.1362 13.3828C75.2923 13.3828 74.2718 14.4048 74.2718 15.9381V23.8215C74.2718 25.3544 75.2923 26.3768 77.1362 26.3768C78.9804 26.3768 80.0009 25.3729 80.0009 23.8215V19.898H77.1721V21.6498H78.0316V23.8215C78.0316 24.3144 77.6556 24.5698 77.1362 24.5698C76.5812 24.5698 76.313 24.3144 76.313 23.8215V15.9381C76.1695 14.9342 78.0851 14.9707 78.0316 15.9381V18.0548H80.0009ZM71.0847 17.2517C71.0847 18.2374 71.1028 19.3139 71.1383 20.4817L69.2764 13.4924H67.0744V26.2671H68.9184V22.5077C68.9184 21.4675 68.9004 20.3541 68.8648 19.1496L70.7804 26.2671H72.9291V13.4924H71.0847V17.2517ZM63.583 26.267H65.6061V13.4926H63.583V26.267ZM60.2404 18.8758C60.2404 19.3688 59.9898 19.6241 59.5064 19.6241H58.5934V15.2443H59.5064C59.9898 15.2443 60.2404 15.4999 60.2404 15.9926V18.8758ZM62.2639 18.8758V15.9926C62.2639 14.4412 61.315 13.4925 59.5064 13.4925H56.5703V26.267H58.5934V21.3763H59.2205L60.4993 26.267H62.5226L61.147 21.0076C61.8833 20.5959 62.2639 19.8567 62.2639 18.8758ZM53.5381 18.8758C53.5381 19.3688 53.2875 19.6241 52.8041 19.6241H51.8911V15.2443H52.8041C53.2875 15.2443 53.5381 15.4999 53.5381 15.9926V18.8758ZM52.8041 13.4925H49.868V26.267H51.8911V21.3763H52.8041C54.6127 21.3763 55.5616 20.427 55.5616 18.8758V15.9926C55.5616 14.4412 54.6127 13.4925 52.8041 13.4925ZM46.5017 23.8214C46.609 24.8073 44.7111 24.8073 44.8366 23.8214V15.938C44.7111 14.9524 46.609 14.9524 46.5017 15.938V23.8214ZM45.6599 13.3829C43.8159 13.3829 42.7954 14.4047 42.7954 15.938V23.8214C42.7954 25.3545 43.8159 26.3767 45.6599 26.3767C47.5041 26.3767 48.5248 25.3728 48.5248 23.8214V15.938C48.5248 14.3866 47.5041 13.3829 45.6599 13.3829ZM39.5726 23.8214C39.6799 24.8073 37.7822 24.8073 37.9077 23.8214V15.938C37.7822 14.9524 39.6799 14.9524 39.5726 15.938V23.8214ZM38.731 13.3829C36.887 13.3829 35.8665 14.4047 35.8665 15.938V23.8214C35.8665 25.3545 36.887 26.3767 38.731 26.3767C40.575 26.3767 41.5959 25.3728 41.5959 23.8214V15.938C41.5959 14.3866 40.575 13.3829 38.731 13.3829Z" fill="white"/>
</svg>
