<svg width="24" height="24" viewBox="0 0 24 24" fill="none" xmlns="http://www.w3.org/2000/svg">
<path d="M12.3777 0.339844C6.0454 0.339844 0.877686 5.50757 0.877686 11.8398C0.877686 18.1721 6.0454 23.3398 12.3777 23.3398C18.71 23.3398 23.8777 18.1721 23.8777 11.8398C23.8049 5.50757 18.71 0.339844 12.3777 0.339844ZM15.7986 17.2987C15.7258 17.8082 15.1435 18.0266 14.7796 17.7354C13.979 17.1531 12.6688 16.2069 11.6498 15.4063L9.83021 16.862C9.75743 16.9348 9.61186 16.9348 9.53908 16.9348C9.39351 16.9348 9.32072 16.7892 9.24794 16.7164L8.08338 13.0772L4.88085 11.9854C4.51693 11.8398 4.44414 11.3303 4.88085 11.1848C7.71946 10.0202 15.1435 6.96326 17.3998 6.08984C17.691 5.94427 17.9821 6.23541 17.9821 6.52655C17.4726 8.63731 16.3081 14.824 15.7986 17.2987Z" fill="#D0D0D0"/>
</svg>
