<svg width="174" height="97" viewBox="0 0 174 97" fill="none" xmlns="http://www.w3.org/2000/svg">
<path d="M33.5155 80.1714C16.7249 80.2674 1.99188 66.5601 2.03918 48.0996C2.08647 30.4554 15.7317 16.1479 33.5628 16.1719C51.3701 16.1959 65.0154 30.3833 65.039 48.1476C65.0627 66.7281 50.235 80.2674 33.5155 80.1714ZM26.3499 46.9473C26.9175 46.9473 27.3668 46.9473 27.8398 46.9473C29.8499 46.9233 31.8364 46.8993 33.8465 46.8993C36.4006 46.9233 38.9546 47.2114 41.4614 46.9473C44.2992 46.6353 46.7823 45.387 47.8702 42.3862C49.0999 38.9294 47.4445 35.3285 43.7789 33.8642C39.4749 32.1358 35.5019 33.072 31.9546 35.9287C28.5019 38.7133 26.8466 42.4583 26.3499 46.9473ZM30.3465 49.0839C27.7688 49.0598 25.2857 49.3479 23.1337 50.8843C20.1776 53.0208 19.8229 57.0058 22.377 59.6464C24.6945 62.023 27.5797 62.5751 30.654 61.999C36.4006 60.9187 40.6337 56.1656 41.3904 50.2841C41.485 49.492 41.2958 49.2279 40.4208 49.3239C39.0729 49.516 37.6776 49.636 36.3296 49.588C34.3432 49.516 32.3567 49.2759 30.3465 49.0839Z" fill="white"/>
<path d="M119.961 58.7365C119.911 58.1035 119.86 57.6225 119.809 57.0908C116.239 60.053 112.29 59.9265 109.479 56.7869C106.568 53.5715 106.745 47.7988 109.783 44.7606C112.011 42.5579 116.417 41.3679 119.809 44.9125C119.86 44.3049 119.911 43.7732 119.961 43.1655C121.556 43.1655 123.151 43.1655 124.848 43.1655C124.848 48.3558 124.848 53.5208 124.848 58.7618C123.202 58.7365 121.632 58.7365 119.961 58.7365ZM112.391 50.8877C112.34 53.217 113.91 54.964 116.062 54.9893C118.214 55.0146 119.835 53.3183 119.86 50.989C119.885 48.7609 118.316 47.014 116.239 46.938C114.087 46.862 112.442 48.5584 112.391 50.8877Z" fill="white"/>
<path d="M155.324 58.733C153.704 58.733 152.134 58.733 150.463 58.733C150.437 58.176 150.387 57.6696 150.336 56.91C148.792 58.7583 146.918 59.3406 144.791 59.2394C141.854 59.1128 139.804 57.3151 139.702 54.3529C139.576 50.6563 139.677 46.9345 139.677 43.1367C141.221 43.1367 142.791 43.1367 144.538 43.1367C144.538 45.5673 144.513 47.9979 144.538 50.4285C144.538 51.264 144.589 52.1248 144.791 52.935C145.045 54.0997 145.728 54.8846 147.045 54.9605C148.488 55.0365 149.551 54.5554 149.956 53.2642C150.26 52.3274 150.336 51.2893 150.361 50.3019C150.412 47.9473 150.387 45.5926 150.387 43.1367C152.058 43.1367 153.628 43.1367 155.299 43.1367C155.324 48.3017 155.324 53.492 155.324 58.733Z" fill="white"/>
<path d="M157.57 53.6469C157.899 53.6216 158.102 53.5709 158.305 53.5709C159.621 53.5709 160.912 53.5709 162.204 53.5709C163.09 55.6217 164.178 56.3307 165.799 55.7736C166.255 55.6217 166.888 55.0647 166.913 54.6596C166.938 54.1786 166.508 53.4443 166.052 53.2165C164.887 52.6595 163.596 52.3303 162.381 51.8999C161.697 51.672 161.014 51.4442 160.381 51.1403C158.887 50.4314 157.95 49.3174 157.925 47.6211C157.899 45.8741 158.532 44.4056 160.102 43.646C163.115 42.1776 166.229 42.1522 169.242 43.646C170.888 44.4562 171.622 45.95 171.673 47.8489C170.078 47.8489 168.533 47.8489 166.964 47.8489C166.077 46.0513 165.242 45.4943 163.9 46.0766C163.47 46.2538 162.963 46.7855 162.938 47.1906C162.913 47.5957 163.343 48.2287 163.723 48.4059C164.837 48.9123 166.001 49.2414 167.166 49.6465C167.926 49.8997 168.685 50.1529 169.419 50.4821C170.939 51.1403 171.85 52.2797 171.951 53.9507C172.053 55.723 171.369 57.1662 169.85 58.1536C167.369 59.774 162.102 59.698 159.672 58.0017C158.203 56.9636 157.596 55.5205 157.57 53.6469Z" fill="white"/>
<path d="M93.9173 47.9492C92.854 47.9492 91.8919 47.9239 90.9298 47.9492C89.9423 47.9745 89.1321 48.0505 88.727 46.7592C88.3726 45.6452 86.1699 45.5946 85.4609 46.5314C84.8786 47.3162 85.1318 48.0252 85.9926 48.3796C87.1573 48.8607 88.3726 49.2151 89.5625 49.6455C90.3474 49.9241 91.1576 50.2026 91.9172 50.5317C93.3603 51.19 94.2212 52.304 94.2971 53.975C94.3731 55.7727 93.7654 57.2918 92.1704 58.1273C88.879 59.8236 85.5116 59.7983 82.2201 58.0766C80.6251 57.2411 79.9668 55.722 79.9668 53.6459C81.5112 53.6459 83.0304 53.6459 84.5748 53.6459C85.4103 55.5701 86.3724 56.2537 87.8915 55.8233C88.4485 55.6714 89.1828 55.1144 89.2587 54.6333C89.3347 54.2029 88.7524 53.3674 88.2713 53.1648C86.6509 52.4812 84.9292 52.0255 83.2835 51.3925C80.9795 50.5317 80.0934 49.1392 80.2959 46.8605C80.4985 44.8856 81.7138 43.7463 83.4608 43.164C85.7648 42.4044 88.1194 42.3791 90.4234 43.1133C92.7527 43.8729 93.9933 45.5692 93.9173 47.9492Z" fill="white"/>
<path d="M97.0424 46.8005C96.3082 46.8005 95.5993 46.8005 94.7891 46.8005C94.7891 45.5345 94.7891 44.3446 94.7891 43.0786C95.5486 43.0533 96.2829 43.0027 97.1437 42.9773C97.1437 41.4582 97.1437 40.0151 97.1437 38.4453C98.8147 38.4453 100.41 38.4453 102.157 38.4453C102.157 39.9391 102.157 41.4329 102.157 43.0027C103.423 43.0027 104.486 43.0027 105.676 43.0027C105.676 44.2686 105.676 45.4079 105.676 46.7245C104.587 46.7245 103.473 46.7245 102.258 46.7245C102.258 49.1044 102.207 51.3325 102.283 53.5352C102.309 54.5226 103.018 55.029 103.98 55.0796C104.638 55.1303 105.296 55.0796 105.98 55.0796C106.031 55.2569 106.081 55.3581 106.081 55.4847C105.98 59.5104 106.942 58.9281 102.714 59.0293C98.7641 59.1053 97.2197 57.5102 97.169 53.5352C97.1437 51.4338 97.169 49.307 97.1437 47.2056C97.169 47.1549 97.1184 47.079 97.0424 46.8005Z" fill="white"/>
<path d="M133.52 43.0786C134.812 43.0786 135.875 43.0786 137.014 43.0786C137.014 44.3192 137.014 45.4839 137.014 46.7751C135.875 46.7751 134.786 46.7751 133.647 46.7751C133.647 49.1298 133.596 51.3831 133.672 53.6365C133.697 54.6239 134.457 55.0796 135.419 55.105C136.052 55.1303 136.685 55.105 137.521 55.105C137.521 56.143 137.571 57.2317 137.47 58.2951C137.445 58.5483 136.938 58.9281 136.66 58.9534C135.191 59.0293 133.698 59.08 132.254 58.9534C130.305 58.7762 128.862 57.257 128.71 55.1303C128.558 52.9529 128.608 50.7502 128.558 48.5728C128.558 48.0411 128.558 47.5094 128.558 46.8511C127.722 46.8511 127.013 46.8511 126.229 46.8511C126.229 45.5598 126.229 44.3699 126.229 43.0786C126.963 43.0786 127.646 43.0786 128.533 43.0786C128.533 41.5089 128.533 40.0151 128.533 38.4453C130.279 38.4453 131.849 38.4453 133.546 38.4453C133.52 39.9644 133.52 41.4329 133.52 43.0786Z" fill="white"/>
</svg>
