<svg width="238" height="47" viewBox="0 0 238 47" fill="none" xmlns="http://www.w3.org/2000/svg">
<path d="M20.6367 30.3736L26.9254 40.2435L32.7345 36.877L24.4757 23.8594L20.6367 30.3736Z" fill="white"/>
<path d="M38.025 32.9249L38.0208 30.2274L28.9965 16.1719L25.6484 21.853L34.3603 35.9425L37.5103 34.1171C37.8191 33.8663 38.0062 33.498 38.0259 33.1008L38.025 32.9249Z" fill="white"/>
<path d="M0.208984 35.4576L4.65721 38.0208L19.4595 14.2822L16.9474 14.216C14.807 14.1857 12.5011 14.7423 11.4427 16.4697L3.03692 29.498L0.208984 33.843V35.4576Z" fill="white"/>
<path d="M28.003 14.2891L21.3819 14.3132L6.40234 39.0322L11.6383 42.0466L13.0619 39.6319L28.003 14.2891Z" fill="white"/>
<path d="M40.8156 14.256C40.7603 12.8713 40.0105 11.6039 38.8362 10.8659L22.3761 1.39995C21.2144 0.815066 19.7633 0.814225 18.5994 1.39967C18.4619 1.46896 2.59229 10.6729 2.59229 10.6729C2.37264 10.7781 2.16113 10.9035 1.96224 11.046C0.913934 11.7975 0.274907 12.965 0.208984 14.2475V33.8512L3.03692 29.5062L3.01223 14.38C3.0156 14.3247 3.02261 14.27 3.03215 14.2164C3.09611 13.8604 3.295 13.5432 3.59403 13.3286C3.66893 13.2753 19.8093 3.93222 19.8606 3.90641C20.2402 3.71594 20.7221 3.71369 21.1019 3.90052L37.3492 13.2458C37.7335 13.4907 37.9744 13.9059 37.9958 14.3598V33.0972C37.9761 33.4944 37.819 33.8627 37.5102 34.1135L34.3602 35.9389L32.7349 36.8808L26.9258 40.2474L21.0346 43.6613C20.7173 43.7761 20.3462 43.7696 20.0317 43.6417L13.0616 39.6328L11.6377 42.0475L17.9017 45.6539C18.1088 45.7717 18.2934 45.876 18.4448 45.9613C18.6793 46.0929 18.8392 46.1807 18.8956 46.2082C19.3408 46.4245 19.9813 46.5501 20.5586 46.5501C21.0876 46.5501 21.6038 46.4531 22.0922 46.2618L39.2037 36.3523C40.1858 35.5913 40.7637 34.4437 40.8156 33.2007V14.256Z" fill="white"/>
<path d="M58.4972 16.8047C58.9904 16.8047 59.4055 16.9054 59.743 17.1065C60.0805 17.3079 60.4115 17.7004 60.7363 18.2847L67.1819 29.9878C67.2464 30.1177 67.2629 30.2248 67.2307 30.3093C67.1984 30.394 67.1042 30.4358 66.9485 30.4358H64.4754C64.2546 30.4358 64.1057 30.3513 64.0271 30.1827L62.6447 27.6707H53.4927L52.1487 30.1827C52.0578 30.3516 51.9089 30.4358 51.701 30.4358H49.1699C49.0004 30.4358 48.9003 30.394 48.868 30.3093C48.8352 30.2248 48.8515 30.1177 48.9163 29.9878L55.3038 18.2847C55.628 17.7004 55.9464 17.3079 56.2581 17.1065C56.5692 16.9054 56.9325 16.8047 57.3485 16.8047H58.4972ZM54.7194 25.4116H61.418L58.3219 19.7061C58.2697 19.6155 58.1982 19.5698 58.1076 19.5698H57.9909C57.9 19.5698 57.8282 19.6155 57.7766 19.7061L54.7194 25.4116Z" fill="white"/>
<path d="M87.627 16.805C89.1199 16.805 90.1912 17.1427 90.8403 17.8176C91.4892 18.4926 91.814 19.4924 91.814 20.8161V21.9262C91.814 23.0426 91.5865 23.9254 91.1324 24.5743C90.6776 25.2234 89.9374 25.6389 88.9123 25.8204L92.2424 29.9488C92.3069 30.0139 92.3263 30.1112 92.3005 30.2408C92.2741 30.3707 92.1706 30.4355 91.9894 30.4355H89.4773C89.3084 30.4355 89.1912 30.4161 89.1266 30.3772C89.0616 30.3382 88.9968 30.2734 88.9322 30.1825L85.8552 26.1323H79.5654V30.0071C79.5654 30.293 79.4223 30.4355 79.137 30.4355H77.0342C76.7357 30.4355 76.5859 30.2927 76.5859 30.0071V17.389C76.5859 16.9994 76.7809 16.8047 77.1705 16.8047H87.627V16.805ZM79.5654 23.7568H87.0239C87.6856 23.7568 88.153 23.6141 88.4253 23.3285C88.6983 23.0429 88.8346 22.6081 88.8346 22.0238V21.2061C88.8346 20.622 88.6983 20.1869 88.4253 19.9014C88.153 19.6161 87.6856 19.4733 87.0239 19.4733H79.8184C79.6495 19.4733 79.5654 19.551 79.5654 19.707V23.7568Z" fill="white"/>
<path d="M113.589 16.805C114.927 16.805 115.877 17.0712 116.442 17.6036C117.007 18.136 117.289 18.9409 117.289 20.0181V20.9528C117.289 22.0434 116.874 22.8676 116.043 23.4256C116.939 23.9451 117.387 24.7824 117.387 25.9376V27.067C117.387 27.5865 117.328 28.0539 117.212 28.469C117.095 28.8845 116.903 29.238 116.637 29.5303C116.371 29.8223 116.017 30.0461 115.576 30.2021C115.135 30.3581 114.589 30.4358 113.94 30.4358H102.374C101.984 30.4358 101.789 30.2411 101.789 29.8517V17.389C101.789 16.9994 101.984 16.8047 102.374 16.8047H113.589V16.805ZM104.768 22.4715H112.752C113.401 22.4715 113.843 22.3742 114.076 22.1795C114.31 21.9848 114.427 21.6992 114.427 21.3225V20.6607C114.427 20.2582 114.313 19.9631 114.086 19.7746C113.859 19.5866 113.492 19.4924 112.986 19.4924H105.021C104.852 19.4924 104.768 19.5771 104.768 19.7454V22.4715ZM104.768 24.5939V27.4956C104.768 27.6645 104.853 27.7487 105.021 27.7487H113.005C113.525 27.7487 113.894 27.6544 114.115 27.4662C114.336 27.2782 114.446 26.9764 114.446 26.5607V25.8204C114.446 25.4181 114.326 25.1132 114.086 24.9053C113.846 24.6977 113.402 24.5936 112.752 24.5936H104.768V24.5939Z" fill="white"/>
<path d="M129.746 16.8047C130.032 16.8047 130.175 16.9478 130.175 17.233V30.0071C130.175 30.293 130.032 30.4355 129.746 30.4355H127.643C127.345 30.4355 127.195 30.2927 127.195 30.0071V17.233C127.195 16.9475 127.344 16.8047 127.643 16.8047H129.746Z" fill="white"/>
<path d="M155.25 16.8047C155.548 16.8047 155.698 16.9478 155.698 17.233V19.1414C155.698 19.4402 155.548 19.5894 155.25 19.5894H149.135V30.0074C149.135 30.2933 148.992 30.4358 148.707 30.4358H146.584C146.299 30.4358 146.157 30.293 146.157 30.0074V19.5894H140.042C139.743 19.5894 139.594 19.4405 139.594 19.1414V17.233C139.594 16.9475 139.743 16.8047 140.042 16.8047H155.25Z" fill="white"/>
<path d="M176.137 16.805C177.63 16.805 178.701 17.1427 179.35 17.8176C179.999 18.4926 180.324 19.4924 180.324 20.8161V21.9262C180.324 23.0426 180.096 23.9254 179.642 24.5743C179.187 25.2234 178.447 25.6389 177.422 25.8204L180.752 29.9488C180.817 30.0139 180.836 30.1112 180.81 30.2408C180.784 30.3707 180.68 30.4355 180.499 30.4355H177.987C177.818 30.4355 177.701 30.4161 177.636 30.3772C177.571 30.3382 177.507 30.2734 177.442 30.1825L174.365 26.1323H168.075V30.0071C168.075 30.293 167.932 30.4355 167.647 30.4355H165.544C165.246 30.4355 165.096 30.2927 165.096 30.0071V17.389C165.096 16.9994 165.291 16.8047 165.68 16.8047H176.137V16.805ZM168.075 23.7568H175.534C176.195 23.7568 176.663 23.6141 176.935 23.3285C177.208 23.0429 177.344 22.6081 177.344 22.0238V21.2061C177.344 20.622 177.208 20.1869 176.935 19.9014C176.663 19.6161 176.195 19.4733 175.534 19.4733H168.328C168.159 19.4733 168.075 19.551 168.075 19.707V23.7568Z" fill="white"/>
<path d="M192.564 16.8047C192.85 16.8047 192.993 16.9478 192.993 17.233V25.0026C192.993 25.5222 193.035 25.9539 193.119 26.2975C193.203 26.6417 193.343 26.9141 193.538 27.1152C193.733 27.3169 193.996 27.4597 194.327 27.5436C194.658 27.6283 195.076 27.6701 195.583 27.6701H200.977C201.483 27.6701 201.902 27.6283 202.233 27.5436C202.564 27.4594 202.826 27.3167 203.022 27.1152C203.216 26.9141 203.353 26.6417 203.43 26.2975C203.508 25.9536 203.547 25.5219 203.547 25.0026V17.233C203.547 16.9475 203.69 16.8047 203.975 16.8047H206.098C206.384 16.8047 206.526 16.9478 206.526 17.233V25.2947C206.526 26.2294 206.429 27.0246 206.234 27.6802C206.04 28.3358 205.725 28.8679 205.29 29.2769C204.855 29.6857 204.29 29.9813 203.596 30.1628C202.901 30.3446 202.06 30.4355 201.074 30.4355H195.466C194.479 30.4355 193.642 30.3449 192.954 30.1628C192.266 29.9813 191.704 29.6857 191.27 29.2769C190.835 28.8679 190.516 28.3358 190.316 27.6802C190.115 27.0246 190.014 26.2294 190.014 25.2947V17.233C190.014 16.9475 190.163 16.8047 190.462 16.8047H192.564Z" fill="white"/>
<path d="M220.397 16.8047C220.682 16.8047 220.928 16.824 221.136 16.8633C221.344 16.9023 221.526 16.9769 221.681 17.0872C221.838 17.1977 221.977 17.3472 222.1 17.5352C222.223 17.7234 222.35 17.9733 222.48 18.285L226.53 27.6317C226.582 27.7487 226.673 27.807 226.803 27.807H227.036C227.166 27.807 227.257 27.7487 227.309 27.6317L231.36 18.285C231.489 17.9733 231.616 17.7234 231.739 17.5352C231.863 17.3472 232.003 17.1977 232.158 17.0872C232.314 16.9769 232.492 16.9023 232.694 16.8633C232.895 16.824 233.138 16.8047 233.424 16.8047H235.508C236.182 16.8047 236.637 16.9576 236.87 17.2625C237.104 17.5677 237.221 18.09 237.221 18.8301V30.0074C237.221 30.2933 237.072 30.4358 236.773 30.4358H234.787C234.501 30.4358 234.359 30.293 234.359 30.0074V19.8427C234.359 19.7131 234.307 19.6481 234.203 19.6481H234.027C233.897 19.6481 233.813 19.7002 233.774 19.804L229.841 28.528C229.685 28.8783 229.526 29.174 229.364 29.4138C229.202 29.6542 229.026 29.8523 228.839 30.0077C228.65 30.1637 228.436 30.2739 228.196 30.339C227.955 30.4038 227.673 30.4363 227.349 30.4363H226.414C226.089 30.4363 225.807 30.4041 225.567 30.339C225.326 30.2742 225.112 30.1637 224.924 30.0077C224.736 29.852 224.56 29.6542 224.398 29.4138C224.236 29.174 224.077 28.8783 223.922 28.528L219.988 19.804C219.949 19.7002 219.865 19.6481 219.735 19.6481H219.559C219.455 19.6481 219.404 19.7131 219.404 19.8427V30.0074C219.404 30.2933 219.261 30.4358 218.975 30.4358H216.989C216.691 30.4358 216.541 30.293 216.541 30.0074V18.8301C216.541 18.09 216.658 17.5677 216.892 17.2625C217.126 16.9576 217.586 16.8047 218.275 16.8047H220.397Z" fill="white"/>
</svg>
