<svg width="72" height="41" viewBox="0 0 72 41" fill="none" xmlns="http://www.w3.org/2000/svg">
<path d="M35.3359 27.7692C35.3359 25.6242 36.7192 23.9609 39.0825 23.9609C40.1522 23.9609 41.3171 24.409 42.0787 25.2826L40.8522 26.3243C40.4546 25.9378 39.8722 25.5962 39.0825 25.5962C38.0297 25.5962 37.156 26.3971 37.156 27.7692C37.156 28.9676 37.8953 29.9421 39.1554 29.9421C39.6146 29.9421 40.0066 29.8469 40.4322 29.6173V28.7436H38.9985V27.3099H42.1011V30.6309C41.4235 31.1517 40.3034 31.5382 39.1554 31.5382C37.0216 31.5382 35.3359 30.1717 35.3359 27.7692Z" fill="white"/>
<path d="M43.1699 26.3647H44.794V26.9584H44.8164C45.214 26.4991 45.7517 26.2695 46.3453 26.2695C47.3982 26.2695 48.1654 26.7904 48.1654 28.4033V31.4498H46.5413V28.8009C46.5413 27.9608 46.2613 27.72 45.7293 27.72C45.1692 27.72 44.794 28.1064 44.794 28.8961V31.4554H43.1699V26.3647V26.3647Z" fill="white"/>
<path d="M48.9785 28.9129C48.9785 27.3616 50.093 26.2695 51.7339 26.2695C53.3356 26.2695 54.478 27.3392 54.478 28.9129C54.478 30.4754 53.3356 31.545 51.7339 31.545C50.093 31.545 48.9785 30.453 48.9785 28.9129ZM52.8371 28.9129C52.8371 28.2072 52.3667 27.7144 51.7339 27.7144C51.0786 27.7144 50.6194 28.2128 50.6194 28.9129C50.6194 29.5905 51.0898 30.1113 51.7339 30.1113C52.3499 30.1113 52.8371 29.6129 52.8371 28.9129Z" fill="white"/>
<path d="M54.959 30.8002L55.7206 29.7473C56.1462 30.1337 56.5831 30.3186 57.0535 30.3186C57.3783 30.3186 57.5407 30.2066 57.5407 30.0161C57.5407 29.8481 57.3839 29.7473 56.7511 29.5457C55.8998 29.2881 55.1494 28.8681 55.1494 27.8936C55.1494 26.8632 55.9894 26.2695 57.0535 26.2695C57.8207 26.2695 58.3864 26.4655 58.98 26.9024L58.2128 28.0336C57.8599 27.6808 57.4231 27.5016 57.0815 27.5016C56.8967 27.5016 56.6783 27.5856 56.6783 27.7816C56.6783 27.9384 56.8631 28.0504 57.3727 28.2296C58.4984 28.6161 59.1088 28.9073 59.1088 29.9041C59.1088 30.8506 58.4312 31.5394 57.0367 31.5394C56.2247 31.545 55.519 31.2986 54.959 30.8002Z" fill="white"/>
<path d="M59.8242 24.7996C59.8242 24.3011 60.2274 23.8867 60.7931 23.8867C61.3531 23.8867 61.7731 24.2899 61.7731 24.7996C61.7731 25.3316 61.3587 25.7348 60.7931 25.7348C60.233 25.7348 59.8242 25.3316 59.8242 24.7996ZM59.981 26.3677H61.6051V31.4527H59.981V26.3677Z" fill="white"/>
<path d="M62.3848 30.8002L63.1464 29.7473C63.572 30.1337 64.0089 30.3186 64.4793 30.3186C64.8041 30.3186 64.9665 30.2066 64.9665 30.0161C64.9665 29.8481 64.8097 29.7473 64.1769 29.5457C63.3256 29.2881 62.5752 28.8681 62.5752 27.8936C62.5752 26.8632 63.4152 26.2695 64.4793 26.2695C65.2465 26.2695 65.8122 26.4655 66.4058 26.9024L65.6385 28.0336C65.2857 27.6808 64.8489 27.5016 64.5073 27.5016C64.3225 27.5016 64.1041 27.5856 64.1041 27.7816C64.1041 27.9384 64.2889 28.0504 64.7985 28.2296C65.9242 28.6161 66.5346 28.9073 66.5346 29.9041C66.5346 30.8506 65.857 31.5394 64.4625 31.5394C63.656 31.545 62.9448 31.2986 62.3848 30.8002Z" fill="white"/>
<path d="M13.2229 21.9974C14.0133 21.9974 14.7394 21.7275 15.3177 21.2777L10.5048 16.4648C10.055 17.0432 9.78516 17.7693 9.78516 18.5596C9.79158 20.4617 11.3273 21.9974 13.2229 21.9974Z" fill="white"/>
<path d="M27.5281 18.5675C27.5281 17.7771 27.2582 17.051 26.8084 16.4727L22.002 21.2856C22.5803 21.7354 23.3064 22.0052 24.0968 22.0052C25.9924 21.9988 27.5281 20.4631 27.5281 18.5675Z" fill="white"/>
<path d="M29.9502 13.3359L27.823 15.4631C28.5235 16.305 28.9541 17.3911 28.9541 18.5672C28.9541 21.2407 26.7755 23.4193 24.102 23.4193C22.9195 23.4193 21.8398 22.9951 20.9979 22.2882L18.6587 24.6211L16.3258 22.2882C15.4839 22.9887 14.3978 23.4193 13.2218 23.4193C10.5483 23.4193 8.36967 21.2407 8.36967 18.5672C8.36967 17.3847 8.79382 16.305 9.50075 15.4631L8.40823 14.3706L7.37354 13.3359C6.16534 15.3282 5.46484 17.6675 5.46484 20.1738C5.46484 27.4616 11.3709 33.3741 18.6651 33.3741C25.9593 33.3741 31.8653 27.468 31.8653 20.1738C31.8589 17.6675 31.1584 15.3282 29.9502 13.3359Z" fill="white"/>
<path d="M28.2089 11.06C25.8053 8.54717 22.4185 6.97266 18.659 6.97266C14.8994 6.97266 11.5126 8.54717 9.10902 11.06C8.78127 11.407 8.47279 11.7669 8.18359 12.1461L18.659 22.6214L29.1343 12.1461C28.8451 11.7669 28.5366 11.407 28.2089 11.06ZM18.659 8.70141C21.7437 8.70141 24.6164 9.89033 26.7758 12.0625L18.659 20.1729L10.5486 12.0625C12.7015 9.89033 15.5742 8.70141 18.659 8.70141Z" fill="white"/>
</svg>
