<svg width="72" height="41" viewBox="0 0 72 41" fill="none" xmlns="http://www.w3.org/2000/svg">
<path d="M36.4785 19.7584H38.3949L40.4182 22.9464L42.4662 19.7584L44.2674 19.8007L41.2982 24.1726L44.3989 28.815H42.5073L40.3195 25.4156L38.1976 28.815H36.3223L39.423 24.1726L36.4785 19.7584ZM49.0317 27.3775C49.5855 27.3775 50.0406 27.3183 50.3971 27.1998C51.033 26.98 51.5539 26.5572 51.9597 25.9314C52.2833 25.4298 52.5163 24.7871 52.6589 24.0034C52.7411 23.5355 52.7821 23.1014 52.7821 22.7012C52.7821 21.1622 52.4834 20.3647 51.8857 19.5135C51.2935 18.6622 50.3367 18.2366 49.0152 18.2366H47.3051V27.3775H49.0317ZM45.6602 16.7906H49.3607C51.0222 16.7906 52.3106 17.3966 53.2263 18.6087C54.0434 19.7023 54.4518 20.7055 54.4518 22.4137C54.4518 23.7328 54.2105 24.9251 53.728 25.9907C52.8782 27.8735 51.4169 28.815 49.3443 28.815H45.6602V16.7906ZM56.7546 26.405C56.7546 26.8447 56.9109 27.1914 57.2234 27.445C57.536 27.6988 57.9061 27.8256 58.3338 27.8256C58.8546 27.8256 59.359 27.7016 59.847 27.4536C60.6696 27.042 61.0808 26.3683 61.0808 25.4325V24.2064C60.8998 24.3248 60.6668 24.4234 60.3817 24.5024C60.0965 24.5813 59.817 24.6377 59.5428 24.6715L58.6463 24.7898C58.1089 24.8632 57.706 24.9788 57.4373 25.1365C56.9821 25.4015 56.7546 25.8243 56.7546 26.405ZM60.3406 23.3269C60.6805 23.2818 60.9081 23.1353 61.0232 22.8872C61.0891 22.7519 61.1219 22.5574 61.1219 22.3037C61.1219 21.7851 60.941 21.4102 60.5791 21.1791C60.2226 20.9423 59.7099 20.8239 59.0411 20.8239C58.2679 20.8239 57.7196 21.0381 57.3961 21.4666C57.2151 21.7034 57.0973 22.0557 57.0425 22.5236H55.6607C55.6882 21.4074 56.0391 20.6322 56.7134 20.1982C57.3934 19.7584 58.1802 19.5386 59.074 19.5386C60.1102 19.5386 60.952 19.7415 61.599 20.1474C62.2404 20.5533 62.5612 21.1847 62.5612 22.0416V27.259C62.5612 27.4169 62.5914 27.5438 62.6517 27.6396C62.7175 27.7354 62.8519 27.7833 63.0547 27.7833C63.1205 27.7833 63.1946 27.7805 63.2768 27.7749C63.3591 27.7636 63.4468 27.7496 63.54 27.7326V28.8573C63.3097 28.9249 63.1342 28.9672 63.0136 28.9841C62.8929 29.001 62.7285 29.0095 62.5201 29.0095C62.0102 29.0095 61.64 28.8234 61.4098 28.4514C61.2891 28.2541 61.2042 27.9751 61.1548 27.6143C60.8532 28.0201 60.4201 28.3724 59.8553 28.6713C59.2906 28.97 58.6682 29.1194 57.9883 29.1194C57.1713 29.1194 56.5024 28.8657 55.9814 28.3583C55.466 27.8454 55.2083 27.2055 55.2083 26.4388C55.2083 25.5988 55.4633 24.9477 55.9732 24.4854C56.4832 24.0232 57.1521 23.7385 57.98 23.6314L60.3406 23.3269ZM64.6448 19.8007H66.15V28.815H64.6448V19.8007ZM64.758 16.792C65.167 16.4339 65.7409 16.4339 66.15 16.792C66.6171 17.2009 66.6171 17.9729 66.15 18.3818C65.741 18.7399 65.167 18.7399 64.758 18.3818C64.2909 17.9729 64.2909 17.201 64.758 16.792Z" fill="white"/>
<path fill-rule="evenodd" clip-rule="evenodd" d="M14.4428 31.2931V26.8441H9.86743V22.395H5.5V31.505H14.4428V31.2931ZM27.9611 22.395H23.5936V26.8441H19.2262V31.2931H28.169V22.395H27.9611ZM19.0182 13.285H27.9611V8.83594H19.0182V13.285ZM5.5 13.285H14.4428V8.83594H5.5V13.285Z" fill="white"/>
</svg>
