<svg width="136" height="137" viewBox="0 0 136 137" fill="none" xmlns="http://www.w3.org/2000/svg">
<circle cx="68" cy="68.1719" r="68" fill="#0A090E"/>
<path fill-rule="evenodd" clip-rule="evenodd" d="M24 83.4711V68.1718C24 43.8713 43.6994 24.1719 67.9999 24.1719C79.986 24.1719 90.8528 28.9646 98.7883 36.7382L89.4345 42.5831C83.6357 37.7205 76.1598 34.7925 67.9999 34.7925C49.5651 34.7925 34.6207 49.737 34.6207 68.1718H45.2413L24 83.4711ZM46.4046 93.6245C52.2257 98.5686 59.7648 101.551 68.0005 101.551C86.4354 101.551 101.38 86.6068 101.38 68.1719H90.7591L112 52.6203L112 68.1719C112 92.4724 92.301 112.172 68.0005 112.172C55.9401 112.172 45.0129 107.32 37.0649 99.4606L46.4046 93.6245ZM84.8793 82.7754H72.7414L68.0005 76.371L63.2596 82.7754H51.1217L62.1179 68.4244L51.1207 53.5686H62.5L68.0005 60.7471L73.501 53.5686H84.8803L73.8831 68.4244L84.8793 82.7754Z" fill="white"/>
</svg>
