<svg width="208" height="97" viewBox="0 0 208 97" fill="none" xmlns="http://www.w3.org/2000/svg">
<path fill-rule="evenodd" clip-rule="evenodd" d="M165.202 65.0298V65.0071C165.202 64.5993 165.134 64.2594 165.02 63.9876C164.907 63.693 164.703 63.4438 164.454 63.2399C164.205 63.036 163.91 62.8547 163.548 62.6961C163.185 62.5375 162.777 62.4016 162.324 62.2883C161.939 62.175 161.622 62.0844 161.35 62.0164C161.101 61.9485 160.897 61.8579 160.738 61.7672C160.602 61.6766 160.489 61.586 160.444 61.4727C160.399 61.3594 160.353 61.2461 160.353 61.0875V61.0649C160.353 60.8383 160.444 60.657 160.648 60.4985C160.852 60.3399 161.124 60.2719 161.531 60.2719C161.917 60.2719 162.302 60.3625 162.687 60.5211C163.072 60.6797 163.48 60.9063 163.888 61.1781L164.93 59.6828C164.454 59.3203 163.956 59.0258 163.389 58.8219C162.823 58.618 162.211 58.5273 161.554 58.5273C161.078 58.5273 160.648 58.5953 160.263 58.7312C159.877 58.8672 159.538 59.0484 159.266 59.2977C158.994 59.5469 158.767 59.8188 158.609 60.1586C158.45 60.4985 158.382 60.861 158.382 61.2688V61.2914C158.382 61.7446 158.45 62.1071 158.586 62.4243C158.722 62.7188 158.926 62.9907 159.198 63.1719C159.447 63.3758 159.764 63.5571 160.149 63.693C160.512 63.829 160.942 63.9649 161.395 64.0782C161.781 64.1688 162.098 64.2594 162.324 64.3501C162.551 64.4407 162.755 64.5313 162.891 64.5993C163.027 64.6899 163.117 64.7806 163.163 64.8712C163.208 64.9618 163.231 65.0977 163.231 65.211V65.2337C163.231 65.5056 163.117 65.7095 162.891 65.8681C162.664 66.0267 162.347 66.0946 161.917 66.0946C161.395 66.0946 160.92 66.004 160.489 65.8001C160.059 65.5962 159.628 65.3243 159.22 65.0071L158.042 66.4118C158.586 66.9103 159.198 67.2728 159.855 67.4993C160.512 67.7259 161.192 67.8618 161.894 67.8618C162.392 67.8618 162.845 67.7939 163.231 67.6806C163.638 67.5673 163.978 67.3634 164.273 67.1368C164.567 66.9103 164.794 66.5931 164.953 66.2532C165.111 65.8907 165.202 65.4829 165.202 65.0298ZM147.688 64.9845C147.688 65.3243 147.552 65.5735 147.303 65.7321C147.054 65.8907 146.714 65.9813 146.261 65.9813H143.882V63.9876H146.216C146.737 63.9876 147.122 64.0782 147.348 64.2594C147.575 64.4407 147.688 64.6673 147.688 64.9845V64.9845ZM147.19 61.3594C147.19 61.6993 147.054 61.9485 146.805 62.0844C146.555 62.243 146.193 62.311 145.762 62.311H143.927V60.3852H145.898C146.329 60.3852 146.646 60.4758 146.873 60.6344C147.099 60.793 147.212 61.0196 147.212 61.3367V61.3594H147.19ZM149.659 65.2337V65.211C149.659 64.5993 149.501 64.1235 149.206 63.7837C148.912 63.4438 148.481 63.1719 147.96 62.968C148.119 62.8774 148.277 62.7868 148.413 62.6508C148.549 62.5375 148.685 62.379 148.776 62.2204C148.889 62.0618 148.957 61.8805 149.025 61.6766C149.093 61.4727 149.116 61.2461 149.116 60.9969V60.9742C149.116 60.2492 148.844 59.6828 148.323 59.2523C147.801 58.8219 147.054 58.618 146.125 58.618H141.911V67.6806H146.216C146.714 67.6806 147.19 67.6353 147.598 67.522C148.005 67.4087 148.368 67.2728 148.662 67.0462C148.957 66.8423 149.184 66.5704 149.342 66.2759C149.569 66.004 149.659 65.6415 149.659 65.2337ZM129.608 63.9196H127.184L128.385 60.9742L129.608 63.9196ZM133.233 67.7259L129.336 58.5953H127.501L123.604 67.7259H125.643L126.482 65.6868H130.311L131.149 67.7259H133.233ZM115.561 67.7259V65.936H111.03V58.6633H109.036V67.7259H115.561Z" fill="white"/>
<path fill-rule="evenodd" clip-rule="evenodd" d="M205.214 49.4393V33.2398H201.702V43.2087L194.112 33.2398H190.827V49.4393H194.339V39.1305L202.178 49.4393H205.214ZM185.299 33.2398H181.742V49.4393H185.299V33.2398ZM171.116 42.665H166.811L168.964 37.4087L171.116 42.665ZM177.618 49.4393L170.663 33.1266H167.378L160.422 49.4393H164.047L165.52 45.8142H172.385L173.857 49.4393H177.618ZM156.457 49.4393V33.2398H152.9V39.6517H146.33V33.2398H142.773V49.4393H146.33V42.9369H152.9V49.4393H156.457ZM138.445 46.8338L136.18 44.5455C135.545 45.1345 134.911 45.5877 134.276 45.9275C133.642 46.2674 132.849 46.426 131.92 46.426C131.218 46.426 130.583 46.29 130.017 46.0181C129.428 45.7463 128.952 45.3838 128.544 44.908C128.137 44.4548 127.819 43.9111 127.593 43.2767C127.366 42.665 127.253 42.0079 127.253 41.3056V41.2603C127.253 40.5579 127.366 39.9235 127.593 39.3118C127.819 38.7001 128.159 38.1563 128.567 37.7032C128.975 37.2501 129.473 36.8876 130.062 36.6157C130.651 36.3438 131.263 36.2305 131.943 36.2305C132.758 36.2305 133.506 36.3891 134.163 36.7063C134.82 37.0235 135.455 37.4766 136.089 38.043L138.355 35.4375C137.992 35.075 137.584 34.7352 137.154 34.418C136.723 34.1008 136.248 33.8516 135.749 33.625C135.251 33.3984 134.662 33.2398 134.05 33.1266C133.415 33.0133 132.736 32.9453 131.988 32.9453C130.742 32.9453 129.587 33.1719 128.567 33.6024C127.525 34.0328 126.641 34.6446 125.894 35.4149C125.146 36.1852 124.579 37.0688 124.149 38.0884C123.741 39.1079 123.515 40.1728 123.515 41.3509V41.3962C123.515 42.5517 123.718 43.6392 124.149 44.6588C124.557 45.6783 125.146 46.5619 125.894 47.3096C126.641 48.0572 127.525 48.6463 128.544 49.0768C129.564 49.5073 130.674 49.7338 131.852 49.7338C132.645 49.7338 133.348 49.6658 133.982 49.5299C134.616 49.394 135.205 49.2127 135.726 48.9408C136.27 48.6916 136.746 48.3744 137.199 48.0346C137.584 47.6721 138.015 47.2642 138.445 46.8338ZM119.89 36.4571V33.2398H107.542V49.4393H111.099V43.1634H118.825V39.9462H111.099V36.4571H119.89V36.4571ZM103.214 36.4571V33.2398H90.8665V49.4393H94.4236V43.1634H102.149V39.9462H94.4236V36.4571H103.214V36.4571ZM82.5062 41.3736C82.5062 42.0759 82.3929 42.7103 82.1437 43.322C81.8945 43.9337 81.5773 44.4775 81.1468 44.9306C80.7164 45.3838 80.2179 45.7463 79.6062 46.0181C78.9945 46.29 78.3374 46.4033 77.6351 46.4033C76.9101 46.4033 76.253 46.2674 75.664 45.9955C75.0749 45.7236 74.5538 45.3611 74.1233 44.8853C73.6928 44.4322 73.353 43.8884 73.1038 43.254C72.8545 42.6423 72.7413 41.9853 72.7413 41.2829V41.2376C72.7413 40.5353 72.8545 39.9009 73.1038 39.2891C73.353 38.6774 73.6702 38.1337 74.1007 37.6805C74.5311 37.2274 75.0296 36.8649 75.6186 36.593C76.2077 36.3211 76.8648 36.2079 77.5898 36.2079C78.2921 36.2079 78.9492 36.3438 79.5609 36.6157C80.1726 36.8876 80.6937 37.2501 81.1242 37.7258C81.5547 38.179 81.8945 38.7227 82.1437 39.3571C82.3929 39.9688 82.5062 40.6259 82.5062 41.3282V41.3736ZM86.2446 41.3282V41.2829C86.2446 40.1274 86.0407 39.0399 85.6102 38.0204C85.1797 37.0008 84.5906 36.1399 83.8203 35.3922C83.05 34.6446 82.1437 34.0555 81.1015 33.6024C80.0593 33.1719 78.9038 32.9453 77.6577 32.9453C76.4116 32.9453 75.2561 33.1719 74.1913 33.6024C73.1264 34.0328 72.2202 34.6446 71.4498 35.4149C70.6795 36.1852 70.0904 37.0688 69.66 38.0884C69.2295 39.1079 69.0029 40.1728 69.0029 41.3509V41.3962C69.0029 42.5517 69.2068 43.6392 69.6373 44.6588C70.0678 45.6783 70.6569 46.5392 71.4272 47.3096C72.1975 48.0572 73.1038 48.6463 74.146 49.0994C75.1882 49.5299 76.3437 49.7565 77.5898 49.7565C78.8359 49.7565 79.9914 49.5299 81.0562 49.0994C82.1211 48.669 83.0273 48.0572 83.7977 47.2869C84.568 46.5166 85.157 45.633 85.5875 44.6134C86.018 43.5712 86.2446 42.4837 86.2446 41.3282Z" fill="white"/>
<path fill-rule="evenodd" clip-rule="evenodd" d="M6.9944 58.4993L17.3258 64.458L25.5048 69.1706L27.8384 67.8338L28.065 67.6979L30.2853 66.4065L20.2938 60.6517L17.2805 58.9071L14.4711 57.2759L12.0242 55.8712L11.1632 55.3727L5.13656 51.8836L2.23653 50.207V55.7126L6.9944 58.4993ZM20.475 72.0933L22.8087 70.7565L15.989 66.8143L6.9944 61.6259L2.21387 58.8618V61.5353C2.23652 63.7103 2.667 64.5939 4.66078 65.7721L7.878 67.6299L7.99129 67.6979L8.39911 67.9471L8.60301 68.0604L8.80692 68.1737L9.01083 68.287L9.21474 68.4002L9.41865 68.5135L9.62256 68.6268L9.82647 68.7401L10.0304 68.8534L10.2343 68.9667L10.4382 69.0799L10.6421 69.1932L10.846 69.3065L11.0499 69.4198L11.2538 69.5331L11.4577 69.6464L11.6616 69.7596L11.8656 69.8729L12.0695 69.9862L12.2734 70.0995L12.4773 70.2128L12.6812 70.3261L12.8851 70.4393L13.089 70.5526L13.2929 70.6659L13.4968 70.7792L13.7007 70.8925L13.9046 71.0057L14.1086 71.119L14.3125 71.2323L14.5164 71.3456L14.7203 71.4589L14.9242 71.5722L15.1281 71.6854L15.332 71.7987L15.5359 71.912L15.7398 72.0253L15.9437 72.1386L16.1476 72.2519L16.3516 72.3651L16.5555 72.4784L16.7594 72.5917L16.9633 72.705L17.1672 72.8183L17.3711 72.9316L17.575 73.0448L17.7789 73.1581L20.475 72.0933Z" fill="white"/>
<path fill-rule="evenodd" clip-rule="evenodd" d="M22.8108 76.2674L20.4772 74.9307L18.0303 73.526L18.7779 73.0955L22.8335 70.7392L22.9241 70.6713L25.371 69.2665L27.8179 67.8618L30.2648 66.4571L30.6273 66.2532L42.9751 59.1391L43.6322 58.7539V61.586V64.2594L27.5913 73.5033L22.8108 76.2674ZM43.6322 72.8689L33.6406 78.6464L32.7797 79.1448C30.8539 80.255 29.8797 80.3229 27.8406 79.1675L25.5069 77.8307L30.2875 75.0666L43.6548 67.3634V70.0369L43.6322 72.8689Z" fill="white"/>
<path fill-rule="evenodd" clip-rule="evenodd" d="M50.8577 63.1722V51.2322V41.8071L48.5241 40.4703L48.2975 40.3344L46.0771 39.043V50.5751V54.0416V57.3041V60.1362V61.1331V68.1113V71.4645L50.8577 68.7004V63.1722ZM55.8874 44.7071L53.5538 43.3704V51.2548V61.6315V67.1371L55.8874 65.8004C57.7679 64.6902 58.3117 63.8745 58.3343 61.5636V57.8252V57.6893V57.2135V56.9643V56.7151V56.4659V56.2393V55.9901V55.7408V55.4916V55.2424V54.9932V54.744V54.4947V54.2455V53.9963V53.7471V53.4978V53.2486V52.9994V52.7502V52.501V52.3877V52.1611V51.9119V51.6627V51.4134V51.1642V50.915V50.6658V50.4166V50.1673V49.9181V49.6689V49.4197V49.1704V48.9212V48.672V48.4228V48.1736V47.9243V47.6751V47.4259V47.1767V46.9274V46.6782V46.429V46.1798V45.9306L55.8874 44.7071Z" fill="white"/>
<path fill-rule="evenodd" clip-rule="evenodd" d="M58.3353 40.6049V43.2784V46.1104L57.5876 45.68L53.5321 43.3463L53.4415 43.2784L50.9946 41.8737L48.5477 40.469L46.1008 39.0643L45.7383 38.8603L33.3904 31.7235L32.7334 31.3384L35.1803 29.9337L37.5139 28.5969L58.3353 40.6049ZM44.9679 24.2695L54.9595 30.0469L55.8431 30.5454C57.7689 31.6556 58.3126 32.4712 58.3353 34.8048V37.501L53.5548 34.7369L40.1874 27.0336L42.521 25.6969L44.9679 24.2695Z" fill="white"/>
<path fill-rule="evenodd" clip-rule="evenodd" d="M32.9823 22.864L22.6282 28.8227L14.4492 33.5353V36.2088V36.458V39.0182L24.4408 33.2634L27.4541 31.5188L30.2635 29.8876L32.7104 28.4829L33.5713 27.9844L39.598 24.4953L42.498 22.8187L37.7175 20.0546L32.9823 22.864ZM14.4719 27.7352V30.4087L21.2915 26.4664L30.2861 21.2781L35.0667 18.514L32.7331 17.1773C30.8299 16.0897 29.8557 16.0218 27.8392 17.1773L24.622 19.0351L24.5087 19.1031L24.1009 19.3523L23.897 19.4656L23.6931 19.5788L23.4892 19.6921L23.2853 19.8054L23.0814 19.9187L22.8775 20.032L22.6056 20.2132L22.4017 20.3265L22.1978 20.4398L21.9938 20.5531L21.7899 20.6664L21.586 20.7796L21.3821 20.8929L21.1782 21.0062L20.9743 21.1195L20.7704 21.2328L20.5665 21.3461L20.3626 21.4593L20.1587 21.5726L19.9548 21.6859L19.7508 21.7992L19.5469 21.9125L19.343 22.0258L19.1391 22.139L18.9352 22.2523L18.7313 22.3656L18.5274 22.4789L18.3235 22.5922L18.1196 22.7055L17.9157 22.8187L17.7118 22.932L17.5079 23.0453L17.3039 23.1586L17.1 23.2719L16.8961 23.3851L16.6922 23.4984L16.4883 23.6117L16.2844 23.725L16.0805 23.8383L15.8766 23.9516L15.6727 24.0648L15.4688 24.1781L15.2649 24.2914L15.0609 24.4047L14.857 24.518L14.6531 24.6313V27.7352H14.4719Z" fill="white"/>
<path fill-rule="evenodd" clip-rule="evenodd" d="M9.69053 27.6633L12.0242 26.3266L14.4711 24.9219V25.7828V30.4727V30.586V33.4181V36.2501V39.0822V39.49V53.741V54.5113L12.0242 53.1066L9.69053 51.7699V48.1675V33.2368V27.6633ZM2.21387 47.3972V35.8423V34.8454C2.21387 32.6251 2.64434 31.7415 4.66078 30.5634L6.9944 29.2266V34.7322V48.0995V50.1386L4.66078 48.8019L2.21387 47.3972Z" fill="white"/>
</svg>
