<svg width="25" height="21" viewBox="0 0 25 21" fill="none" xmlns="http://www.w3.org/2000/svg">
<path fill-rule="evenodd" clip-rule="evenodd" d="M24.7365 3.80325C24.8776 3.66214 24.8776 3.37991 24.8776 3.37991C24.0309 3.66214 23.1842 3.94437 22.4786 3.94437C22.8089 3.83427 23.2251 3.38058 23.5261 3.05242C23.611 2.95997 23.6866 2.87748 23.7487 2.81545C24.172 2.25099 24.4542 1.82765 24.5953 1.26319V1.12207H24.4542C23.4664 1.68653 22.4786 1.96876 21.4908 2.25099C21.4908 2.39211 21.3497 2.25099 21.3497 2.25099L21.0675 1.96876C20.9547 1.89361 20.842 1.80845 20.7266 1.72128C20.4087 1.48109 20.0705 1.22561 19.6563 1.12207C18.9508 0.839844 18.2452 0.839844 17.5396 0.839844C16.6929 0.839844 15.9873 1.12207 15.4229 1.4043C14.7173 1.82765 14.1529 2.25099 13.7295 2.81545C13.3062 3.37991 12.8828 4.08548 12.7417 4.79106C12.6006 5.49663 12.6006 6.2022 12.7417 6.90778C12.7417 7.04889 12.7417 7.04889 12.6006 7.04889C8.64938 6.48443 5.26262 5.07329 2.58144 1.96876C2.51089 1.8982 2.47561 1.86292 2.44033 1.86292C2.40505 1.86292 2.36977 1.8982 2.29921 1.96876C1.17029 3.66214 1.73475 6.48443 3.1459 7.89558C3.18863 7.93831 3.23135 7.99397 3.278 8.05474C3.38541 8.19466 3.51358 8.36165 3.71036 8.46004C3.56925 8.46004 2.58144 8.46004 1.45252 7.89558C1.38197 7.89558 1.34669 7.89558 1.32905 7.91322C1.31141 7.93086 1.31141 7.96614 1.31141 8.0367V8.60116C1.45252 10.4356 2.72256 11.9879 4.41593 12.6935C4.55705 12.6935 4.66289 12.7288 4.76872 12.764C4.87456 12.7993 4.98039 12.8346 5.12151 12.8346C5.0491 12.8346 4.96741 12.8439 4.8669 12.8553C4.57562 12.8884 4.12631 12.9395 3.28702 12.8346C3.21646 12.8346 3.18118 12.8346 3.16354 12.8522C3.1459 12.8699 3.1459 12.9052 3.1459 12.9757C3.99259 15.2336 5.68597 15.9391 7.09711 16.3625C7.23823 16.5036 7.52046 16.5036 7.66157 16.5036C7.31875 17.075 6.23561 17.4613 5.46129 17.7374C5.27942 17.8023 5.11459 17.8611 4.98039 17.9147C3.71036 18.4792 2.29921 18.6203 0.888065 18.4792H0.605836C0.464721 18.4792 0.464721 18.6203 0.605836 18.6203C0.888066 18.9025 1.1703 19.0436 1.45252 19.1848C1.68468 19.2843 1.90903 19.3838 2.12926 19.4814C2.8461 19.7993 3.51917 20.0978 4.27482 20.3137C9.21384 21.5837 14.8584 20.5959 18.5274 16.9269C21.4908 14.1046 22.4786 10.0123 22.4786 6.06109C22.4786 5.97388 22.5325 5.94056 22.607 5.89453C22.6531 5.86607 22.707 5.83276 22.7609 5.77886C23.6075 5.2144 24.172 4.50883 24.7365 3.80325Z" fill="#C4C4C4"/>
</svg>
