<svg width="24" height="26" viewBox="0 0 24 26" fill="none" xmlns="http://www.w3.org/2000/svg">
<g opacity="0.78">
<path d="M10.292 22.7642C10.292 23.3197 9.86463 23.7471 9.30908 23.7471C8.75352 23.7471 8.32617 23.3197 8.32617 22.7642C8.32617 22.2086 8.75352 21.7812 9.30908 21.7812C9.86463 21.7812 10.292 22.2086 10.292 22.7642Z" fill="#E5E5E5"/>
<path d="M16.4463 22.7642C16.4463 23.3197 16.0189 23.7471 15.4634 23.7471C14.9078 23.7471 14.4805 23.3197 14.4805 22.7642C14.4805 22.2086 14.9078 21.7812 15.4634 21.7812C16.0189 21.7812 16.4463 22.2086 16.4463 22.7642Z" fill="#E5E5E5"/>
<path d="M6.66313 3.89302L6.61035 4.74609L7.46343 4.79887L7.5162 3.94579L6.66313 3.89302Z" fill="#E5E5E5"/>
<path d="M21.5318 13.7051C21.4463 13.5769 21.4036 13.4915 21.3181 13.3632C21.2326 13.235 21.1472 13.1068 21.019 13.0214C20.9762 12.9786 20.9762 12.9359 20.9335 12.8932C20.848 12.8077 20.7625 12.6795 20.6771 12.594C20.6343 12.5085 20.5489 12.4658 20.4634 12.3803C20.3779 12.2949 20.2925 12.2094 20.2497 12.1239L20.207 12.0812C20.1643 12.0385 20.0788 11.953 20.036 11.9103C19.9506 11.8248 19.8651 11.7393 19.7369 11.6111C19.0104 10.9274 18.1984 10.3718 17.3437 9.90171H17.301C17.0873 9.7735 16.8737 9.68803 16.66 9.60256C16.3608 9.47436 16.019 9.34616 15.7198 9.21795C15.6771 9.21795 15.6771 9.21795 15.6343 9.17521C15.6343 9.13248 15.6771 9.13248 15.6771 9.08974C16.1044 7.97863 16.0617 6.78205 15.5489 5.71368C15.036 4.6453 14.1386 3.83333 13.0275 3.44872C12.3437 3.23504 11.7455 3.10684 11.2326 3.14957C11.1899 3.02137 11.1472 2.55128 11.7455 1.2265L10.5061 0.5L10.207 0.92735C9.86511 1.39744 9.56596 1.86752 9.22408 2.29487C8.8822 1.95299 8.41212 1.73932 7.94203 1.69658L6.48904 1.61111C6.44631 1.61111 6.40357 1.61111 6.36084 1.61111C5.33519 1.61111 4.48049 2.42308 4.39502 3.44872L4.30955 4.90171C4.26682 5.97009 5.07878 6.91026 6.14716 6.95299L7.1728 7.03846C7.08733 7.89316 7.25827 8.74786 7.60015 9.43162C6.1899 10.0299 4.90784 10.8846 3.79673 12.0385C0.377929 15.5 0.37793 19.3034 0.37793 22.3803V24.2179L1.74545 22.765C2.00186 23.7051 2.38648 24.6453 2.94203 25.5H4.69417C3.79673 24.3034 3.19844 22.9359 2.94203 21.4829L4.90784 19.3889L3.8822 22.594L5.67707 21.2692C8.8822 18.9615 12.6856 18.406 17.0446 19.688C18.9249 20.2436 20.7625 19.7308 21.7027 18.3632C21.7454 18.3205 21.7882 18.2778 21.7882 18.1923C21.8737 18.7051 21.9591 19.2179 21.9591 19.7308C21.9591 21.3547 21.7027 23.5769 20.5061 25.4573H22.2155C23.0275 23.8333 23.4549 21.8675 23.4549 19.7308C23.4549 17.6795 22.7711 15.5427 21.5318 13.7051ZM10.036 4.00427C10.2925 4.43162 10.7625 4.6453 11.2754 4.6453C11.489 4.6453 11.9164 4.68803 12.5574 4.90171C13.2839 5.15812 13.8822 5.67094 14.2241 6.39744C14.566 7.12393 14.6087 7.89316 14.3096 8.61966C14.1386 9.08974 13.8395 9.47436 13.4549 9.7735L13.0275 9.26068C12.7284 8.9188 12.301 8.70513 11.8309 8.70513C11.489 8.70513 11.1472 8.83333 10.848 9.04701C10.5061 9.34615 10.3352 9.73077 10.2925 10.1581C9.05314 9.60256 8.41212 8.44872 8.58306 6.99573C8.71126 5.97009 9.18135 4.94444 9.86511 3.9188C9.99331 3.9188 10.036 3.96154 10.036 4.00427ZM13.1557 12.2949L12.6002 12.7222C12.5574 12.765 12.5147 12.765 12.4292 12.765C12.3437 12.765 12.301 12.7222 12.2583 12.6795L12.1728 12.5513C12.0873 12.4658 12.0873 12.2949 12.2155 12.2094L12.7711 11.7821L11.66 10.4145C11.5318 10.2863 11.5745 10.0726 11.7027 9.94444C11.7455 9.90171 11.8309 9.85898 11.9164 9.85898C12.0019 9.85898 12.0873 9.90171 12.1728 9.98718L15.2497 13.7906C15.3779 13.9188 15.3352 14.1325 15.207 14.2607C15.1643 14.3034 15.1215 14.3034 15.0788 14.3462C15.036 14.3462 15.036 14.3462 14.9933 14.3462C14.9078 14.3462 14.8224 14.3034 14.7369 14.2179L14.4378 13.8333L13.3266 14.7308C13.2839 14.7735 13.2412 14.7735 13.1557 14.7735C13.0702 14.7735 13.0275 14.7308 12.942 14.688L12.4292 14.0897C12.3437 14.0043 12.3437 13.8333 12.4719 13.7479L13.5831 12.8504L13.1557 12.2949ZM10.4634 10.7137C10.4634 10.6709 10.4634 10.6709 10.4207 10.6282C10.4634 10.6709 10.4634 10.7137 10.4634 10.7137ZM5.80528 4.98718L5.89075 3.53419C5.89075 3.27778 6.10443 3.0641 6.36084 3.0641C6.36084 3.0641 6.36084 3.0641 6.40357 3.0641L7.85656 3.14957C8.11297 3.14957 8.32665 3.40598 8.32665 3.66239V3.74786C7.98477 4.34615 7.72836 4.94444 7.51468 5.54274L6.27537 5.45726C5.97622 5.5 5.76255 5.24359 5.80528 4.98718ZM20.5489 17.5513C19.9506 18.406 18.7967 18.6624 17.5147 18.2778C13.4549 17.0812 9.82237 17.3376 6.61725 19.0043L8.32665 13.6624L1.91639 20.5C2.00186 18.0641 2.51468 15.4573 4.90784 13.0641C5.97622 11.9957 7.21554 11.1838 8.58306 10.6709C9.13861 11.1838 9.77964 11.5256 10.5916 11.7821C10.7625 11.8248 10.9335 11.8675 11.1044 11.8675C10.8908 12.3376 10.9762 12.8932 11.3181 13.3205L11.4036 13.406C11.2326 13.8761 11.2754 14.4316 11.6172 14.859L12.1301 15.4573C12.3865 15.7991 12.8138 16.0128 13.2412 15.9701C13.5831 15.9701 13.8822 15.8419 14.1386 15.6282L14.4378 15.3718C14.6087 15.4573 14.8224 15.5 15.036 15.5C15.1643 15.5 15.2497 15.5 15.3779 15.4573C15.5916 15.4145 15.8053 15.2863 16.019 15.1581C16.66 14.6453 16.7455 13.6624 16.2326 13.0214L13.9677 10.2436L14.4977 10.8936C14.6686 10.7654 14.8224 10.6282 14.9506 10.4573C15.1643 10.5 15.3352 10.5855 15.5489 10.6282C15.5916 10.6282 15.6313 10.6488 15.7198 10.6709C15.8907 10.7137 16.0617 10.7991 16.1899 10.8846C16.1899 10.8846 16.1899 10.8846 16.2326 10.8846C16.4036 10.9701 16.5745 11.0556 16.7455 11.141C16.7882 11.1838 16.8737 11.2265 16.9164 11.2265C17.0446 11.312 17.1728 11.3547 17.301 11.4402C17.3865 11.4829 17.4292 11.5256 17.5147 11.5684C17.6002 11.6538 17.7284 11.6966 17.8138 11.7821C17.8993 11.8675 17.9848 11.9103 18.0702 11.9957C18.1557 12.0385 18.2412 12.1239 18.2839 12.1667C18.4121 12.2521 18.5403 12.3803 18.6685 12.4658C18.7113 12.5085 18.754 12.5085 18.7967 12.5513C18.9677 12.6795 19.0959 12.8504 19.2668 12.9786C19.6942 13.406 20.036 13.8333 20.3779 14.3462C21.019 15.5855 21.1044 16.7393 20.5489 17.5513Z" fill="#E5E5E5"/>
</g>
</svg>
