<svg width="25" height="18" viewBox="0 0 25 18" fill="none" xmlns="http://www.w3.org/2000/svg">
<path opacity="0.8" d="M15.7749 0.25019L15.486 0.577586C18.9776 1.63962 20.599 3.17279 20.599 3.17279C15.7187 0.513703 9.98763 0.513704 5.25184 2.58188C4.4893 2.93324 4.0398 3.17279 4.0398 3.17279C4.0398 3.17279 5.74147 1.55977 9.44181 0.497733L9.23311 0.25019C9.23311 0.25019 6.41572 0.186308 3.46187 2.39822C3.46187 2.39822 0.5 7.73237 0.5 14.3122C0.5 14.3122 2.22575 17.2748 6.7689 17.4185C6.7689 17.4185 7.53144 16.5002 8.1495 15.7256C5.5408 14.951 4.55351 13.3141 4.55351 13.3141C4.85853 13.5217 5.35619 13.8012 5.39632 13.8251C8.86388 15.7576 13.7923 16.3884 18.2151 14.5438C18.9375 14.2803 19.7321 13.889 20.5749 13.338C20.5749 13.338 19.5475 15.0149 16.8585 15.7735C17.4766 16.5481 18.2151 17.4265 18.2151 17.4265C22.7582 17.2827 24.5 14.3202 24.5 14.3202C24.5 7.74036 21.5381 2.40621 21.5381 2.40621C18.5923 0.186309 15.7749 0.25019 15.7749 0.25019ZM8.67124 12.4117C7.52341 12.4117 6.57625 11.3896 6.57625 10.1439C6.57625 8.89822 7.49933 7.87611 8.67124 7.87611C9.84314 7.87611 10.7903 8.89822 10.7662 10.1439C10.7662 11.3896 9.84314 12.4117 8.67124 12.4117ZM16.1682 12.4117C15.0204 12.4117 14.0732 11.3896 14.0732 10.1439C14.0732 8.89822 14.9963 7.87611 16.1682 7.87611C17.3401 7.87611 18.2632 8.89822 18.2632 10.1439C18.2632 11.3896 17.3401 12.4117 16.1682 12.4117Z" fill="#F3F3F3"/>
</svg>
