<svg width="21" height="15" viewBox="0 0 21 15" fill="none" xmlns="http://www.w3.org/2000/svg">
<path opacity="0.8" d="M12.8775 0.597815L12.6367 0.870644C15.5464 1.75568 16.8976 3.03332 16.8976 3.03332C12.8307 0.817409 8.05479 0.817409 4.1083 2.54089C3.47285 2.83369 3.09827 3.03332 3.09827 3.03332C3.09827 3.03332 4.51633 1.68913 7.59994 0.804101L7.42603 0.597815C7.42603 0.597815 5.0782 0.54458 2.61667 2.38784C2.61667 2.38784 0.148438 6.83297 0.148438 12.3162C0.148438 12.3162 1.58656 14.7849 5.37252 14.9047C5.37252 14.9047 6.00797 14.1395 6.52302 13.494C4.34911 12.8485 3.52636 11.4844 3.52636 11.4844C3.78054 11.6574 4.19526 11.8903 4.2287 11.9103C7.11834 13.5206 11.2254 14.0463 14.911 12.5092C15.513 12.2896 16.1752 11.9635 16.8775 11.5043C16.8775 11.5043 16.0213 12.9018 13.7805 13.5339C14.2956 14.1794 14.911 14.9114 14.911 14.9114C18.6969 14.7916 20.1484 12.3228 20.1484 12.3228C20.1484 6.83962 17.6802 2.3945 17.6802 2.3945C15.2254 0.54458 12.8775 0.597815 12.8775 0.597815ZM6.9578 10.7324C6.00128 10.7324 5.21198 9.88067 5.21198 8.84259C5.21198 7.80451 5.98121 6.95275 6.9578 6.95275C7.93439 6.95275 8.72369 7.80451 8.70362 8.84259C8.70362 9.88067 7.93439 10.7324 6.9578 10.7324ZM13.2053 10.7324C12.2488 10.7324 11.4595 9.88067 11.4595 8.84259C11.4595 7.80451 12.2287 6.95275 13.2053 6.95275C14.1819 6.95275 14.9511 7.80451 14.9511 8.84259C14.9511 9.88067 14.1819 10.7324 13.2053 10.7324Z" fill="#F3F3F3"/>
</svg>
