<svg width="202" height="97" viewBox="0 0 202 97" fill="none" xmlns="http://www.w3.org/2000/svg">
<path d="M104.346 41.1713H96.0244V41.4314V41.6914C96.6962 42.4282 98.6465 42.1465 98.6465 43.6851C98.6465 45.2236 98.6465 52.3097 98.6465 52.3097V60.9128C98.6465 61.0428 98.6465 61.1728 98.6248 61.3028C98.3648 63.2965 96.0461 63.2314 96.0461 63.2314V63.6649H98.6682H101.442H104.692V63.0364C104.606 63.0364 101.55 63.6215 101.442 60.9994V52.9598H104.367C104.497 52.9598 105.863 52.9598 107.445 52.4614C109.633 51.8113 112.212 50.2728 112.212 46.5888C112.169 40.8463 104.346 41.1713 104.346 41.1713ZM109.438 47.1956C109.438 49.731 108.376 51.0962 107.184 51.7246C106.729 51.9413 102.981 53.5233 101.42 51.573V41.7131H104.172H104.562C109.612 41.7348 109.438 46.6972 109.438 47.1956Z" fill="white"/>
<path d="M198.676 55.1258C197.744 53.3705 195.967 51.7019 193.41 50.3151C186.995 46.9129 189.639 43.0122 189.639 43.0122C189.921 42.5788 190.268 42.1888 190.701 41.8637C191.654 41.1269 192.976 41.1486 194.081 41.517C194.515 41.6687 194.97 41.7987 195.36 42.1238C195.642 42.4055 195.967 42.7305 196.183 43.0556C196.639 43.7274 196.964 44.4641 197.202 45.2443C197.419 45.916 197.57 46.6528 197.635 47.3463H198.264V44.4425L198.329 40.8236H197.765L197.7 41.257C197.635 41.5387 197.527 41.7987 197.375 42.0371C196.985 42.6222 196.314 42.1021 195.88 41.8204C195.273 41.387 194.71 41.0836 193.995 40.8886C193.561 40.7369 193.063 40.6719 192.608 40.6719H192.543C192.283 40.6719 192.044 40.6719 191.784 40.7152C191.026 40.7802 190.289 40.9969 189.617 41.322C188.686 41.8204 187.906 42.6005 187.45 43.619C187.017 44.5942 186.909 45.6993 186.995 46.7828C186.995 46.7828 186.995 48.083 187.819 49.5349C188.274 50.4234 189.032 51.3986 190.289 52.1787C192.608 53.6089 195.23 55.3425 196.357 57.3145C196.357 57.3145 196.357 57.3145 196.357 57.3362C196.769 58.0946 196.985 58.8747 196.877 59.7199C196.617 61.5185 195.728 63.1871 193.995 63.5555C193.388 63.7072 192.781 63.7072 192.153 63.5988L191.329 63.3821C190.874 63.1871 190.506 63.0571 190.159 62.7103C189.834 62.4286 189.552 62.1253 189.314 61.7785C188.859 61.1284 188.534 60.4133 188.252 59.6765C187.927 58.658 187.71 57.5962 187.689 56.556V56.3393H187.017L187.06 60.3266L186.995 64.0106H187.559C187.559 63.8589 187.602 63.6855 187.624 63.5338C187.689 63.2521 187.841 62.8837 188.014 62.667C188.274 62.4286 188.577 62.472 188.837 62.6237C189.162 62.7754 189.444 63.0137 189.726 63.2304C190.008 63.4255 190.333 63.5555 190.658 63.7072C191.286 63.9889 191.936 64.1406 192.63 64.2056C193.28 64.2706 193.973 64.2489 194.623 64.0972C195.577 63.9455 196.53 63.5988 197.332 62.9921C198.394 62.2119 199.087 61.0418 199.369 59.6765C199.477 59.1348 199.499 58.6147 199.499 58.073C199.521 57.0761 199.217 56.0793 198.676 55.1258Z" fill="white"/>
<path d="M157.201 63.0803H153.951C153.886 63.0803 151.632 63.232 151.372 61.4117C151.35 61.325 151.35 61.195 151.35 61.0867V43.924C151.35 43.7939 151.35 43.6639 151.372 43.5339C151.74 41.5403 154.601 41.6053 154.601 41.6053V41.1719H145.933V41.6053C145.933 41.6053 148.013 41.5186 148.49 43.2089C148.555 43.4256 148.576 43.6423 148.576 43.8373V61.0867C148.446 63.3837 145.933 63.2753 145.933 63.2753V63.7087H162.229V57.0344H161.47C161.47 59.8515 160.863 63.0803 157.201 63.0803Z" fill="white"/>
<path d="M175.944 61.0867V43.859C175.944 43.6639 175.965 43.4906 176.009 43.2955C176.442 41.4969 178.566 41.6053 178.566 41.6053V41.1719H170.569V41.6053C170.569 41.6053 172.693 41.5186 173.126 43.2955C173.148 43.4906 173.191 43.6639 173.191 43.859V61.0433C173.191 61.2383 173.17 61.4334 173.105 61.6718C172.65 63.362 170.591 63.2753 170.591 63.2753V63.7087H178.587V63.2753C178.587 63.2753 176.074 63.3837 175.944 61.0867Z" fill="white"/>
<path d="M129.202 40.6719C123.654 40.6719 119.19 45.9377 119.19 52.4387C119.19 58.9397 123.676 64.2056 129.224 64.2056C134.771 64.2056 139.257 58.9181 139.257 52.4387C139.257 45.916 134.75 40.6719 129.202 40.6719ZM129.202 63.4038C125.258 63.4038 122.073 58.4196 122.073 52.2654C122.073 46.1111 125.28 41.1269 129.202 41.1269C133.189 41.1269 136.375 46.1111 136.375 52.2654C136.396 58.4196 133.189 63.4038 129.202 63.4038Z" fill="white"/>
<path d="M79.5125 40.6719C73.965 40.6719 69.501 45.9377 69.501 52.4387C69.501 58.9397 73.9867 64.2056 79.5342 64.2056C85.0817 64.2056 89.5674 58.9181 89.5674 52.4387C89.5674 45.916 85.0601 40.6719 79.5125 40.6719ZM79.5125 63.4038C75.5686 63.4038 72.3831 58.4196 72.3831 52.2654C72.3831 46.1111 75.5903 41.1269 79.5125 41.1269C83.4998 41.1269 86.6853 46.1111 86.6853 52.2654C86.707 58.4196 83.4998 63.4038 79.5125 63.4038Z" fill="white"/>
<path d="M25.501 20.6719C12.7839 20.6719 2.50098 32.9785 2.50098 48.1719C2.50098 63.3653 12.7839 75.6719 25.501 75.6719C38.218 75.6719 48.501 63.3146 48.501 48.1719C48.4513 32.9279 38.1684 20.6719 25.501 20.6719ZM25.501 73.798C16.609 73.798 9.35627 62.5549 9.15756 48.5264L35.5355 68.4297C32.7537 71.8229 29.2267 73.798 25.501 73.798ZM36.8768 66.5559L9.15756 45.6397C9.85303 32.2695 16.8573 21.8367 25.4513 21.8367C34.5917 21.8367 41.8941 33.485 41.8941 47.868C41.8941 55.1608 40.0064 61.7953 36.8768 66.5559Z" fill="white"/>
</svg>
