<svg width="162" height="97" viewBox="0 0 162 97" fill="none" xmlns="http://www.w3.org/2000/svg">
<path d="M82.2992 47.1342H87.1178L92.2053 55.1502L97.3548 47.1342L101.884 47.2406L94.418 58.2333L102.215 69.9064H97.458L91.957 61.3587L86.6216 69.9064H81.9062L89.7029 58.2333L82.2992 47.1342ZM113.863 66.2918C115.256 66.2918 116.4 66.143 117.296 65.8451C118.896 65.2924 120.205 64.2294 121.226 62.6557C122.039 61.3944 122.625 59.7784 122.984 57.808C123.19 56.6315 123.294 55.54 123.294 54.5336C123.294 50.6638 122.542 48.6587 121.04 46.5183C119.551 44.3778 117.145 43.3077 113.822 43.3077H109.522V66.2918H113.863ZM105.386 39.6717H114.691C118.868 39.6717 122.108 41.1956 124.41 44.2432C126.465 46.9932 127.492 49.5156 127.492 53.8106C127.492 57.1276 126.885 60.1256 125.672 62.8048C123.535 67.5392 119.861 69.9064 114.649 69.9064H105.386V39.6717ZM133.282 63.8466C133.282 64.9522 133.675 65.824 134.461 66.4617C135.247 67.0998 136.178 67.4185 137.253 67.4185C138.563 67.4185 139.831 67.1068 141.058 66.4832C143.126 65.4484 144.16 63.7544 144.16 61.4014V58.3183C143.705 58.616 143.119 58.8639 142.402 59.0626C141.685 59.261 140.982 59.4028 140.293 59.4878L138.039 59.7854C136.688 59.9698 135.674 60.2604 134.999 60.6572C133.854 61.3234 133.282 62.3866 133.282 63.8466ZM142.299 56.107C143.154 55.9936 143.726 55.6251 144.015 55.0014C144.181 54.6612 144.264 54.1721 144.264 53.5343C144.264 52.2302 143.809 51.2875 142.899 50.7063C142.002 50.111 140.713 49.8133 139.031 49.8133C137.087 49.8133 135.709 50.3519 134.895 51.4292C134.44 52.0246 134.144 52.9106 134.006 54.0871H130.532C130.601 51.2804 131.483 49.3314 133.179 48.2399C134.888 47.1342 136.867 46.5814 139.114 46.5814C141.72 46.5814 143.836 47.0917 145.463 48.1123C147.076 49.1329 147.882 50.7205 147.882 52.8751V65.9939C147.882 66.391 147.958 66.71 148.11 66.951C148.275 67.1917 148.613 67.3124 149.123 67.3124C149.289 67.3124 149.475 67.3051 149.682 67.2912C149.889 67.2628 150.109 67.2274 150.344 67.1848V70.0128C149.765 70.1828 149.323 70.2892 149.02 70.3316C148.717 70.3742 148.303 70.3954 147.779 70.3954C146.497 70.3954 145.566 69.9275 144.987 68.9922C144.684 68.496 144.47 67.7944 144.346 66.8872C143.588 67.9078 142.499 68.7935 141.079 69.545C139.659 70.2962 138.094 70.6718 136.384 70.6718C134.33 70.6718 132.648 70.034 131.338 68.7582C130.042 67.4684 129.394 65.8594 129.394 63.9316C129.394 61.8196 130.035 60.1824 131.317 59.02C132.6 57.8576 134.282 57.1418 136.363 56.8725L142.299 56.107ZM153.122 47.2406H156.906V69.9064H153.122V47.2406ZM153.406 39.6754C154.435 38.775 155.878 38.7749 156.906 39.6752C158.081 40.7036 158.081 42.6445 156.906 43.6729C155.878 44.5732 154.435 44.5733 153.406 43.6729C152.232 42.6445 152.232 40.7038 153.406 39.6754Z" fill="white"/>
<path fill-rule="evenodd" clip-rule="evenodd" d="M26.8925 76.1392V64.9522H15.3879V53.7653H4.40625V76.6719H26.8925V76.1392ZM60.8833 53.7653H49.9017V64.9522H38.92V76.1392H61.4062V53.7653H60.8833ZM38.3971 30.8588H60.8833V19.6719H38.3971V30.8588ZM4.40625 30.8588H26.8925V19.6719H4.40625V30.8588Z" fill="white"/>
</svg>
