<svg width="136" height="137" viewBox="0 0 136 137" fill="none" xmlns="http://www.w3.org/2000/svg">
<path d="M67.6092 136.172C104.949 136.172 135.218 105.727 135.218 68.1719C135.218 30.6165 104.949 0.171875 67.6092 0.171875C30.2697 0.171875 0 30.6165 0 68.1719C0 105.727 30.2697 136.172 67.6092 136.172Z" fill="url(#paint0_radial)"/>
<path d="M21.0977 65.2188C21.4683 48.525 27.0538 35.745 38.172 25.5211C38.8073 24.9353 39.4956 23.7372 40.581 24.5892C41.6663 25.4412 40.7133 26.3731 40.2898 27.1984C36.3719 35.106 34.5718 43.4662 34.9689 52.2525C36.0807 76.6142 53.5522 95.5712 75.2591 99.9909C86.8274 102.334 97.8926 100.87 108.455 95.5712C108.64 95.4647 108.852 95.3049 109.037 95.2783C109.646 95.2517 110.414 95.0653 110.784 95.3848C111.499 95.9705 110.943 96.6362 110.467 97.1953C103.981 104.65 96.0925 109.895 86.6685 112.771C58.3436 121.424 28.5363 103.718 22.3948 74.5641C21.6536 70.9964 21.3888 67.3222 21.0977 65.2188Z" fill="white"/>
<path d="M73.8037 79.0654C65.4916 79.0654 59.6678 74.9119 57.5765 68.6285C55.4323 62.2385 57.4971 55.3693 62.8973 51.2956C67.5299 47.8078 72.8243 45.5447 78.2246 43.7075C83.5189 41.8704 88.9721 40.4061 94.3724 38.9151C96.7549 38.2494 97.2049 38.8086 96.7019 41.2847C95.2195 48.5533 92.9429 55.5823 89.9781 62.345C88.5221 65.6997 86.8544 69.0012 84.9219 72.0897C81.9836 76.7224 77.5892 78.9589 73.8037 79.0654Z" fill="white"/>
<defs>
<radialGradient id="paint0_radial" cx="0" cy="0" r="1" gradientUnits="userSpaceOnUse" gradientTransform="translate(67.6092 68.1719) rotate(90) scale(68 67.6092)">
<stop stop-color="#1048A5"/>
<stop offset="1" stop-color="#135AB8"/>
</radialGradient>
</defs>
</svg>
