<svg width="84" height="41" viewBox="0 0 84 41" fill="none" xmlns="http://www.w3.org/2000/svg">
<path d="M20.5963 32.9787C13.8771 33.0172 7.98112 27.5317 8.00005 20.1441C8.01897 13.0832 13.4796 7.35759 20.6153 7.3672C27.7415 7.37681 33.2021 13.0544 33.2116 20.1634C33.221 27.599 27.2872 33.0172 20.5963 32.9787ZM17.7288 19.683C17.9559 19.683 18.1358 19.683 18.325 19.683C19.1294 19.6734 19.9244 19.6638 20.7288 19.6638C21.7509 19.6734 22.773 19.7887 23.7762 19.683C24.9118 19.5581 25.9055 19.0586 26.3408 17.8577C26.833 16.4744 26.1705 15.0334 24.7036 14.4474C22.9812 13.7557 21.3913 14.1303 19.9717 15.2735C18.59 16.3879 17.9276 17.8866 17.7288 19.683ZM19.3282 20.538C18.2966 20.5284 17.3029 20.6437 16.4417 21.2585C15.2588 22.1135 15.1168 23.7082 16.1389 24.765C17.0663 25.716 18.2209 25.937 19.4512 25.7064C21.7509 25.2741 23.4449 23.372 23.7478 21.0184C23.7856 20.7013 23.7099 20.5957 23.3598 20.6341C22.8203 20.7109 22.262 20.759 21.7225 20.7398C20.9276 20.7109 20.1326 20.6149 19.3282 20.538Z" fill="white"/>
<path d="M55.1913 24.4007C55.1711 24.1474 55.1508 23.9549 55.1305 23.7421C53.7019 24.9275 52.1213 24.8769 50.9966 23.6205C49.8315 22.3337 49.9024 20.0236 51.1182 18.8078C52.0099 17.9263 53.7728 17.4501 55.1305 18.8685C55.1508 18.6254 55.1711 18.4126 55.1913 18.1694C55.8296 18.1694 56.468 18.1694 57.1468 18.1694C57.1468 20.2465 57.1468 22.3135 57.1468 24.4108C56.4882 24.4007 55.86 24.4007 55.1913 24.4007ZM52.1618 21.2597C52.1416 22.1919 52.7698 22.891 53.631 22.9011C54.4922 22.9112 55.1407 22.2324 55.1508 21.3002C55.1609 20.4086 54.5327 19.7095 53.7019 19.6791C52.8407 19.6487 52.1821 20.3276 52.1618 21.2597Z" fill="white"/>
<path d="M69.3424 24.3976C68.694 24.3976 68.0658 24.3976 67.397 24.3976C67.3869 24.1747 67.3667 23.9721 67.3464 23.6681C66.7283 24.4078 65.9786 24.6408 65.1275 24.6003C63.9521 24.5496 63.1314 23.8302 63.0909 22.6448C63.0402 21.1655 63.0808 19.6761 63.0808 18.1562C63.6988 18.1562 64.327 18.1562 65.0261 18.1562C65.0261 19.1289 65.016 20.1016 65.0261 21.0743C65.0261 21.4087 65.0464 21.7531 65.1275 22.0774C65.2288 22.5434 65.5023 22.8575 66.0292 22.8879C66.6067 22.9183 67.0323 22.7258 67.1944 22.2091C67.316 21.8342 67.3464 21.4188 67.3565 21.0236C67.3768 20.0813 67.3667 19.1391 67.3667 18.1562C68.0354 18.1562 68.6636 18.1562 69.3323 18.1562C69.3424 20.2232 69.3424 22.3003 69.3424 24.3976Z" fill="white"/>
<path d="M70.2412 22.3647C70.3729 22.3546 70.454 22.3343 70.535 22.3343C71.0619 22.3343 71.5786 22.3343 72.0954 22.3343C72.45 23.155 72.8857 23.4387 73.5341 23.2158C73.7165 23.155 73.9698 22.9321 73.98 22.77C73.9901 22.5775 73.8178 22.2836 73.6355 22.1925C73.1694 21.9695 72.6526 21.8378 72.1663 21.6656C71.8927 21.5744 71.6192 21.4832 71.3659 21.3616C70.7681 21.0779 70.3932 20.6321 70.3831 19.9533C70.3729 19.2541 70.6262 18.6665 71.2544 18.3625C72.4601 17.7749 73.7064 17.7647 74.9121 18.3625C75.5707 18.6867 75.8645 19.2845 75.8848 20.0445C75.2465 20.0445 74.6284 20.0445 74.0002 20.0445C73.6456 19.3251 73.3112 19.1022 72.7742 19.3352C72.602 19.4061 72.3993 19.6189 72.3892 19.781C72.3791 19.9431 72.5513 20.1964 72.7033 20.2674C73.1491 20.47 73.6152 20.6017 74.0813 20.7638C74.3852 20.8651 74.6892 20.9665 74.983 21.0982C75.591 21.3616 75.9557 21.8176 75.9962 22.4863C76.0368 23.1955 75.7632 23.7731 75.1553 24.1682C74.1623 24.8167 72.0549 24.7863 71.0822 24.1074C70.4945 23.692 70.2513 23.1145 70.2412 22.3647Z" fill="white"/>
<path d="M44.7683 20.083C44.3428 20.083 43.9578 20.0729 43.5727 20.083C43.1776 20.0931 42.8534 20.1235 42.6912 19.6068C42.5494 19.161 41.6679 19.1407 41.3842 19.5156C41.1512 19.8297 41.2525 20.1134 41.597 20.2553C42.0631 20.4478 42.5494 20.5896 43.0256 20.7619C43.3397 20.8733 43.6639 20.9848 43.9679 21.1165C44.5454 21.3799 44.8899 21.8257 44.9203 22.4944C44.9507 23.2138 44.7075 23.8218 44.0692 24.1561C42.752 24.835 41.4045 24.8248 40.0873 24.1358C39.449 23.8015 39.1855 23.1936 39.1855 22.3627C39.8036 22.3627 40.4115 22.3627 41.0296 22.3627C41.3639 23.1328 41.749 23.4063 42.3569 23.2341C42.5798 23.1733 42.8736 22.9504 42.904 22.7579C42.9344 22.5856 42.7014 22.2513 42.5089 22.1702C41.8604 21.8967 41.1714 21.7143 40.5128 21.461C39.5908 21.1165 39.2362 20.5592 39.3173 19.6473C39.3983 18.857 39.8847 18.4011 40.5838 18.168C41.5058 17.8641 42.4481 17.8539 43.3701 18.1478C44.3023 18.4517 44.7987 19.1306 44.7683 20.083Z" fill="white"/>
<path d="M46.018 19.6209C45.7241 19.6209 45.4404 19.6209 45.1162 19.6209C45.1162 19.1143 45.1162 18.6381 45.1162 18.1315C45.4202 18.1214 45.714 18.1011 46.0585 18.091C46.0585 17.4831 46.0585 16.9055 46.0585 16.2773C46.7272 16.2773 47.3655 16.2773 48.0646 16.2773C48.0646 16.8751 48.0646 17.4729 48.0646 18.1011C48.5713 18.1011 48.9968 18.1011 49.473 18.1011C49.473 18.6077 49.473 19.0637 49.473 19.5905C49.0373 19.5905 48.5915 19.5905 48.1052 19.5905C48.1052 20.543 48.0849 21.4346 48.1153 22.3161C48.1254 22.7112 48.4091 22.9139 48.7942 22.9341C49.0576 22.9544 49.321 22.9341 49.5946 22.9341C49.6149 23.0051 49.6351 23.0456 49.6351 23.0962C49.5946 24.7072 49.9796 24.4742 48.2876 24.5147C46.7069 24.5451 46.0889 23.9068 46.0686 22.3161C46.0585 21.4751 46.0686 20.624 46.0585 19.783C46.0686 19.7628 46.0484 19.7324 46.018 19.6209Z" fill="white"/>
<path d="M60.6173 18.1315C61.134 18.1315 61.5595 18.1315 62.0155 18.1315C62.0155 18.628 62.0155 19.0941 62.0155 19.6108C61.5595 19.6108 61.1239 19.6108 60.6679 19.6108C60.6679 20.5531 60.6477 21.4548 60.6781 22.3566C60.6882 22.7518 60.9921 22.9341 61.3772 22.9443C61.6305 22.9544 61.8838 22.9443 62.2181 22.9443C62.2181 23.3597 62.2384 23.7954 62.1979 24.2209C62.1877 24.3222 61.9851 24.4742 61.8736 24.4843C61.286 24.5147 60.6882 24.535 60.1107 24.4843C59.3305 24.4134 58.753 23.8055 58.6922 22.9544C58.6314 22.083 58.6516 21.2015 58.6314 20.3302C58.6314 20.1174 58.6314 19.9046 58.6314 19.6412C58.297 19.6412 58.0133 19.6412 57.6992 19.6412C57.6992 19.1245 57.6992 18.6483 57.6992 18.1315C57.993 18.1315 58.2666 18.1315 58.6212 18.1315C58.6212 17.5033 58.6212 16.9055 58.6212 16.2773C59.3204 16.2773 59.9485 16.2773 60.6274 16.2773C60.6173 16.8853 60.6173 17.4729 60.6173 18.1315Z" fill="white"/>
</svg>
