<svg width="196" height="97" viewBox="0 0 196 97" fill="none" xmlns="http://www.w3.org/2000/svg">
<path d="M2.78711 55.4219L20.7871 26.4219V69.9219L2.78711 55.4219Z" fill="white"/>
<path d="M57.7871 47.4219H34.2871L39.2871 55.4219L21.2871 69.9219L57.7871 47.4219Z" fill="white"/>
<path d="M68.9688 31.4156V63.4557H80.9589V59.062H74.0429V31.4156H68.9688ZM193.406 42.8585V37.5495C193.406 33.6585 190.846 31.1406 186.221 31.1406C181.596 31.1406 179.036 33.7038 179.036 37.5495V57.3223C179.036 61.1671 181.596 63.7312 186.221 63.7312C190.846 63.7312 193.406 61.2133 193.406 57.3223V47.4817H186.31V51.8754H188.466V57.3223C188.466 58.5586 187.523 59.1991 186.221 59.1991C184.828 59.1991 184.156 58.5586 184.156 57.3223V37.5495C183.796 35.0317 188.6 35.1232 188.466 37.5495V42.8585H193.406ZM171.043 40.8444C171.043 43.3165 171.088 46.0166 171.177 48.9456L166.507 31.4155H160.984V63.4561H165.609V54.0271C165.609 51.4181 165.564 48.6255 165.475 45.6045L170.279 63.4561H175.668V31.4155H171.043V40.8444ZM152.227 63.456H157.301V31.4159H152.227V63.456ZM143.843 44.9179C143.843 46.1542 143.215 46.7947 142.003 46.7947H139.713V35.8094H142.003C143.215 35.8094 143.843 36.4505 143.843 37.6863V44.9179ZM148.919 44.9179V37.6863C148.919 33.7952 146.539 31.4157 142.003 31.4157H134.638V63.4558H139.713V51.1895H141.285L144.493 63.4558H149.567L146.117 50.2647C147.964 49.232 148.919 47.378 148.919 44.9179ZM127.033 44.9179C127.033 46.1542 126.405 46.7947 125.192 46.7947H122.902V35.8094H125.192C126.405 35.8094 127.033 36.4505 127.033 37.6863V44.9179ZM125.192 31.4157H117.828V63.4558H122.902V51.1895H125.192C129.728 51.1895 132.108 48.8084 132.108 44.9179V37.6863C132.108 33.7952 129.728 31.4157 125.192 31.4157ZM109.385 57.3221C109.654 59.7947 104.894 59.7947 105.209 57.3221V37.5494C104.894 35.0773 109.654 35.0773 109.385 37.5494V57.3221ZM107.274 31.1409C102.649 31.1409 100.089 33.7036 100.089 37.5494V57.3221C100.089 61.1674 102.649 63.731 107.274 63.731C111.899 63.731 114.459 61.2131 114.459 57.3221V37.5494C114.459 33.6583 111.899 31.1409 107.274 31.1409ZM92.0058 57.3221C92.2748 59.7947 87.5151 59.7947 87.83 57.3221V37.5494C87.5151 35.0773 92.2748 35.0773 92.0058 37.5494V57.3221ZM89.8949 31.1409C85.27 31.1409 82.7104 33.7036 82.7104 37.5494V57.3221C82.7104 61.1674 85.27 63.731 89.8949 63.731C94.5199 63.731 97.0805 61.2131 97.0805 57.3221V37.5494C97.0805 33.6583 94.5199 31.1409 89.8949 31.1409Z" fill="white"/>
</svg>
