<svg width="231" height="68" viewBox="0 0 231 68" fill="none" xmlns="http://www.w3.org/2000/svg">
<path d="M89.2786 64.9744C92.0596 64.9744 94.7901 64.0308 96.4335 62.7557V54.6202H88.8993V58.1396H92.3883V60.2818C91.3518 60.843 90.391 61.0724 89.2786 61.0724C86.2195 61.0724 84.4243 58.6751 84.4243 55.7423C84.4243 52.3758 86.5481 50.4121 89.1016 50.4121C91.0231 50.4121 92.4388 51.2537 93.3996 52.1973L96.3829 49.647C94.5372 47.5047 91.7057 46.4081 89.1016 46.4081C83.3625 46.4081 80 50.4886 80 55.7423C80 61.6335 84.0957 64.9744 89.2786 64.9744ZM99.0452 64.7704H102.989V58.4966C102.989 56.5583 103.899 55.6147 105.265 55.6147C106.554 55.6147 107.237 56.2013 107.237 58.2671V64.7704H111.18V57.298C111.18 53.345 109.309 52.0698 106.756 52.0698C105.315 52.0698 104.001 52.6309 103.04 53.753H102.989V52.2993H99.0452V64.7704ZM119.853 65C123.746 65 126.528 62.3732 126.528 58.5477C126.528 54.6967 123.746 52.0698 119.853 52.0698C115.859 52.0698 113.154 54.7476 113.154 58.5477C113.154 62.3221 115.859 65 119.853 65ZM119.853 61.4805C118.285 61.4805 117.148 60.2053 117.148 58.5477C117.148 56.8389 118.261 55.6147 119.853 55.6147C121.396 55.6147 122.533 56.8134 122.533 58.5477C122.533 60.2564 121.345 61.4805 119.853 61.4805ZM132.719 65C136.106 65 137.75 63.3168 137.75 60.996C137.75 58.5477 136.258 57.8335 133.528 56.8899C132.289 56.4564 131.833 56.1758 131.833 55.7932C131.833 55.3087 132.365 55.1047 132.82 55.1047C133.654 55.1047 134.716 55.5382 135.576 56.4054L137.447 53.6255C136.006 52.5543 134.64 52.0698 132.769 52.0698C130.191 52.0698 128.142 53.5235 128.142 56.0483C128.142 58.4457 129.962 59.4658 132.036 60.1033C133.578 60.5879 133.957 60.843 133.957 61.251C133.957 61.71 133.552 61.9906 132.769 61.9906C131.632 61.9906 130.57 61.5315 129.533 60.5879L127.688 63.1637C129.053 64.3879 130.772 65 132.719 65ZM141.881 50.7436C143.247 50.7436 144.258 49.749 144.258 48.4483C144.258 47.1986 143.247 46.2041 141.881 46.2041C140.516 46.2041 139.53 47.2242 139.53 48.4483C139.53 49.749 140.516 50.7436 141.881 50.7436ZM139.91 64.7704H143.854V52.2993H139.91V64.7704ZM150.791 65C154.179 65 155.822 63.3168 155.822 60.996C155.822 58.5477 154.331 57.8335 151.6 56.8899C150.362 56.4564 149.907 56.1758 149.907 55.7932C149.907 55.3087 150.437 55.1047 150.892 55.1047C151.727 55.1047 152.789 55.5382 153.648 56.4054L155.519 53.6255C154.078 52.5543 152.713 52.0698 150.842 52.0698C148.263 52.0698 146.215 53.5235 146.215 56.0483C146.215 58.4457 148.036 59.4658 150.109 60.1033C151.651 60.5879 152.03 60.843 152.03 61.251C152.03 61.71 151.626 61.9906 150.842 61.9906C149.704 61.9906 148.642 61.5315 147.606 60.5879L145.76 63.1637C147.126 64.3879 148.845 65 150.791 65ZM172.854 65C176.039 65 178.542 63.4698 180.084 61.557L176.999 58.8792C175.963 60.1288 174.522 60.9195 172.854 60.9195C169.921 60.9195 168.024 58.6497 168.024 55.7423C168.024 52.4269 170.224 50.4886 172.828 50.4886C174.573 50.4886 176.014 51.4322 176.974 52.5799L180.059 49.902C178.087 47.4792 175.356 46.4081 172.828 46.4081C166.912 46.4081 163.574 50.5651 163.574 55.7423C163.574 61.7611 167.696 65 172.854 65ZM182.027 64.7704H185.972V58.4711C185.972 56.5329 186.881 55.6147 188.272 55.6147C189.662 55.6147 190.345 56.2269 190.345 58.2416V64.7704H194.29V57.2469C194.29 53.3194 192.393 52.0698 189.84 52.0698C188.323 52.0698 186.983 52.6309 186.022 53.7275L185.972 53.702V46H182.027V64.7704ZM202.049 65C203.54 65 204.652 64.4899 205.462 63.4442L205.512 63.4698V64.7704H209.28V52.2993H205.31V53.6L205.26 53.6255C204.4 52.6054 203.161 52.0698 201.846 52.0698C198.661 52.0698 196.209 54.7222 196.209 58.5477C196.209 62.3986 198.661 65 202.049 65ZM202.883 61.4805C201.316 61.4805 200.229 60.3073 200.229 58.5477C200.229 56.7624 201.366 55.5893 202.883 55.5893C204.349 55.5893 205.487 56.8389 205.487 58.5477C205.487 60.3329 204.298 61.4805 202.883 61.4805ZM214.025 50.7436C215.39 50.7436 216.402 49.749 216.402 48.4483C216.402 47.1986 215.39 46.2041 214.025 46.2041C212.66 46.2041 211.674 47.2242 211.674 48.4483C211.674 49.749 212.66 50.7436 214.025 50.7436ZM212.053 64.7704H215.997V52.2993H212.053V64.7704ZM218.864 64.7704H222.808V58.4966C222.808 56.5583 223.719 55.6147 225.084 55.6147C226.374 55.6147 227.056 56.2013 227.056 58.2671V64.7704H231V57.298C231 53.345 229.129 52.0698 226.575 52.0698C225.134 52.0698 223.82 52.6309 222.859 53.753H222.808V52.2993H218.864V64.7704Z" fill="#EFEFEF"/>
<path d="M19.8227 38.6716C21.8332 38.6716 23.6892 37.9955 25.1843 36.8252L12.9143 24.446C11.7543 25.9285 11.0841 27.8009 11.0841 29.8555C11.0583 34.7186 14.9765 38.6716 19.8227 38.6716Z" fill="#EFEFEF"/>
<path d="M56.3248 29.8293C56.3248 27.8009 55.6546 25.9285 54.4946 24.42L42.2246 36.799C43.694 37.9693 45.55 38.6455 47.5863 38.6455C52.4067 38.6715 56.3248 34.7186 56.3248 29.8293Z" fill="#EFEFEF"/>
<path d="M62.5101 16.3842L57.0711 21.8716C58.8755 24.056 59.9582 26.8127 59.9582 29.8816C59.9582 36.7732 54.4161 42.3646 47.585 42.3646C44.5691 42.3646 41.8109 41.2723 39.6456 39.4519L33.691 45.4593L27.7364 39.4519C25.5712 41.2723 22.8388 42.3646 19.7971 42.3646C12.966 42.3646 7.42386 36.7732 7.42386 29.8816C7.42386 26.8387 8.50655 24.056 10.311 21.8716L7.52705 19.0629L4.87191 16.3842C1.77868 21.5334 0 27.541 0 33.9906C0 52.7672 15.0797 67.9549 33.6653 67.9549C52.2507 67.9549 67.3304 52.7412 67.3304 33.9906C67.3821 27.515 65.6034 21.5074 62.5101 16.3842Z" fill="#EFEFEF"/>
<path d="M58.0516 10.5326C51.9425 4.05699 43.2812 0 33.6921 0C24.1029 0 15.4675 4.05699 9.33242 10.5326C8.50762 11.4168 7.70859 12.3531 6.96094 13.3153L33.6663 40.2578L60.3716 13.2893C59.7014 12.353 58.9023 11.3908 58.0516 10.5326ZM33.6921 4.42109C41.5799 4.42109 48.9008 7.48984 54.3912 13.0813L33.6921 33.9644L12.9928 13.0813C18.5092 7.48984 25.8042 4.42109 33.6921 4.42109Z" fill="#EFEFEF"/>
</svg>
