<svg width="72" height="73" viewBox="0 0 72 73" fill="none" xmlns="http://www.w3.org/2000/svg">
<circle cx="36" cy="36.1719" r="36" fill="#0A090E"/>
<path fill-rule="evenodd" clip-rule="evenodd" d="M12.7061 44.2687V36.1691C12.7061 23.3041 23.1352 12.875 36.0001 12.875C42.3457 12.875 48.0987 15.4123 52.2999 19.5278L47.3479 22.6221C44.2779 20.0478 40.3201 18.4977 36.0001 18.4977C26.2405 18.4977 18.3288 26.4095 18.3288 36.1691H23.9514L12.7061 44.2687ZM24.5673 49.644C27.6491 52.2615 31.6403 53.8405 36.0004 53.8405C45.7601 53.8405 53.6718 45.9288 53.6718 36.1691H48.0491L59.2941 27.9359L59.2945 36.1691C59.2945 49.0341 48.8654 59.4632 36.0004 59.4632C29.6155 59.4632 23.8306 56.8944 19.6227 52.7337L24.5673 49.644ZM44.9363 43.9004H38.5103L36.0004 40.5098L33.4905 43.9004H27.0646L32.8861 36.3028L27.0641 28.438H33.0884L36.0004 32.2384L38.9124 28.438H44.9368L39.1148 36.3028L44.9363 43.9004Z" fill="white"/>
</svg>
