<svg width="20" height="20" viewBox="0 0 20 20" fill="none" xmlns="http://www.w3.org/2000/svg">
<path d="M10.0107 0.109375C4.70013 0.109375 0.366211 4.44329 0.366211 9.75387C0.366211 15.0644 4.70013 19.3984 10.0107 19.3984C15.3213 19.3984 19.6552 15.0644 19.6552 9.75387C19.5942 4.44329 15.3213 0.109375 10.0107 0.109375ZM12.8796 14.3319C12.8186 14.7592 12.3303 14.9424 12.0251 14.6982C11.3536 14.2099 10.2549 13.4163 9.40029 12.7449L7.87426 13.9657C7.81322 14.0267 7.69114 14.0267 7.6301 14.0267C7.50802 14.0267 7.44698 13.9047 7.38594 13.8436L6.40928 10.7916L3.72347 9.87595C3.41826 9.75387 3.35722 9.32658 3.72347 9.20449C6.10407 8.22784 12.3303 5.66411 14.2225 4.93162C14.4667 4.80954 14.7109 5.0537 14.7109 5.29787C14.2836 7.06806 13.3069 12.2565 12.8796 14.3319Z" fill="#D0D0D0"/>
</svg>
