<svg width="159" height="97" viewBox="0 0 159 97" fill="none" xmlns="http://www.w3.org/2000/svg">
<path d="M77.8174 67.4206C77.8174 61.9914 81.3187 57.7812 87.3008 57.7812C90.0083 57.7812 92.9569 58.9153 94.8847 61.1267L91.7803 63.7633C90.7738 62.7852 89.2996 61.9205 87.3008 61.9205C84.6358 61.9205 82.4244 63.9476 82.4244 67.4206C82.4244 70.4542 84.2956 72.9207 87.4851 72.9207C88.6475 72.9207 89.6398 72.6797 90.7171 72.0985V69.8872H87.0882V66.2582H94.9414V74.6643C93.2262 75.9826 90.3911 76.9607 87.4851 76.9607C82.0842 76.9607 77.8174 73.5019 77.8174 67.4206Z" fill="white"/>
<path d="M97.6475 63.8621H101.758V65.3647H101.815C102.822 64.2023 104.182 63.6211 105.685 63.6211C108.35 63.6211 110.292 64.9394 110.292 69.022V76.7335H106.181V70.0284C106.181 67.9021 105.472 67.2926 104.126 67.2926C102.708 67.2926 101.758 68.2707 101.758 70.2694V76.7476H97.6475V63.8621V63.8621Z" fill="white"/>
<path d="M112.35 70.3119C112.35 66.3853 115.171 63.6211 119.324 63.6211C123.378 63.6211 126.27 66.3286 126.27 70.3119C126.27 74.2669 123.378 76.9744 119.324 76.9744C115.171 76.9744 112.35 74.2102 112.35 70.3119ZM122.117 70.3119C122.117 68.5258 120.926 67.2784 119.324 67.2784C117.665 67.2784 116.503 68.54 116.503 70.3119C116.503 72.0272 117.694 73.3455 119.324 73.3455C120.883 73.3455 122.117 72.0839 122.117 70.3119Z" fill="white"/>
<path d="M127.49 75.0891L129.418 72.4241C130.495 73.4022 131.601 73.87 132.792 73.87C133.614 73.87 134.025 73.5865 134.025 73.1045C134.025 72.6793 133.628 72.4241 132.026 71.9138C129.872 71.2617 127.972 70.1985 127.972 67.732C127.972 65.1237 130.099 63.6211 132.792 63.6211C134.734 63.6211 136.166 64.1172 137.668 65.2229L135.726 68.0864C134.833 67.1933 133.727 66.7397 132.863 66.7397C132.395 66.7397 131.842 66.9523 131.842 67.4485C131.842 67.8454 132.31 68.1289 133.6 68.5825C136.449 69.5606 137.994 70.2978 137.994 72.821C137.994 75.2167 136.279 76.9603 132.749 76.9603C130.694 76.9744 128.908 76.3507 127.49 75.0891Z" fill="white"/>
<path d="M139.808 59.8926C139.808 58.631 140.828 57.582 142.26 57.582C143.678 57.582 144.741 58.6027 144.741 59.8926C144.741 61.2393 143.692 62.26 142.26 62.26C140.842 62.26 139.808 61.2393 139.808 59.8926ZM140.205 63.8618H144.315V76.7332H140.205V63.8618Z" fill="white"/>
<path d="M146.284 75.0891L148.212 72.4241C149.289 73.4022 150.395 73.87 151.586 73.87C152.408 73.87 152.819 73.5865 152.819 73.1045C152.819 72.6793 152.422 72.4241 150.82 71.9138C148.666 71.2617 146.766 70.1985 146.766 67.732C146.766 65.1237 148.892 63.6211 151.586 63.6211C153.528 63.6211 154.96 64.1172 156.462 65.2229L154.52 68.0864C153.627 67.1933 152.521 66.7397 151.657 66.7397C151.189 66.7397 150.636 66.9523 150.636 67.4485C150.636 67.8454 151.104 68.1289 152.394 68.5825C155.243 69.5606 156.788 70.2978 156.788 72.821C156.788 75.2167 155.073 76.9603 151.543 76.9603C149.502 76.9744 147.702 76.3507 146.284 75.0891Z" fill="white"/>
<path d="M21.8482 52.7892C23.8488 52.7892 25.6867 52.1061 27.1506 50.9676L14.9682 38.7852C13.8296 40.249 13.1465 42.0869 13.1465 44.0875C13.1627 48.9019 17.0501 52.7892 21.8482 52.7892Z" fill="white"/>
<path d="M58.0513 44.107C58.0513 42.1065 57.3682 40.2685 56.2296 38.8047L44.0635 50.9871C45.5273 52.1256 47.3653 52.8088 49.3658 52.8088C54.164 52.7925 58.0513 48.9052 58.0513 44.107Z" fill="white"/>
<path d="M64.1841 30.8672L58.8004 36.2509C60.5733 38.3816 61.663 41.1303 61.663 44.1068C61.663 50.873 56.1492 56.3868 49.383 56.3868C46.3903 56.3868 43.6578 55.3133 41.5271 53.5242L35.6067 59.4283L29.7025 53.5242C27.5718 55.2971 24.823 56.3868 21.8466 56.3868C15.0804 56.3868 9.56658 50.873 9.56658 44.1068C9.56658 41.1141 10.6401 38.3816 12.4292 36.2509L9.66417 33.4858L7.04552 30.8672C3.98772 35.9093 2.21484 41.8297 2.21484 48.173C2.21484 66.6174 17.1623 81.5811 35.6229 81.5811C54.0836 81.5811 69.031 66.6337 69.031 48.173C69.0148 41.8297 67.2419 35.9093 64.1841 30.8672Z" fill="white"/>
<path d="M59.7761 25.1062C53.6931 18.7466 45.1215 14.7617 35.6065 14.7617C26.0915 14.7617 17.5199 18.7466 11.4369 25.1062C10.6074 25.9845 9.82665 26.8953 9.09473 27.855L35.6065 54.3667L62.1183 27.855C61.3864 26.8953 60.6057 25.9845 59.7761 25.1062ZM35.6065 19.137C43.4137 19.137 50.6841 22.146 56.1491 27.6435L35.6065 48.1698L15.0802 27.6435C20.529 22.146 27.7994 19.137 35.6065 19.137Z" fill="white"/>
</svg>
