<svg width="132" height="36" viewBox="0 0 132 36" fill="none" xmlns="http://www.w3.org/2000/svg">
<g opacity="0.85">
<path d="M5.33782 5.21701C10.4386 0.13297 17.9253 -1.01504 24.0957 1.69098L20.8871 4.88901C16.5267 3.659 11.6727 4.72501 8.29958 8.16904C3.77467 12.6791 3.36331 19.6491 6.98325 24.6512L11.8372 19.8131L14.799 22.7652L6.90097 30.5552C6.32507 30.1452 5.83145 29.6532 5.33782 29.1612C-1.32615 22.5192 -1.32615 11.7771 5.33782 5.21701Z" fill="white"/>
<path d="M10.5205 32.6885C16.7731 35.3945 24.2598 34.1645 29.2783 29.1624C35.9423 22.5204 35.9423 11.8603 29.2783 5.21823C28.7847 4.72623 28.2911 4.23422 27.7152 3.82422L19.8994 11.6143L22.8612 14.5663L27.7152 9.72827C31.3351 14.7303 30.8415 21.7824 26.3989 26.2104C22.9435 29.6544 18.0895 30.7205 13.8114 29.4904L10.5205 32.6885Z" fill="white"/>
<path d="M20.3102 17.1903L17.3485 14.2383L14.3867 17.1903L17.3485 20.1423L20.3102 17.1903Z" fill="white"/>
<path d="M11.7538 8.66016L14.7155 11.6122L11.7538 14.5642L8.79199 11.6122L11.7538 8.66016Z" fill="white"/>
<path d="M25.905 22.7645L22.9432 19.8125L19.9814 22.7645L22.9432 25.7165L25.905 22.7645Z" fill="white"/>
<path d="M52.3013 9.4525C53.7934 9.4525 55.1056 9.7456 56.238 10.3318C57.3837 10.9046 58.2697 11.724 58.8958 12.7897C59.522 13.8422 59.835 15.0612 59.835 16.4467C59.835 17.8323 59.5153 19.0579 58.8758 20.1237C58.2364 21.1895 57.3371 22.0155 56.1781 22.6016C55.019 23.1745 53.6801 23.4609 52.1614 23.4609H46.1663V9.4525H52.3013ZM52.4212 20.2036C53.3671 20.2036 54.1331 19.8639 54.7193 19.1845C55.3055 18.505 55.5985 17.6058 55.5985 16.4867C55.5985 15.3676 55.2855 14.4617 54.6593 13.7689C54.0332 13.0762 53.2205 12.7298 52.2213 12.7298H50.3229V20.2036H52.4212ZM62.5072 9.4525H67.3432L69.6613 13.1095L71.9994 9.4525H76.8953L72.3191 16.147L77.315 23.4609H72.3191L69.6613 19.4642L67.0435 23.4609H62.1875L67.1434 16.3268L62.5072 9.4525ZM86.8443 9.47249C88.2432 9.47249 89.4955 9.77224 90.6012 10.3717C91.707 10.9579 92.5729 11.7839 93.1991 12.8497C93.8252 13.9155 94.1383 15.1212 94.1383 16.4667C94.1383 17.8123 93.8185 19.0179 93.1791 20.0837C92.5529 21.1362 91.6803 21.9622 90.5612 22.5617C89.4422 23.1612 88.1699 23.4609 86.7444 23.4609H81.0291V9.47249H86.8443ZM86.9043 21.1029C87.7569 21.1029 88.5229 20.9097 89.2024 20.5234C89.8951 20.1237 90.4347 19.5775 90.821 18.8847C91.2074 18.1786 91.4005 17.3793 91.4005 16.4867C91.4005 15.5941 91.2007 14.7948 90.801 14.0887C90.4014 13.3693 89.8485 12.8164 89.1424 12.43C88.4496 12.0304 87.6703 11.8305 86.8043 11.8305H83.7069V21.1029H86.9043ZM108.484 23.4609L107.245 20.5034H100.41L99.1713 23.4609H96.3936L102.529 9.47249H105.306L111.361 23.4609H108.484ZM101.37 18.2053H106.285L103.847 12.3301L101.37 18.2053ZM121.063 9.29264C122.449 9.29264 123.708 9.60571 124.84 10.2319C125.986 10.858 126.885 11.7173 127.538 12.8097C128.191 13.9022 128.517 15.1145 128.517 16.4467C128.517 17.779 128.191 18.998 127.538 20.1037C126.885 21.1961 125.986 22.0621 124.84 22.7016C123.708 23.341 122.449 23.6608 121.063 23.6608C119.678 23.6608 118.412 23.341 117.266 22.7016C116.134 22.0621 115.241 21.1961 114.588 20.1037C113.936 18.998 113.609 17.779 113.609 16.4467C113.609 15.1145 113.936 13.9022 114.588 12.8097C115.241 11.7173 116.134 10.858 117.266 10.2319C118.412 9.60571 119.678 9.29264 121.063 9.29264ZM121.103 11.6907C120.25 11.6907 119.458 11.9038 118.725 12.3301C117.992 12.7431 117.413 13.316 116.986 14.0487C116.56 14.7681 116.347 15.5675 116.347 16.4467C116.347 17.326 116.56 18.132 116.986 18.8647C117.426 19.5975 118.006 20.177 118.725 20.6033C119.458 21.0296 120.25 21.2428 121.103 21.2428C121.942 21.2428 122.722 21.0296 123.441 20.6033C124.161 20.177 124.727 19.5975 125.14 18.8647C125.566 18.132 125.779 17.326 125.779 16.4467C125.779 15.5675 125.566 14.7681 125.14 14.0487C124.727 13.316 124.161 12.7431 123.441 12.3301C122.722 11.9038 121.942 11.6907 121.103 11.6907Z" fill="white"/>
</g>
</svg>
