<svg width="157" height="72" viewBox="0 0 157 72" fill="none" xmlns="http://www.w3.org/2000/svg">
<path d="M46.2147 31.1561L51.3777 25.9931L26.1229 0.738281L0.868164 25.9931L6.03123 31.1561L0.868164 36.3192L5.88372 41.3348L0.868164 46.3503L26.1229 71.6051L51.3777 46.3503L46.3622 41.3348L51.3777 36.3192L46.2147 31.1561ZM5.05763 25.9931L26.1229 4.92774L47.1883 25.9931L44.1199 29.0614L26.1229 11.0644L8.12596 29.0614L5.05763 25.9931ZM26.1229 47.0584L15.2362 36.1717L26.1229 25.285L37.0096 36.1717L26.1229 47.0584ZM39.1044 38.2664L42.1727 41.3348L26.1229 57.3845L10.0732 41.3348L13.1415 38.2664L26.1229 51.2479L39.1044 38.2664ZM26.1229 21.0955L13.1415 34.077L10.2207 31.1561L26.1229 15.2539L42.0252 31.1561L39.1044 34.077L26.1229 21.0955ZM5.05763 36.3192L8.12596 33.2509L11.0468 36.1717L7.97845 39.24L5.05763 36.3192ZM47.1883 46.3503L26.1229 67.4156L5.05763 46.3503L7.97845 43.4295L26.1229 61.574L44.2675 43.4295L47.1883 46.3503ZM41.1991 36.1717L44.1199 33.2509L47.1883 36.3192L44.2675 39.24L41.1991 36.1717Z" fill="white"/>
<path d="M75.1382 41.9727C74.1799 42.9311 72.7792 43.4102 71.2127 43.4102H65.8682V28.1875H71.2127C72.7976 28.1875 74.1799 28.6667 75.1382 29.625C76.7784 31.2652 76.6863 33.4952 76.6863 35.6883C76.6863 37.8814 76.7784 40.3325 75.1382 41.9727ZM73.5533 31.2837C72.9082 30.5833 72.0605 30.2516 70.9731 30.2516H68.1718V41.3277H70.9731C72.0605 41.3277 72.9267 41.0144 73.5533 40.2957C74.3457 39.4111 74.3642 37.7708 74.3642 35.6699C74.3642 33.5689 74.3457 32.1498 73.5533 31.2837Z" fill="white"/>
<path d="M88.8335 43.4102L87.783 40.351H81.775L80.7246 43.4102H78.2734L83.8576 28.1875H85.719L91.3031 43.4102H88.8335ZM84.8343 31.6154L82.4569 38.379H87.138L84.8343 31.6154Z" fill="white"/>
<path d="M102.393 41.9019C101.342 42.9524 99.9967 43.5237 98.3749 43.5237C96.7531 43.5237 95.4262 42.9524 94.3757 41.9019C92.8829 40.4091 92.9014 38.7136 92.9014 35.7834C92.9014 32.8531 92.8829 31.1576 94.3757 29.6648C95.4262 28.6143 96.7531 28.043 98.3749 28.043C99.9967 28.043 101.342 28.6143 102.393 29.6648C103.885 31.1576 103.848 32.8531 103.848 35.7834C103.848 38.7136 103.885 40.4091 102.393 41.9019ZM100.642 31.0654C100.107 30.4941 99.278 30.1255 98.3749 30.1255C97.4719 30.1255 96.6426 30.4941 96.1081 31.0654C95.3525 31.8763 95.2051 32.7241 95.2051 35.7834C95.2051 38.8426 95.3525 39.6904 96.1081 40.5013C96.6426 41.0726 97.4719 41.4412 98.3749 41.4412C99.278 41.4412 100.107 41.0726 100.642 40.5013C101.397 39.6904 101.545 38.8426 101.545 35.7834C101.526 32.7425 101.379 31.8763 100.642 31.0654Z" fill="white"/>
<path d="M110.525 43.5388C108.756 43.5388 107.263 43.2439 105.973 41.9723L107.41 40.5348C108.295 41.4378 109.456 41.659 110.525 41.659C111.852 41.659 112.902 41.1798 112.902 40.1662C112.902 39.4474 112.497 38.9682 111.446 38.8761L109.714 38.7287C107.687 38.5628 106.507 37.6413 106.507 35.7431C106.507 33.6237 108.332 32.4258 110.598 32.4258C112.22 32.4258 113.621 32.7759 114.616 33.6421L113.252 35.0243C112.57 34.453 111.612 34.2319 110.58 34.2319C109.272 34.2319 108.608 34.8032 108.608 35.6141C108.608 36.2591 108.958 36.7383 110.101 36.8489L111.815 36.9963C113.842 37.1622 115.04 38.1205 115.04 40.0556C115.022 42.3593 113.105 43.5388 110.525 43.5388Z" fill="white"/>
<path d="M120.895 43.4081C118.868 43.4081 117.928 41.9522 117.928 40.3857V34.4146H116.693V32.7559H117.928V29.457H120.103V32.7559H122.204V34.4146H120.103V40.2751C120.103 41.0676 120.49 41.5283 121.301 41.5283H122.204V43.3897H120.895V43.4081Z" fill="white"/>
<path d="M130.832 43.412V42.4352C130.039 43.2277 129.284 43.541 127.938 43.541C126.593 43.541 125.69 43.2277 125.026 42.5642C124.474 41.9929 124.179 41.1451 124.179 40.2421C124.179 38.4176 125.432 37.1275 127.92 37.1275H130.776V36.3535C130.776 34.9897 130.095 34.3262 128.399 34.3262C127.201 34.3262 126.63 34.6027 126.022 35.3767L124.584 34.0313C125.616 32.8334 126.685 32.4648 128.473 32.4648C131.44 32.4648 132.933 33.718 132.933 36.1876V43.4304H130.832V43.412ZM130.776 38.6203H128.233C126.943 38.6203 126.28 39.1916 126.28 40.1868C126.28 41.182 126.906 41.7349 128.27 41.7349C129.099 41.7349 129.726 41.6796 130.297 41.1083C130.611 40.795 130.776 40.2789 130.776 39.5049V38.6203Z" fill="white"/>
<path d="M140.6 43.5438C138.167 43.5438 135.771 42.051 135.771 37.9781C135.771 33.9051 138.167 32.4492 140.6 32.4492C142.093 32.4492 143.143 32.8731 144.175 33.9604L142.683 35.4164C142.001 34.6608 141.466 34.3843 140.6 34.3843C139.771 34.3843 139.052 34.7345 138.591 35.3426C138.112 35.9324 137.946 36.7064 137.946 37.9781C137.946 39.2497 138.112 40.0237 138.591 40.6319C139.07 41.2585 139.771 41.5902 140.6 41.5902C141.448 41.5902 141.982 41.3138 142.683 40.5582L144.175 41.9957C143.143 43.083 142.093 43.5438 140.6 43.5438Z" fill="white"/>
<path d="M153.5 43.4153L150.459 38.4209L148.855 40.2454V43.4337H146.681V28.2109H148.855V37.5915L153.076 32.5972H155.73L151.97 36.8544L156.209 43.4337H153.5V43.4153Z" fill="white"/>
</svg>
