<svg width="21" height="18" viewBox="0 0 21 18" fill="none" xmlns="http://www.w3.org/2000/svg">
<path fill-rule="evenodd" clip-rule="evenodd" d="M20.7429 2.85245C20.8613 2.73411 20.8613 2.49742 20.8613 2.49742C20.1512 2.73411 19.4411 2.9708 18.8494 2.9708C19.1264 2.87847 19.4754 2.49798 19.7279 2.22277C19.799 2.14524 19.8625 2.07606 19.9145 2.02403C20.2696 1.55065 20.5062 1.19561 20.6246 0.722225V0.603879H20.5062C19.6778 1.07726 18.8494 1.31396 18.021 1.55065C18.021 1.66899 17.9026 1.55065 17.9026 1.55065L17.6659 1.31396C17.5714 1.25093 17.4769 1.17951 17.3801 1.10641C17.1134 0.904967 16.8298 0.690712 16.4825 0.603879C15.8907 0.367188 15.299 0.367188 14.7073 0.367188C13.9972 0.367188 13.4055 0.603879 12.9321 0.840571C12.3404 1.19561 11.867 1.55065 11.5119 2.02403C11.1569 2.49742 10.8019 3.08915 10.6835 3.68088C10.5652 4.27261 10.5652 4.86434 10.6835 5.45607C10.6835 5.57441 10.6835 5.57442 10.5652 5.57442C7.25148 5.10103 4.41117 3.91757 2.1626 1.31396C2.10342 1.25478 2.07384 1.2252 2.04425 1.2252C2.01466 1.2252 1.98508 1.25478 1.9259 1.31396C0.979136 2.73411 1.45252 5.10103 2.63598 6.28449C2.67181 6.32032 2.70765 6.36701 2.74676 6.41797C2.83684 6.53532 2.94434 6.67536 3.10937 6.75788C2.99102 6.75788 2.1626 6.75788 1.21583 6.28449C1.15666 6.28449 1.12707 6.28449 1.11228 6.29928C1.09748 6.31408 1.09748 6.34366 1.09748 6.40284V6.87622C1.21583 8.41472 2.28094 9.71653 3.7011 10.3083C3.81944 10.3083 3.9082 10.3378 3.99696 10.3674C4.08572 10.397 4.17448 10.4266 4.29283 10.4266C4.2321 10.4266 4.16359 10.4344 4.0793 10.444C3.83502 10.4717 3.4582 10.5146 2.75433 10.4266C2.63598 10.4266 2.63598 10.4266 2.63598 10.545C3.34606 12.4385 4.76621 13.0302 5.94967 13.3853C6.06802 13.5036 6.30471 13.5036 6.42306 13.5036C6.13555 13.9828 5.22716 14.3068 4.57778 14.5384C4.42526 14.5927 4.28703 14.642 4.17448 14.6871C3.10937 15.1604 1.9259 15.2788 0.742444 15.1604H0.505752C0.387406 15.1604 0.387406 15.2788 0.505752 15.2788C0.742444 15.5155 0.979136 15.6338 1.21583 15.7522C1.41052 15.8356 1.59868 15.9191 1.78337 16.001C2.38455 16.2676 2.94902 16.5179 3.58275 16.6989C7.72486 17.7641 12.4587 16.9356 15.5357 13.8586C18.021 11.4917 18.8494 8.05968 18.8494 4.74599C18.8494 4.67285 18.8946 4.64491 18.9571 4.6063C18.9957 4.58244 19.0409 4.5545 19.0861 4.5093C19.7962 4.03592 20.2695 3.44419 20.7429 2.85247L20.7429 2.85245Z" fill="#C4C4C4"/>
</svg>
