<svg width="21" height="22" viewBox="0 0 21 22" fill="none" xmlns="http://www.w3.org/2000/svg">
<g opacity="0.78">
<path d="M9.25146 18.7698C9.25146 19.2358 8.893 19.5942 8.427 19.5942C7.961 19.5942 7.60254 19.2358 7.60254 18.7698C7.60254 18.3038 7.961 17.9453 8.427 17.9453C8.893 17.9453 9.25146 18.3038 9.25146 18.7698Z" fill="#E5E5E5"/>
<path d="M14.4136 18.7698C14.4136 19.2358 14.0551 19.5942 13.5891 19.5942C13.1231 19.5942 12.7646 19.2358 12.7646 18.7698C12.7646 18.3038 13.1231 17.9453 13.5891 17.9453C14.0551 17.9453 14.4136 18.3038 14.4136 18.7698Z" fill="#E5E5E5"/>
<path d="M6.20735 2.94069L6.16309 3.65625L6.87865 3.70052L6.92291 2.98496L6.20735 2.94069Z" fill="#E5E5E5"/>
<path d="M18.6794 11.1702C18.6077 11.0627 18.5719 10.991 18.5002 10.8834C18.4285 10.7759 18.3568 10.6684 18.2492 10.5967C18.2134 10.5608 18.2134 10.525 18.1775 10.4891C18.1059 10.4174 18.0342 10.3099 17.9625 10.2382C17.9266 10.1665 17.8549 10.1307 17.7832 10.059C17.7115 9.98729 17.6399 9.9156 17.604 9.8439L17.5682 9.80806C17.5323 9.77221 17.4606 9.70052 17.4248 9.66467C17.3531 9.59298 17.2814 9.52129 17.1739 9.41375C16.5645 8.84021 15.8834 8.37421 15.1665 7.9799H15.1306C14.9514 7.87237 14.7722 7.80067 14.5929 7.72898C14.342 7.62144 14.0552 7.5139 13.8043 7.40637C13.7685 7.40637 13.7685 7.40637 13.7326 7.37052C13.7326 7.33467 13.7685 7.33467 13.7685 7.29883C14.1269 6.36683 14.0911 5.36313 13.6609 4.46698C13.2308 3.57083 12.478 2.88975 11.546 2.56713C10.9725 2.3879 10.4706 2.28037 10.0405 2.31621C10.0046 2.20867 9.96878 1.81437 10.4706 0.703135L9.43109 0.09375L9.18016 0.452212C8.89339 0.846519 8.64247 1.24083 8.3557 1.59929C8.06893 1.31252 7.67462 1.13329 7.28032 1.09744L6.06155 1.02575C6.0257 1.02575 5.98985 1.02575 5.95401 1.02575C5.0937 1.02575 4.37678 1.70683 4.30509 2.56713L4.23339 3.7859C4.19755 4.68206 4.87862 5.47067 5.77478 5.50652L6.63509 5.57821C6.56339 6.29513 6.70678 7.01206 6.99355 7.5856C5.81062 8.08744 4.73524 8.80437 3.80324 9.77221C0.935547 12.6757 0.935547 15.8661 0.935547 18.447V19.9884L2.08262 18.7696C2.2977 19.5582 2.62032 20.3468 3.08632 21.0637H4.55601C3.80324 20.0601 3.30139 18.913 3.08632 17.6942L4.73524 15.9377L3.87493 18.6262L5.38047 17.515C8.06893 15.5793 11.2592 15.1133 14.9155 16.1887C16.4928 16.6547 18.0342 16.2245 18.8228 15.0774C18.8586 15.0416 18.8945 15.0058 18.8945 14.9341C18.9662 15.3642 19.0379 15.7944 19.0379 16.2245C19.0379 17.5867 18.8228 19.4507 17.8191 21.0279H19.2529C19.934 19.6658 20.2925 18.0168 20.2925 16.2245C20.2925 14.5039 19.7189 12.7116 18.6794 11.1702ZM9.03678 3.03313C9.25186 3.3916 9.64616 3.57083 10.0763 3.57083C10.2555 3.57083 10.614 3.60667 11.1517 3.7859C11.7611 4.00098 12.2629 4.43113 12.5497 5.04052C12.8365 5.6499 12.8723 6.29513 12.6214 6.90452C12.478 7.29883 12.2271 7.62144 11.9045 7.87237L11.546 7.44221C11.2951 7.15544 10.9366 6.97621 10.5423 6.97621C10.2555 6.97621 9.96878 7.08375 9.71786 7.26298C9.43109 7.5139 9.2877 7.83652 9.25186 8.19498C8.21232 7.72898 7.67462 6.76113 7.81801 5.54237C7.92555 4.68206 8.31986 3.82175 8.89339 2.96144C9.00093 2.96144 9.03678 2.99729 9.03678 3.03313ZM11.6535 9.98729L11.1875 10.3457C11.1517 10.3816 11.1159 10.3816 11.0442 10.3816C10.9725 10.3816 10.9366 10.3457 10.9008 10.3099L10.8291 10.2024C10.7574 10.1307 10.7574 9.98729 10.8649 9.9156L11.3309 9.55713L10.3989 8.41006C10.2914 8.30252 10.3272 8.12329 10.4348 8.01575C10.4706 7.9799 10.5423 7.94406 10.614 7.94406C10.6857 7.94406 10.7574 7.9799 10.8291 8.0516L13.41 11.2419C13.5175 11.3494 13.4817 11.5287 13.3742 11.6362C13.3383 11.6721 13.3025 11.6721 13.2666 11.7079C13.2308 11.7079 13.2308 11.7079 13.1949 11.7079C13.1232 11.7079 13.0515 11.6721 12.9799 11.6004L12.7289 11.2777L11.7969 12.0305C11.7611 12.0664 11.7252 12.0664 11.6535 12.0664C11.5819 12.0664 11.546 12.0305 11.4743 11.9947L11.0442 11.4928C10.9725 11.4211 10.9725 11.2777 11.08 11.2061L12.012 10.4533L11.6535 9.98729ZM9.39524 8.66098C9.39524 8.62513 9.39524 8.62513 9.35939 8.58929C9.39524 8.62513 9.39524 8.66098 9.39524 8.66098ZM5.48801 3.8576L5.5597 2.63883C5.5597 2.42375 5.73893 2.24452 5.95401 2.24452C5.95401 2.24452 5.95401 2.24452 5.98985 2.24452L7.20862 2.31621C7.4237 2.31621 7.60293 2.53129 7.60293 2.74637V2.81806C7.31616 3.3199 7.10109 3.82175 6.92186 4.3236L5.88232 4.2519C5.63139 4.28775 5.45216 4.07267 5.48801 3.8576ZM17.8549 14.3964C17.3531 15.1133 16.3852 15.3284 15.3099 15.0058C11.9045 14.0021 8.85755 14.2171 6.16909 15.6151L7.60293 11.1344L2.22601 16.8697C2.2977 14.8265 2.72785 12.6399 4.73524 10.6325C5.63139 9.73637 6.67093 9.05529 7.81801 8.62513C8.28401 9.05529 8.8217 9.34206 9.50278 9.55713C9.64616 9.59298 9.78955 9.62883 9.93293 9.62883C9.7537 10.0231 9.82539 10.4891 10.1122 10.8476L10.1839 10.9193C10.0405 11.3136 10.0763 11.7796 10.3631 12.1381L10.7932 12.6399C11.0083 12.9267 11.3668 13.1059 11.7252 13.0701C12.012 13.0701 12.2629 12.9625 12.478 12.7833L12.7289 12.5682C12.8723 12.6399 13.0515 12.6758 13.2308 12.6758C13.3383 12.6758 13.41 12.6757 13.5175 12.6399C13.6968 12.6041 13.876 12.4965 14.0552 12.389C14.5929 11.9588 14.6646 11.1344 14.2345 10.5967L12.3346 8.26667L12.7792 8.81189C12.9226 8.70435 13.0515 8.58929 13.1591 8.4459C13.3383 8.48175 13.4817 8.55344 13.6609 8.58929C13.6968 8.58929 13.7301 8.60657 13.8043 8.62513C13.9477 8.66098 14.0911 8.73267 14.1986 8.80437C14.1986 8.80437 14.1986 8.80437 14.2345 8.80437C14.3779 8.87606 14.5212 8.94775 14.6646 9.01944C14.7005 9.05529 14.7722 9.09113 14.808 9.09113C14.9155 9.16283 15.0231 9.19867 15.1306 9.27037C15.2023 9.30621 15.2382 9.34206 15.3099 9.3779C15.3815 9.4496 15.4891 9.48544 15.5608 9.55713C15.6325 9.62883 15.7042 9.66467 15.7759 9.73637C15.8475 9.77221 15.9192 9.8439 15.9551 9.87975C16.0626 9.95144 16.1702 10.059 16.2777 10.1307C16.3135 10.1665 16.3494 10.1665 16.3852 10.2024C16.5286 10.3099 16.6362 10.4533 16.7795 10.5608C17.138 10.9193 17.4248 11.2778 17.7115 11.7079C18.2492 12.7474 18.3209 13.7153 17.8549 14.3964Z" fill="#E5E5E5"/>
</g>
</svg>
