<svg width="223" height="238" viewBox="0 0 223 238" fill="none" xmlns="http://www.w3.org/2000/svg">
<g style="mix-blend-mode:screen" filter="url(#filter0_d)">
<ellipse cx="104.001" cy="119.044" rx="12.6888" ry="41.4501" transform="rotate(-45 104.001 119.044)" fill="url(#paint0_radial)"/>
<path d="M112.599 110.446C120.666 118.513 126.954 126.803 130.603 133.673C132.429 137.111 133.58 140.166 133.977 142.642C134.376 145.133 133.997 146.919 132.936 147.98C131.875 149.041 130.089 149.42 127.598 149.021C125.122 148.624 122.067 147.473 118.63 145.647C111.76 141.997 103.47 135.71 95.4024 127.643C87.3352 119.576 81.0479 111.285 77.3984 104.416C75.572 100.978 74.421 97.923 74.0242 95.4467C73.625 92.9558 74.0041 91.1697 75.0651 90.1087C76.126 89.0477 77.9122 88.6686 80.4031 89.0678C82.8794 89.4647 85.9341 90.6156 89.3719 92.442C96.2416 96.0915 104.532 102.379 112.599 110.446Z" stroke="url(#paint1_linear)" stroke-width="1.05785"/>
</g>
<g style="mix-blend-mode:screen" filter="url(#filter1_d)">
<ellipse cx="103.999" cy="119.05" rx="12.6888" ry="41.4501" transform="rotate(-135 103.999 119.05)" fill="url(#paint2_radial)"/>
<path d="M95.4006 110.452C103.468 102.385 111.758 96.0972 118.628 92.4477C122.066 90.6213 125.12 89.4704 127.597 89.0735C130.087 88.6743 131.874 89.0535 132.935 90.1144C133.996 91.1754 134.375 92.9616 133.975 95.4525C133.579 97.9287 132.428 100.983 130.601 104.421C126.952 111.291 120.664 119.581 112.597 127.648C104.53 135.716 96.2398 142.003 89.3701 145.652C85.9323 147.479 82.8776 148.63 80.4013 149.027C77.9104 149.426 76.1242 149.047 75.0633 147.986C74.0023 146.925 73.6232 145.139 74.0224 142.648C74.4192 140.171 75.5702 137.117 77.3966 133.679C81.0461 126.809 87.3334 118.519 95.4006 110.452Z" stroke="url(#paint3_linear)" stroke-width="1.05785"/>
</g>
<g style="mix-blend-mode:screen" filter="url(#filter2_d)">
<path d="M103.25 108.498C103.663 108.085 104.333 108.085 104.746 108.498L114.561 118.313C114.974 118.726 114.974 119.396 114.561 119.809L104.746 129.623C104.333 130.036 103.663 130.036 103.25 129.623L93.4355 119.809C93.0224 119.396 93.0224 118.726 93.4355 118.313L103.25 108.498Z" fill="url(#paint4_radial)"/>
<path d="M103.624 108.872C103.831 108.665 104.166 108.665 104.372 108.872L114.187 118.687C114.393 118.893 114.393 119.228 114.187 119.435L104.372 129.249C104.166 129.456 103.831 129.456 103.624 129.249L93.8095 119.435C93.603 119.228 93.603 118.893 93.8095 118.687L103.624 108.872Z" stroke="url(#paint5_linear)" stroke-width="1.05785"/>
</g>
<g style="mix-blend-mode:screen" filter="url(#filter3_d)">
<path d="M103.251 114.166C103.664 113.753 104.334 113.753 104.747 114.166L108.906 118.325C109.319 118.738 109.319 119.408 108.906 119.821L104.747 123.981C104.334 124.394 103.664 124.394 103.251 123.981L99.0918 119.821C98.6786 119.408 98.6786 118.738 99.0918 118.325L103.251 114.166Z" fill="url(#paint6_radial)"/>
<path d="M103.625 114.54C103.832 114.333 104.167 114.333 104.373 114.54L108.532 118.699C108.739 118.906 108.739 119.241 108.532 119.447L104.373 123.607C104.167 123.813 103.832 123.813 103.625 123.607L99.4658 119.447C99.2592 119.241 99.2592 118.906 99.4658 118.699L103.625 114.54Z" stroke="url(#paint7_linear)" stroke-width="1.05785"/>
</g>
<g style="mix-blend-mode:screen" filter="url(#filter4_d)">
<circle cx="104.002" cy="119.053" r="62.8034" stroke="url(#paint8_linear)" stroke-width="2"/>
</g>
<g style="mix-blend-mode:screen" filter="url(#filter5_d)">
<path d="M49 121.625C50.4271 139.317 60.069 155.99 76.4028 165.613C92.7366 175.236 111.993 175.589 128.16 168.262" stroke="url(#paint9_linear)" stroke-opacity="0.6"/>
</g>
<g style="mix-blend-mode:screen" filter="url(#filter6_d)">
<path d="M79.833 69.2891C95.9999 61.9623 115.257 62.3149 131.591 71.9378C147.924 81.5608 157.566 98.2337 158.993 115.926" stroke="url(#paint10_linear)" stroke-opacity="0.6"/>
</g>
<defs>
<filter id="filter0_d" x="18.3321" y="33.3745" width="171.337" height="171.337" filterUnits="userSpaceOnUse" color-interpolation-filters="sRGB">
<feFlood flood-opacity="0" result="BackgroundImageFix"/>
<feColorMatrix in="SourceAlpha" type="matrix" values="0 0 0 0 0 0 0 0 0 0 0 0 0 0 0 0 0 0 127 0" result="hardAlpha"/>
<feOffset/>
<feGaussianBlur stdDeviation="27.5041"/>
<feColorMatrix type="matrix" values="0 0 0 0 0 0 0 0 0 0.28 0 0 0 0 1 0 0 0 1 0"/>
<feBlend mode="normal" in2="BackgroundImageFix" result="effect1_dropShadow"/>
<feBlend mode="normal" in="SourceGraphic" in2="effect1_dropShadow" result="shape"/>
</filter>
<filter id="filter1_d" x="18.3301" y="33.3824" width="171.337" height="171.337" filterUnits="userSpaceOnUse" color-interpolation-filters="sRGB">
<feFlood flood-opacity="0" result="BackgroundImageFix"/>
<feColorMatrix in="SourceAlpha" type="matrix" values="0 0 0 0 0 0 0 0 0 0 0 0 0 0 0 0 0 0 127 0" result="hardAlpha"/>
<feOffset/>
<feGaussianBlur stdDeviation="27.5041"/>
<feColorMatrix type="matrix" values="0 0 0 0 0 0 0 0 0 0.28 0 0 0 0 1 0 0 0 1 0"/>
<feBlend mode="normal" in2="BackgroundImageFix" result="effect1_dropShadow"/>
<feBlend mode="normal" in="SourceGraphic" in2="effect1_dropShadow" result="shape"/>
</filter>
<filter id="filter2_d" x="38.1172" y="53.1792" width="131.761" height="131.761" filterUnits="userSpaceOnUse" color-interpolation-filters="sRGB">
<feFlood flood-opacity="0" result="BackgroundImageFix"/>
<feColorMatrix in="SourceAlpha" type="matrix" values="0 0 0 0 0 0 0 0 0 0 0 0 0 0 0 0 0 0 127 0" result="hardAlpha"/>
<feOffset/>
<feGaussianBlur stdDeviation="27.5041"/>
<feColorMatrix type="matrix" values="0 0 0 0 0 0 0 0 0 0.28 0 0 0 0 1 0 0 0 1 0"/>
<feBlend mode="normal" in2="BackgroundImageFix" result="effect1_dropShadow"/>
<feBlend mode="normal" in="SourceGraphic" in2="effect1_dropShadow" result="shape"/>
</filter>
<filter id="filter3_d" x="43.7735" y="58.8472" width="120.451" height="120.451" filterUnits="userSpaceOnUse" color-interpolation-filters="sRGB">
<feFlood flood-opacity="0" result="BackgroundImageFix"/>
<feColorMatrix in="SourceAlpha" type="matrix" values="0 0 0 0 0 0 0 0 0 0 0 0 0 0 0 0 0 0 127 0" result="hardAlpha"/>
<feOffset/>
<feGaussianBlur stdDeviation="27.5041"/>
<feColorMatrix type="matrix" values="0 0 0 0 0 0 0 0 0 0.28 0 0 0 0 1 0 0 0 1 0"/>
<feBlend mode="normal" in2="BackgroundImageFix" result="effect1_dropShadow"/>
<feBlend mode="normal" in="SourceGraphic" in2="effect1_dropShadow" result="shape"/>
</filter>
<filter id="filter4_d" x="-14.81" y="0.241734" width="237.623" height="237.623" filterUnits="userSpaceOnUse" color-interpolation-filters="sRGB">
<feFlood flood-opacity="0" result="BackgroundImageFix"/>
<feColorMatrix in="SourceAlpha" type="matrix" values="0 0 0 0 0 0 0 0 0 0 0 0 0 0 0 0 0 0 127 0" result="hardAlpha"/>
<feOffset/>
<feGaussianBlur stdDeviation="27.5041"/>
<feColorMatrix type="matrix" values="0 0 0 0 0 0 0 0 0 0.28 0 0 0 0 1 0 0 0 1 0"/>
<feBlend mode="normal" in2="BackgroundImageFix" result="effect1_dropShadow"/>
<feBlend mode="normal" in="SourceGraphic" in2="effect1_dropShadow" result="shape"/>
</filter>
<filter id="filter5_d" x="-6.50631" y="66.5777" width="189.882" height="162.275" filterUnits="userSpaceOnUse" color-interpolation-filters="sRGB">
<feFlood flood-opacity="0" result="BackgroundImageFix"/>
<feColorMatrix in="SourceAlpha" type="matrix" values="0 0 0 0 0 0 0 0 0 0 0 0 0 0 0 0 0 0 127 0" result="hardAlpha"/>
<feOffset/>
<feGaussianBlur stdDeviation="27.5041"/>
<feColorMatrix type="matrix" values="0 0 0 0 0 0 0 0 0 0.28 0 0 0 0 1 0 0 0 1 0"/>
<feBlend mode="normal" in2="BackgroundImageFix" result="effect1_dropShadow"/>
<feBlend mode="normal" in="SourceGraphic" in2="effect1_dropShadow" result="shape"/>
</filter>
<filter id="filter6_d" x="24.6182" y="8.69876" width="189.882" height="162.275" filterUnits="userSpaceOnUse" color-interpolation-filters="sRGB">
<feFlood flood-opacity="0" result="BackgroundImageFix"/>
<feColorMatrix in="SourceAlpha" type="matrix" values="0 0 0 0 0 0 0 0 0 0 0 0 0 0 0 0 0 0 127 0" result="hardAlpha"/>
<feOffset/>
<feGaussianBlur stdDeviation="27.5041"/>
<feColorMatrix type="matrix" values="0 0 0 0 0 0 0 0 0 0.28 0 0 0 0 1 0 0 0 1 0"/>
<feBlend mode="normal" in2="BackgroundImageFix" result="effect1_dropShadow"/>
<feBlend mode="normal" in="SourceGraphic" in2="effect1_dropShadow" result="shape"/>
</filter>
<radialGradient id="paint0_radial" cx="0" cy="0" r="1" gradientUnits="userSpaceOnUse" gradientTransform="translate(103.993 119.022) rotate(90) scale(41.4299 12.6826)">
<stop stop-color="#304FFE"/>
<stop offset="1" stop-color="#3D5AFE"/>
</radialGradient>
<linearGradient id="paint1_linear" x1="65.7187" y1="98.707" x2="99.4711" y2="75.9329" gradientUnits="userSpaceOnUse">
<stop stop-color="#3D5AFE" stop-opacity="0.05"/>
<stop offset="0.229167" stop-color="#3D5AFE"/>
<stop offset="0.463542" stop-color="#A9B6FF"/>
<stop offset="0.786458" stop-color="#3D5AFE"/>
<stop offset="1" stop-color="#3D5AFE" stop-opacity="0.05"/>
</linearGradient>
<radialGradient id="paint2_radial" cx="0" cy="0" r="1" gradientUnits="userSpaceOnUse" gradientTransform="translate(103.991 119.028) rotate(90) scale(41.4299 12.6826)">
<stop stop-color="#304FFE"/>
<stop offset="1" stop-color="#3D5AFE"/>
</radialGradient>
<linearGradient id="paint3_linear" x1="83.6616" y1="157.332" x2="60.8875" y2="123.58" gradientUnits="userSpaceOnUse">
<stop stop-color="#3D5AFE" stop-opacity="0.05"/>
<stop offset="0.229167" stop-color="#3D5AFE"/>
<stop offset="0.463542" stop-color="#A9B6FF"/>
<stop offset="0.786458" stop-color="#3D5AFE"/>
<stop offset="1" stop-color="#3D5AFE" stop-opacity="0.05"/>
</linearGradient>
<radialGradient id="paint4_radial" cx="0" cy="0" r="1" gradientUnits="userSpaceOnUse" gradientTransform="translate(103.991 119.055) rotate(90) scale(11.3051)">
<stop stop-color="#304FFE"/>
<stop offset="1" stop-color="#3D5AFE"/>
</radialGradient>
<linearGradient id="paint5_linear" x1="92.6875" y1="107.75" x2="119.05" y2="124.475" gradientUnits="userSpaceOnUse">
<stop stop-color="#3D5AFE" stop-opacity="0.05"/>
<stop offset="0.229167" stop-color="#3D5AFE"/>
<stop offset="0.463542" stop-color="#A9B6FF"/>
<stop offset="0.786458" stop-color="#3D5AFE"/>
<stop offset="1" stop-color="#3D5AFE" stop-opacity="0.05"/>
</linearGradient>
<radialGradient id="paint6_radial" cx="0" cy="0" r="1" gradientUnits="userSpaceOnUse" gradientTransform="translate(103.996 119.07) rotate(90) scale(5.65254)">
<stop stop-color="#304FFE"/>
<stop offset="1" stop-color="#3D5AFE"/>
</radialGradient>
<linearGradient id="paint7_linear" x1="98.3437" y1="113.418" x2="111.525" y2="121.78" gradientUnits="userSpaceOnUse">
<stop stop-color="#3D5AFE" stop-opacity="0.05"/>
<stop offset="0.229167" stop-color="#3D5AFE"/>
<stop offset="0.463542" stop-color="#A9B6FF"/>
<stop offset="0.786458" stop-color="#3D5AFE"/>
<stop offset="1" stop-color="#3D5AFE" stop-opacity="0.05"/>
</linearGradient>
<linearGradient id="paint8_linear" x1="40.1982" y1="55.25" x2="188.907" y2="149.595" gradientUnits="userSpaceOnUse">
<stop stop-color="#3D5AFE" stop-opacity="0.05"/>
<stop offset="0.229167" stop-color="#3D5AFE"/>
<stop offset="0.463542" stop-color="#A9B6FF"/>
<stop offset="0.786458" stop-color="#3D5AFE"/>
<stop offset="1" stop-color="#3D5AFE" stop-opacity="0.05"/>
</linearGradient>
<linearGradient id="paint9_linear" x1="49" y1="121.625" x2="89.2804" y2="190.487" gradientUnits="userSpaceOnUse">
<stop stop-color="#3D5AFE" stop-opacity="0.05"/>
<stop offset="0.229167" stop-color="#3D5AFE"/>
<stop offset="0.463542" stop-color="#A9B6FF"/>
<stop offset="0.757975" stop-color="#3D5AFE"/>
<stop offset="1" stop-color="#3D5AFE" stop-opacity="0"/>
</linearGradient>
<linearGradient id="paint10_linear" x1="79.833" y1="69.2891" x2="159.589" y2="71.1457" gradientUnits="userSpaceOnUse">
<stop stop-color="#3D5AFE" stop-opacity="0.05"/>
<stop offset="0.229167" stop-color="#3D5AFE"/>
<stop offset="0.463542" stop-color="#A9B6FF"/>
<stop offset="0.757975" stop-color="#3D5AFE"/>
<stop offset="1" stop-color="#3D5AFE" stop-opacity="0"/>
</linearGradient>
</defs>
</svg>
